{"glyphs":{"0":{"ha":694,"x_min":0,"x_max":0,"o":"m 347 881 b 443 771 422 881 443 858 l 443 236 b 347 126 443 149 422 126 b 251 236 272 126 251 149 l 251 771 b 347 881 251 858 272 881 z m 347 1021 b 83 771 147 1021 83 949 l 83 236 b 347 -14 83 58 147 -14 b 611 236 547 -14 611 58 l 611 771 b 347 1021 611 949 547 1021 z "},"1":{"ha":694,"x_min":0,"x_max":0,"o":"m 461 1021 l 138 840 l 138 658 l 299 753 l 299 0 l 461 0 z "},"2":{"ha":694,"x_min":0,"x_max":0,"o":"m 335 1021 b 61 731 183 1021 68 939 l 224 731 b 332 869 226 836 263 869 b 447 743 417 869 447 821 b 406 590 447 689 432 639 l 83 0 l 613 0 l 613 169 l 361 169 l 558 522 b 617 739 596 590 617 664 b 335 1021 617 904 517 1021 z "},"3":{"ha":694,"x_min":0,"x_max":0,"o":"m 643 301 b 521 526 643 418 601 489 b 628 736 592 572 628 646 b 339 1021 628 885 532 1021 b 57 754 178 1021 68 926 l 228 754 b 339 868 228 819 254 868 b 461 725 415 868 461 828 b 335 585 461 628 421 585 l 313 585 l 313 456 l 339 456 b 467 300 419 456 467 408 b 340 139 467 196 422 139 b 226 253 264 139 226 189 l 57 253 b 339 -14 71 71 181 -14 b 643 301 531 -14 643 108 z "},"4":{"ha":694,"x_min":0,"x_max":0,"o":"m 671 379 l 553 379 l 553 1007 l 350 1007 l 24 386 l 24 210 l 375 210 l 375 0 l 553 0 l 553 210 l 671 210 z m 171 379 l 375 753 l 375 379 z "},"5":{"ha":694,"x_min":0,"x_max":0,"o":"m 599 1007 l 97 1007 l 67 415 l 208 415 b 332 485 228 454 264 485 b 463 317 419 485 463 435 b 338 139 463 194 417 139 b 226 253 263 139 226 190 l 57 253 b 346 -14 74 76 189 -14 b 640 324 535 -14 640 117 b 379 638 640 525 540 638 b 235 599 336 638 272 629 l 253 838 l 599 838 z "},"6":{"ha":694,"x_min":0,"x_max":0,"o":"m 647 310 b 404 610 647 493 550 610 b 338 603 388 610 354 608 l 567 1007 l 365 1007 l 160 636 b 47 304 89 508 47 422 b 346 -14 47 114 154 -14 b 647 310 539 -14 647 115 z m 225 304 b 347 469 225 406 271 469 b 469 304 424 469 469 406 b 347 139 469 203 424 139 b 225 304 271 139 225 203 z "},"7":{"ha":694,"x_min":0,"x_max":0,"o":"m 53 1007 l 53 838 l 413 838 l 104 0 l 313 0 l 658 1007 z "},"8":{"ha":694,"x_min":0,"x_max":0,"o":"m 347 1021 b 60 742 160 1021 60 906 b 160 528 60 647 93 575 b 47 296 93 497 47 421 b 347 -14 47 108 153 -14 b 647 296 542 -14 647 108 b 535 528 647 421 601 497 b 635 742 601 575 635 647 b 347 1021 635 906 535 1021 z m 347 457 b 469 297 424 457 469 396 b 347 139 469 200 424 139 b 225 297 271 139 225 200 b 347 457 225 396 271 457 z m 347 868 b 461 728 418 868 461 814 b 347 588 461 642 418 588 b 233 728 276 588 233 642 b 347 868 233 814 276 868 z "},"9":{"ha":694,"x_min":0,"x_max":0,"o":"m 47 711 b 296 428 47 539 142 428 b 368 435 319 428 343 431 l 128 0 l 329 0 l 535 371 b 647 704 603 494 647 581 b 347 1021 647 893 542 1021 b 47 711 157 1021 47 897 z m 225 714 b 347 868 225 808 271 868 b 469 714 424 868 469 808 b 347 561 469 621 424 561 b 225 714 271 561 225 621 z "},"\u0017":{"ha":694,"x_min":0,"x_max":0,"o":""}," ":{"ha":694,"x_min":0,"x_max":0,"o":""},"!":{"ha":694,"x_min":0,"x_max":0,"o":"m 436 1007 l 258 1007 l 258 350 l 436 350 z m 450 94 b 351 206 450 154 419 206 b 244 94 283 206 244 154 b 349 -14 244 35 281 -14 b 450 94 417 -14 450 35 z "},"\"":{"ha":694,"x_min":0,"x_max":0,"o":"m 278 1007 l 140 1007 l 140 639 l 278 639 z m 556 1007 l 418 1007 l 418 639 l 556 639 z "},"#":{"ha":694,"x_min":0,"x_max":0,"o":"m 568 728 l 628 1007 l 522 1007 l 461 728 l 333 728 l 390 1007 l 283 1007 l 225 728 l 118 728 l 92 607 l 200 607 l 153 400 l 51 400 l 25 279 l 128 279 l 69 0 l 176 0 l 236 279 l 367 279 l 306 0 l 413 0 l 474 279 l 578 279 l 603 400 l 500 400 l 543 607 l 643 607 l 669 728 z m 393 397 l 260 397 l 304 607 l 436 607 z "},"$":{"ha":694,"x_min":0,"x_max":0,"o":"m 393 -140 l 393 -10 b 638 278 554 8 638 121 b 532 504 638 371 608 439 b 304 649 460 567 367 606 b 239 757 264 676 239 700 b 344 868 239 808 258 868 b 454 756 414 868 454 829 l 617 756 b 393 1018 615 903 544 1003 l 393 1147 l 282 1147 l 282 1015 b 61 747 144 993 61 900 b 154 525 61 646 97 576 b 361 396 214 471 300 435 b 457 257 438 347 457 307 b 353 139 457 197 429 139 b 224 263 282 139 232 188 l 58 263 b 282 -10 69 101 144 8 l 282 -140 z "},"%":{"ha":694,"x_min":0,"x_max":0,"o":"m 293 883 b 140 1029 293 967 256 1029 b -11 883 28 1029 -11 969 l -11 604 b 142 457 -11 519 28 457 b 293 606 256 457 293 519 z m 94 881 b 140 932 94 915 111 932 b 186 878 171 932 186 915 l 186 610 b 140 556 186 571 171 556 b 94 607 111 556 94 571 z m 586 1007 l 0 0 l 110 0 l 694 1007 z m 708 404 b 556 550 708 488 671 550 b 404 404 443 550 404 490 l 404 125 b 557 -22 404 40 443 -22 b 708 126 671 -22 708 40 z m 510 401 b 556 453 510 436 526 453 b 601 399 586 453 601 436 l 601 131 b 556 76 601 92 586 76 b 510 128 526 76 510 92 z "},"&":{"ha":694,"x_min":0,"x_max":0,"o":"m 550 222 l 693 396 l 593 506 l 478 357 l 356 557 b 492 817 453 644 492 722 b 297 1021 492 935 431 1021 b 106 814 161 1021 106 931 b 186 581 106 726 138 660 b 17 258 68 499 17 389 b 242 -14 17 86 106 -14 b 453 107 326 -14 399 25 l 510 0 l 681 0 z m 372 822 b 292 674 372 769 346 722 b 236 825 256 731 236 781 b 304 908 236 869 256 908 b 372 822 351 908 372 869 z m 375 238 b 253 153 336 176 297 153 b 160 274 193 153 160 196 b 250 458 160 342 186 408 z "},"'":{"ha":694,"x_min":0,"x_max":0,"o":"m 417 1007 l 279 1007 l 279 639 l 417 639 z "},"(":{"ha":694,"x_min":0,"x_max":0,"o":"m 483 1136 b 301 431 363 903 301 667 b 483 -278 301 193 363 -43 l 590 -208 b 439 426 490 -14 439 228 b 590 1067 439 628 490 871 z "},")":{"ha":694,"x_min":0,"x_max":0,"o":"m 106 1067 b 256 426 206 871 256 628 b 106 -208 256 228 206 -14 l 213 -278 b 393 431 333 -43 393 193 b 213 1136 393 667 333 903 z "},"*":{"ha":694,"x_min":0,"x_max":0,"o":"m 3 696 l 288 644 l 92 436 l 217 346 l 354 601 l 490 351 l 615 442 l 415 651 l 694 704 l 647 850 l 386 725 l 422 1007 l 269 1007 l 308 719 l 50 842 z "},"+":{"ha":694,"x_min":0,"x_max":0,"o":"m 403 189 l 403 444 l 657 444 l 657 556 l 403 556 l 403 808 l 292 808 l 292 556 l 38 556 l 38 444 l 292 444 l 292 189 z "},",":{"ha":694,"x_min":0,"x_max":0,"o":"m 265 215 l 219 -164 l 326 -189 l 429 178 z "},"-":{"ha":694,"x_min":0,"x_max":0,"o":"m 561 585 l 132 585 l 132 436 l 561 436 z "},".":{"ha":694,"x_min":0,"x_max":0,"o":"m 450 94 b 349 206 450 154 417 206 b 244 94 281 206 244 154 b 349 -14 244 35 281 -14 b 450 94 417 -14 450 35 z "},"/":{"ha":694,"x_min":0,"x_max":0,"o":"m 683 1096 l 558 1096 l 11 -235 l 136 -235 z "},":":{"ha":694,"x_min":0,"x_max":0,"o":"m 450 678 b 349 789 450 738 417 789 b 244 678 281 789 244 738 b 349 569 244 618 281 569 b 450 678 417 569 450 618 z m 450 247 b 349 358 450 307 417 358 b 244 247 281 358 244 307 b 349 139 244 188 281 139 b 450 247 417 139 450 188 z "},";":{"ha":694,"x_min":0,"x_max":0,"o":"m 450 678 b 349 789 450 738 417 789 b 244 678 281 789 244 738 b 349 569 244 618 281 569 b 450 678 417 569 450 618 z m 265 368 l 219 -11 l 326 -36 l 429 331 z "},"<":{"ha":694,"x_min":0,"x_max":0,"o":"m 656 253 l 151 500 l 656 749 l 656 872 l 38 564 l 38 436 l 656 129 z "},"=":{"ha":694,"x_min":0,"x_max":0,"o":"m 657 290 l 657 401 l 38 401 l 38 290 z m 657 600 l 657 711 l 38 711 l 38 600 z "},">":{"ha":694,"x_min":0,"x_max":0,"o":"m 38 129 l 656 436 l 656 564 l 38 872 l 38 749 l 542 500 l 38 253 z "},"?":{"ha":694,"x_min":0,"x_max":0,"o":"m 333 1021 b 61 731 176 1021 67 938 l 224 731 b 326 869 228 832 260 869 b 424 761 394 869 424 831 b 314 603 424 692 393 665 b 219 390 244 547 219 483 l 219 363 l 379 363 l 379 382 b 474 533 379 449 397 465 b 601 769 557 608 601 668 b 333 1021 601 910 514 1021 z m 407 94 b 306 206 407 154 374 206 b 201 94 238 206 201 154 b 306 -14 201 35 238 -14 b 407 94 374 -14 407 35 z "},"@":{"ha":694,"x_min":0,"x_max":0,"o":"m 388 869 b 26 536 143 869 26 760 l 26 107 b 376 -254 26 -137 158 -254 l 668 -254 l 668 -85 l 372 -85 b 190 122 274 -85 190 -33 l 190 542 b 386 726 190 671 254 726 b 547 586 503 726 547 665 l 547 517 b 435 568 517 553 479 568 b 268 321 318 568 268 464 b 436 78 268 178 318 78 b 551 135 486 78 526 96 l 551 86 l 668 86 l 668 582 b 388 869 668 763 588 869 z m 460 446 b 547 321 506 446 547 408 b 460 199 547 233 506 199 b 389 322 414 199 389 235 b 460 446 389 408 414 446 z "},"A":{"ha":694,"x_min":0,"x_max":0,"o":"m 481 0 l 669 0 l 436 1007 l 257 1007 l 25 0 l 203 0 l 233 151 l 449 151 z m 343 675 l 415 319 l 268 319 z "},"Α":{"ha":694,"x_min":0,"x_max":0,"o":"m 481 0 l 669 0 l 436 1007 l 257 1007 l 25 0 l 203 0 l 233 151 l 449 151 z m 343 675 l 415 319 l 268 319 z "},"А":{"ha":694,"x_min":0,"x_max":0,"o":"m 481 0 l 669 0 l 436 1007 l 257 1007 l 25 0 l 203 0 l 233 151 l 449 151 z m 343 675 l 415 319 l 268 319 z "},"B":{"ha":694,"x_min":0,"x_max":0,"o":"m 643 285 b 522 517 643 408 606 479 b 625 736 592 569 625 631 b 374 1007 625 906 540 1007 l 69 1007 l 69 0 l 351 0 b 643 285 551 0 643 92 z m 449 724 b 331 574 449 611 403 574 l 247 574 l 247 864 l 318 864 b 449 724 399 864 449 840 z m 467 308 b 339 156 467 213 424 156 l 247 156 l 247 458 l 333 458 b 467 308 428 458 467 400 z "},"Β":{"ha":694,"x_min":0,"x_max":0,"o":"m 643 285 b 522 517 643 408 606 479 b 625 736 592 569 625 631 b 374 1007 625 906 540 1007 l 69 1007 l 69 0 l 351 0 b 643 285 551 0 643 92 z m 449 724 b 331 574 449 611 403 574 l 247 574 l 247 864 l 318 864 b 449 724 399 864 449 840 z m 467 308 b 339 156 467 213 424 156 l 247 156 l 247 458 l 333 458 b 467 308 428 458 467 400 z "},"В":{"ha":694,"x_min":0,"x_max":0,"o":"m 643 285 b 522 517 643 408 606 479 b 625 736 592 569 625 631 b 374 1007 625 906 540 1007 l 69 1007 l 69 0 l 351 0 b 643 285 551 0 643 92 z m 449 724 b 331 574 449 611 403 574 l 247 574 l 247 864 l 318 864 b 449 724 399 864 449 840 z m 467 308 b 339 156 467 213 424 156 l 247 156 l 247 458 l 333 458 b 467 308 428 458 467 400 z "},"C":{"ha":694,"x_min":0,"x_max":0,"o":"m 350 1021 b 56 699 146 1021 56 892 l 56 308 b 350 -14 56 115 146 -14 b 631 253 519 -14 615 75 l 461 253 b 350 139 461 190 425 139 b 233 308 279 139 233 183 l 233 699 b 350 868 233 824 279 868 b 461 754 425 868 461 817 l 631 754 b 350 1021 615 932 519 1021 z "},"С":{"ha":694,"x_min":0,"x_max":0,"o":"m 350 1021 b 56 699 146 1021 56 892 l 56 308 b 350 -14 56 115 146 -14 b 631 253 519 -14 615 75 l 461 253 b 350 139 461 190 425 139 b 233 308 279 139 233 183 l 233 699 b 350 868 233 824 279 868 b 461 754 425 868 461 817 l 631 754 b 350 1021 615 932 519 1021 z "},"D":{"ha":694,"x_min":0,"x_max":0,"o":"m 633 699 b 358 1007 633 904 542 1007 l 69 1007 l 69 0 l 358 0 b 633 303 542 0 633 101 z m 456 313 b 347 169 456 221 419 169 l 247 169 l 247 838 l 347 838 b 456 682 419 838 456 782 z "},"E":{"ha":694,"x_min":0,"x_max":0,"o":"m 604 169 l 271 169 l 271 428 l 576 428 l 576 590 l 271 590 l 271 838 l 604 838 l 604 1007 l 93 1007 l 93 0 l 604 0 z "},"Ε":{"ha":694,"x_min":0,"x_max":0,"o":"m 604 169 l 271 169 l 271 428 l 576 428 l 576 590 l 271 590 l 271 838 l 604 838 l 604 1007 l 93 1007 l 93 0 l 604 0 z "},"Е":{"ha":694,"x_min":0,"x_max":0,"o":"m 604 169 l 271 169 l 271 428 l 576 428 l 576 590 l 271 590 l 271 838 l 604 838 l 604 1007 l 93 1007 l 93 0 l 604 0 z "},"F":{"ha":694,"x_min":0,"x_max":0,"o":"m 631 1007 l 69 1007 l 69 0 l 247 0 l 247 425 l 599 425 l 599 588 l 247 588 l 247 838 l 631 838 z "},"G":{"ha":694,"x_min":0,"x_max":0,"o":"m 614 569 l 354 569 l 354 425 l 436 425 l 436 285 b 342 139 436 182 403 139 b 233 308 281 139 233 182 l 233 699 b 350 868 233 824 279 868 b 461 754 425 868 461 817 l 631 754 b 350 1021 615 932 519 1021 b 56 699 146 1021 56 892 l 56 308 b 300 -14 56 114 147 -14 b 464 57 371 -14 438 14 l 464 0 l 614 0 z "},"H":{"ha":694,"x_min":0,"x_max":0,"o":"m 622 1007 l 444 1007 l 444 604 l 250 604 l 250 1007 l 72 1007 l 72 0 l 250 0 l 250 435 l 444 435 l 444 0 l 622 0 z "},"Η":{"ha":694,"x_min":0,"x_max":0,"o":"m 622 1007 l 444 1007 l 444 604 l 250 604 l 250 1007 l 72 1007 l 72 0 l 250 0 l 250 435 l 444 435 l 444 0 l 622 0 z "},"Н":{"ha":694,"x_min":0,"x_max":0,"o":"m 622 1007 l 444 1007 l 444 604 l 250 604 l 250 1007 l 72 1007 l 72 0 l 250 0 l 250 435 l 444 435 l 444 0 l 622 0 z "},"I":{"ha":694,"x_min":0,"x_max":0,"o":"m 111 838 l 258 838 l 258 169 l 111 169 l 111 0 l 583 0 l 583 169 l 436 169 l 436 838 l 583 838 l 583 1007 l 111 1007 z "},"Ι":{"ha":694,"x_min":0,"x_max":0,"o":"m 111 838 l 258 838 l 258 169 l 111 169 l 111 0 l 583 0 l 583 169 l 436 169 l 436 838 l 583 838 l 583 1007 l 111 1007 z "},"І":{"ha":694,"x_min":0,"x_max":0,"o":"m 111 838 l 258 838 l 258 169 l 111 169 l 111 0 l 583 0 l 583 169 l 436 169 l 436 838 l 583 838 l 583 1007 l 111 1007 z "},"Ӏ":{"ha":694,"x_min":0,"x_max":0,"o":"m 111 838 l 258 838 l 258 169 l 111 169 l 111 0 l 583 0 l 583 169 l 436 169 l 436 838 l 583 838 l 583 1007 l 111 1007 z "},"ӏ":{"ha":694,"x_min":0,"x_max":0,"o":"m 111 838 l 258 838 l 258 169 l 111 169 l 111 0 l 583 0 l 583 169 l 436 169 l 436 838 l 583 838 l 583 1007 l 111 1007 z "},"J":{"ha":694,"x_min":0,"x_max":0,"o":"m 632 1007 l 350 1007 l 350 847 l 450 847 l 450 340 b 311 169 450 210 381 169 l 88 169 l 88 0 l 335 0 b 632 349 533 0 632 131 z "},"Ј":{"ha":694,"x_min":0,"x_max":0,"o":"m 632 1007 l 350 1007 l 350 847 l 450 847 l 450 340 b 311 169 450 210 381 169 l 88 169 l 88 0 l 335 0 b 632 349 533 0 632 131 z "},"K":{"ha":694,"x_min":0,"x_max":0,"o":"m 400 538 l 643 1007 l 463 1007 l 247 560 l 247 1007 l 69 1007 l 69 0 l 247 0 l 247 472 l 467 0 l 663 0 z "},"Κ":{"ha":694,"x_min":0,"x_max":0,"o":"m 400 538 l 643 1007 l 463 1007 l 247 560 l 247 1007 l 69 1007 l 69 0 l 247 0 l 247 472 l 467 0 l 663 0 z "},"К":{"ha":694,"x_min":0,"x_max":0,"o":"m 400 538 l 643 1007 l 463 1007 l 247 560 l 247 1007 l 69 1007 l 69 0 l 247 0 l 247 472 l 467 0 l 663 0 z "},"L":{"ha":694,"x_min":0,"x_max":0,"o":"m 626 169 l 247 169 l 247 1007 l 69 1007 l 69 0 l 626 0 z "},"M":{"ha":694,"x_min":0,"x_max":0,"o":"m 644 1007 l 475 1007 l 349 619 l 232 1007 l 50 1007 l 50 0 l 200 0 l 200 618 l 349 176 l 497 618 l 497 0 l 644 0 z "},"Μ":{"ha":694,"x_min":0,"x_max":0,"o":"m 644 1007 l 475 1007 l 349 619 l 232 1007 l 50 1007 l 50 0 l 200 0 l 200 618 l 349 176 l 497 618 l 497 0 l 644 0 z "},"М":{"ha":694,"x_min":0,"x_max":0,"o":"m 644 1007 l 475 1007 l 349 619 l 232 1007 l 50 1007 l 50 0 l 200 0 l 200 618 l 349 176 l 497 618 l 497 0 l 644 0 z "},"N":{"ha":694,"x_min":0,"x_max":0,"o":"m 625 1007 l 465 1007 l 465 457 l 275 1007 l 69 1007 l 69 0 l 229 0 l 229 589 l 454 0 l 625 0 z "},"Ν":{"ha":694,"x_min":0,"x_max":0,"o":"m 625 1007 l 465 1007 l 465 457 l 275 1007 l 69 1007 l 69 0 l 229 0 l 229 589 l 454 0 l 625 0 z "},"O":{"ha":694,"x_min":0,"x_max":0,"o":"m 347 139 b 233 308 279 139 233 185 l 233 699 b 347 868 233 822 279 868 b 461 699 415 868 461 822 l 461 308 b 347 139 461 185 415 139 z m 347 -14 b 639 308 540 -14 639 113 l 639 699 b 347 1021 639 894 540 1021 b 56 699 154 1021 56 894 l 56 308 b 347 -14 56 113 154 -14 z "},"Ο":{"ha":694,"x_min":0,"x_max":0,"o":"m 347 139 b 233 308 279 139 233 185 l 233 699 b 347 868 233 822 279 868 b 461 699 415 868 461 822 l 461 308 b 347 139 461 185 415 139 z m 347 -14 b 639 308 540 -14 639 113 l 639 699 b 347 1021 639 894 540 1021 b 56 699 154 1021 56 894 l 56 308 b 347 -14 56 113 154 -14 z "},"О":{"ha":694,"x_min":0,"x_max":0,"o":"m 347 139 b 233 308 279 139 233 185 l 233 699 b 347 868 233 822 279 868 b 461 699 415 868 461 822 l 461 308 b 347 139 461 185 415 139 z m 347 -14 b 639 308 540 -14 639 113 l 639 699 b 347 1021 639 894 540 1021 b 56 699 154 1021 56 894 l 56 308 b 347 -14 56 113 154 -14 z "},"P":{"ha":694,"x_min":0,"x_max":0,"o":"m 69 1007 l 69 0 l 247 0 l 247 343 l 332 343 b 651 667 549 343 651 461 b 335 1007 651 882 540 1007 z m 247 838 l 332 838 b 469 681 428 838 469 789 b 332 513 469 568 424 513 l 247 513 z "},"Ρ":{"ha":694,"x_min":0,"x_max":0,"o":"m 69 1007 l 69 0 l 247 0 l 247 343 l 332 343 b 651 667 549 343 651 461 b 335 1007 651 882 540 1007 z m 247 838 l 332 838 b 469 681 428 838 469 789 b 332 513 469 568 424 513 l 247 513 z "},"Р":{"ha":694,"x_min":0,"x_max":0,"o":"m 69 1007 l 69 0 l 247 0 l 247 343 l 332 343 b 651 667 549 343 651 461 b 335 1007 651 882 540 1007 z m 247 838 l 332 838 b 469 681 428 838 469 789 b 332 513 469 568 424 513 l 247 513 z "},"Q":{"ha":694,"x_min":0,"x_max":0,"o":"m 639 328 l 639 699 b 347 1021 639 894 540 1021 b 56 699 154 1021 56 894 l 56 328 b 340 6 56 133 151 8 l 396 -161 l 585 -161 l 508 46 b 639 328 594 97 639 197 z m 347 158 b 233 328 279 158 233 204 l 233 699 b 347 868 233 822 279 868 b 461 699 415 868 461 822 l 461 328 b 347 158 461 204 415 158 z "},"R":{"ha":694,"x_min":0,"x_max":0,"o":"m 69 1007 l 69 0 l 250 0 l 250 404 l 460 0 l 667 0 l 456 403 b 646 700 575 435 646 543 b 349 1007 646 899 533 1007 z m 250 838 l 313 838 b 463 683 411 838 463 803 b 333 513 463 568 414 513 l 250 513 z "},"S":{"ha":694,"x_min":0,"x_max":0,"o":"m 350 1021 b 61 747 172 1021 61 924 b 154 525 61 646 97 576 b 361 396 214 471 300 435 b 457 257 438 347 457 307 b 353 139 457 197 429 139 b 224 263 282 139 232 188 l 58 263 b 340 -14 71 81 167 -14 b 638 278 536 -14 638 106 b 532 504 638 371 608 439 b 304 649 460 567 367 606 b 239 757 264 676 239 700 b 344 868 239 808 258 868 b 454 756 414 868 454 829 l 617 756 b 350 1021 615 917 532 1021 z "},"Ѕ":{"ha":694,"x_min":0,"x_max":0,"o":"m 350 1021 b 61 747 172 1021 61 924 b 154 525 61 646 97 576 b 361 396 214 471 300 435 b 457 257 438 347 457 307 b 353 139 457 197 429 139 b 224 263 282 139 232 188 l 58 263 b 340 -14 71 81 167 -14 b 638 278 536 -14 638 106 b 532 504 638 371 608 439 b 304 649 460 567 367 606 b 239 757 264 676 239 700 b 344 868 239 808 258 868 b 454 756 414 868 454 829 l 617 756 b 350 1021 615 917 532 1021 z "},"T":{"ha":694,"x_min":0,"x_max":0,"o":"m 657 1007 l 38 1007 l 38 838 l 258 838 l 258 0 l 436 0 l 436 838 l 657 838 z "},"Τ":{"ha":694,"x_min":0,"x_max":0,"o":"m 657 1007 l 38 1007 l 38 838 l 258 838 l 258 0 l 436 0 l 436 838 l 657 838 z "},"Т":{"ha":694,"x_min":0,"x_max":0,"o":"m 657 1007 l 38 1007 l 38 838 l 258 838 l 258 0 l 436 0 l 436 838 l 657 838 z "},"U":{"ha":694,"x_min":0,"x_max":0,"o":"m 646 1007 l 474 1007 l 474 296 b 349 147 474 186 415 147 b 226 296 281 147 226 186 l 226 1007 l 49 1007 l 49 286 b 349 -14 49 83 163 -14 b 646 286 529 -14 646 79 z "},"V":{"ha":694,"x_min":0,"x_max":0,"o":"m 351 332 l 214 1007 l 25 1007 l 258 0 l 438 0 l 669 1007 l 492 1007 z "},"W":{"ha":694,"x_min":0,"x_max":0,"o":"m 507 1007 l 453 454 l 349 846 l 243 454 l 190 1007 l 10 1007 l 118 0 l 256 0 l 349 414 l 439 0 l 572 0 l 686 1007 z "},"X":{"ha":694,"x_min":0,"x_max":0,"o":"m 463 513 l 654 1007 l 461 1007 l 354 694 l 242 1007 l 40 1007 l 233 507 l 40 0 l 242 0 l 346 322 l 450 0 l 654 0 z "},"Χ":{"ha":694,"x_min":0,"x_max":0,"o":"m 463 513 l 654 1007 l 461 1007 l 354 694 l 242 1007 l 40 1007 l 233 507 l 40 0 l 242 0 l 346 322 l 450 0 l 654 0 z "},"Х":{"ha":694,"x_min":0,"x_max":0,"o":"m 463 513 l 654 1007 l 461 1007 l 354 694 l 242 1007 l 40 1007 l 233 507 l 40 0 l 242 0 l 346 322 l 450 0 l 654 0 z "},"Y":{"ha":694,"x_min":0,"x_max":0,"o":"m 475 1007 l 351 643 l 226 1007 l 17 1007 l 258 401 l 258 0 l 436 0 l 436 401 l 679 1007 z "},"Υ":{"ha":694,"x_min":0,"x_max":0,"o":"m 475 1007 l 351 643 l 226 1007 l 17 1007 l 258 401 l 258 0 l 436 0 l 436 401 l 679 1007 z "},"Ү":{"ha":694,"x_min":0,"x_max":0,"o":"m 475 1007 l 351 643 l 226 1007 l 17 1007 l 258 401 l 258 0 l 436 0 l 436 401 l 679 1007 z "},"Z":{"ha":694,"x_min":0,"x_max":0,"o":"m 56 1007 l 56 838 l 390 838 l 31 0 l 640 0 l 640 169 l 303 169 l 654 1007 z "},"Ζ":{"ha":694,"x_min":0,"x_max":0,"o":"m 56 1007 l 56 838 l 390 838 l 31 0 l 640 0 l 640 169 l 303 169 l 654 1007 z "},"[":{"ha":694,"x_min":0,"x_max":0,"o":"m 621 -165 l 492 -165 l 492 1025 l 621 1025 l 621 1136 l 357 1136 l 357 -276 l 621 -276 z "},"\\":{"ha":694,"x_min":0,"x_max":0,"o":"m 558 -235 l 683 -235 l 136 1096 l 11 1096 z "},"]":{"ha":694,"x_min":0,"x_max":0,"o":"m 75 -276 l 339 -276 l 339 1136 l 75 1136 l 75 1025 l 204 1025 l 204 -165 l 75 -165 z "},"^":{"ha":694,"x_min":0,"x_max":0,"o":"m 347 893 l 517 556 l 640 556 l 411 1007 l 283 1007 l 54 556 l 176 556 z "},"_":{"ha":694,"x_min":0,"x_max":0,"o":"m 694 -168 l 0 -168 l 0 -276 l 694 -276 z "},"`":{"ha":694,"x_min":0,"x_max":0,"o":"m 364 774 l 510 774 l 376 1042 l 183 1042 z "},"a":{"ha":694,"x_min":0,"x_max":0,"o":"m 464 211 b 313 128 436 164 375 128 b 213 214 260 128 213 153 b 333 308 213 268 250 308 b 464 276 385 308 438 293 z m 633 460 b 363 707 633 610 539 707 b 76 554 233 707 128 656 l 222 492 b 350 553 246 529 289 553 b 464 456 418 553 464 524 l 464 390 b 308 421 432 407 378 421 b 47 200 132 421 47 328 b 288 -14 47 79 125 -14 b 481 69 389 -14 450 22 l 481 0 l 633 0 z "},"а":{"ha":694,"x_min":0,"x_max":0,"o":"m 464 211 b 313 128 436 164 375 128 b 213 214 260 128 213 153 b 333 308 213 268 250 308 b 464 276 385 308 438 293 z m 633 460 b 363 707 633 610 539 707 b 76 554 233 707 128 656 l 222 492 b 350 553 246 529 289 553 b 464 456 418 553 464 524 l 464 390 b 308 421 432 407 378 421 b 47 200 132 421 47 328 b 288 -14 47 79 125 -14 b 481 69 389 -14 450 22 l 481 0 l 633 0 z "},"b":{"ha":694,"x_min":0,"x_max":0,"o":"m 649 346 b 410 707 649 557 589 707 b 239 643 346 707 283 688 l 239 1007 l 69 1007 l 69 0 l 233 0 l 233 56 b 410 -14 268 11 335 -14 b 649 346 589 -14 649 135 z m 239 476 b 372 567 271 528 317 567 b 479 346 443 567 479 504 b 374 125 479 189 443 125 b 239 217 317 125 264 168 z "},"c":{"ha":694,"x_min":0,"x_max":0,"o":"m 374 707 b 49 349 165 707 49 554 b 375 -14 49 143 165 -14 b 640 156 493 -14 594 36 l 500 208 b 368 139 483 171 431 139 b 218 349 269 139 218 219 b 367 554 218 478 269 554 b 500 485 431 554 483 522 l 640 538 b 374 707 594 657 493 707 z "},"с":{"ha":694,"x_min":0,"x_max":0,"o":"m 374 707 b 49 349 165 707 49 554 b 375 -14 49 143 165 -14 b 640 156 493 -14 594 36 l 500 208 b 368 139 483 171 431 139 b 218 349 269 139 218 219 b 367 554 218 478 269 554 b 500 485 431 554 483 522 l 640 538 b 374 707 594 657 493 707 z "},"d":{"ha":694,"x_min":0,"x_max":0,"o":"m 46 346 b 285 -14 46 135 106 -14 b 461 56 360 -14 426 11 l 461 0 l 625 0 l 625 1007 l 456 1007 l 456 643 b 285 707 411 688 349 707 b 46 346 106 707 46 557 z m 456 217 b 321 125 431 168 378 125 b 215 346 251 125 215 189 b 322 567 215 504 251 567 b 456 476 378 567 424 528 z "},"e":{"ha":694,"x_min":0,"x_max":0,"o":"m 649 303 b 651 365 651 322 651 342 b 356 707 651 589 526 707 b 49 344 171 707 49 569 b 367 -14 49 132 158 -14 b 640 156 478 -14 592 28 l 500 208 b 365 139 479 164 428 139 b 213 303 274 139 224 193 z m 210 396 b 350 558 226 492 261 558 b 490 396 436 558 482 497 z "},"е":{"ha":694,"x_min":0,"x_max":0,"o":"m 649 303 b 651 365 651 322 651 342 b 356 707 651 589 526 707 b 49 344 171 707 49 569 b 367 -14 49 132 158 -14 b 640 156 478 -14 592 28 l 500 208 b 365 139 479 164 428 139 b 213 303 274 139 224 193 z m 210 396 b 350 558 226 492 261 558 b 490 396 436 558 482 497 z "},"f":{"ha":694,"x_min":0,"x_max":0,"o":"m 644 1007 l 425 1007 b 210 771 281 1007 210 942 l 210 692 l 63 692 l 63 532 l 210 532 l 210 0 l 379 0 l 379 532 l 536 532 l 536 692 l 379 692 l 379 763 b 464 847 379 821 400 847 l 644 847 z "},"g":{"ha":694,"x_min":0,"x_max":0,"o":"m 283 707 b 46 351 106 707 46 561 b 283 -4 46 140 106 -4 b 456 65 349 -4 410 15 l 456 19 b 313 -139 456 -111 406 -139 b 114 -58 226 -139 175 -115 l 46 -183 b 311 -290 103 -250 186 -290 b 626 13 522 -290 626 -174 l 626 692 l 461 692 l 461 636 b 283 707 426 681 360 707 z m 456 231 b 322 136 415 171 376 136 b 214 351 251 136 214 197 b 321 567 214 504 251 567 b 456 475 378 567 431 524 z "},"h":{"ha":694,"x_min":0,"x_max":0,"o":"m 642 464 b 422 707 642 631 572 707 b 239 643 332 707 275 679 l 239 1007 l 69 1007 l 69 0 l 239 0 l 239 475 b 378 567 268 521 307 567 b 472 443 436 567 472 536 l 472 0 l 642 0 z "},"һ":{"ha":694,"x_min":0,"x_max":0,"o":"m 642 464 b 422 707 642 631 572 707 b 239 643 332 707 275 679 l 239 1007 l 69 1007 l 69 0 l 239 0 l 239 475 b 378 567 268 521 307 567 b 472 443 436 567 472 536 l 472 0 l 642 0 z "},"i":{"ha":694,"x_min":0,"x_max":0,"o":"m 568 160 l 436 160 l 436 692 l 126 692 l 126 532 l 268 532 l 268 160 l 126 160 l 126 0 l 568 0 z m 347 799 b 449 904 414 799 449 846 b 347 1013 449 963 414 1013 b 246 904 281 1013 246 963 b 347 799 246 846 281 799 z "},"і":{"ha":694,"x_min":0,"x_max":0,"o":"m 568 160 l 436 160 l 436 692 l 126 692 l 126 532 l 268 532 l 268 160 l 126 160 l 126 0 l 568 0 z m 347 799 b 449 904 414 799 449 846 b 347 1013 449 963 414 1013 b 246 904 281 1013 246 963 b 347 799 246 846 281 799 z "},"j":{"ha":694,"x_min":0,"x_max":0,"o":"m 525 692 l 165 692 l 165 531 l 356 531 l 356 -11 b 290 -108 356 -76 335 -108 l 111 -108 l 111 -276 l 318 -276 b 525 -11 456 -276 525 -187 z m 443 799 b 544 904 510 799 544 846 b 443 1013 544 963 510 1013 b 342 904 376 1013 342 963 b 443 799 342 846 376 799 z "},"ј":{"ha":694,"x_min":0,"x_max":0,"o":"m 525 692 l 165 692 l 165 531 l 356 531 l 356 -11 b 290 -108 356 -76 335 -108 l 111 -108 l 111 -276 l 318 -276 b 525 -11 456 -276 525 -187 z m 443 799 b 544 904 510 799 544 846 b 443 1013 544 963 510 1013 b 342 904 376 1013 342 963 b 443 799 342 846 376 799 z "},"k":{"ha":694,"x_min":0,"x_max":0,"o":"m 399 388 l 606 692 l 431 692 l 239 400 l 239 1007 l 69 1007 l 69 0 l 239 0 l 239 333 l 433 0 l 635 0 z "},"l":{"ha":694,"x_min":0,"x_max":0,"o":"m 468 1007 l 150 1007 l 150 847 l 299 847 l 299 0 l 468 0 z "},"m":{"ha":694,"x_min":0,"x_max":0,"o":"m 499 0 l 661 0 l 661 567 b 553 707 661 663 632 707 b 404 619 464 707 417 650 b 328 707 390 688 361 707 b 188 619 247 707 200 650 l 188 692 l 33 692 l 33 0 l 196 0 l 196 538 b 247 567 201 553 222 567 b 288 511 274 567 288 550 l 288 0 l 407 0 l 407 538 b 458 567 413 553 433 567 b 499 511 485 567 499 550 z "},"n":{"ha":694,"x_min":0,"x_max":0,"o":"m 642 464 b 421 707 642 632 572 707 b 233 636 333 707 272 682 l 233 692 l 69 692 l 69 0 l 239 0 l 239 475 b 378 567 268 521 307 567 b 472 443 436 567 472 536 l 472 0 l 642 0 z "},"o":{"ha":694,"x_min":0,"x_max":0,"o":"m 347 554 b 482 346 426 554 482 464 b 347 138 482 228 426 138 b 213 346 268 138 213 228 b 347 554 213 464 268 554 z m 347 707 b 49 346 165 707 49 550 b 347 -14 49 142 165 -14 b 646 346 529 -14 646 142 b 347 707 646 550 529 707 z "},"ο":{"ha":694,"x_min":0,"x_max":0,"o":"m 347 554 b 482 346 426 554 482 464 b 347 138 482 228 426 138 b 213 346 268 138 213 228 b 347 554 213 464 268 554 z m 347 707 b 49 346 165 707 49 550 b 347 -14 49 142 165 -14 b 646 346 529 -14 646 142 b 347 707 646 550 529 707 z "},"о":{"ha":694,"x_min":0,"x_max":0,"o":"m 347 554 b 482 346 426 554 482 464 b 347 138 482 228 426 138 b 213 346 268 138 213 228 b 347 554 213 464 268 554 z m 347 707 b 49 346 165 707 49 550 b 347 -14 49 142 165 -14 b 646 346 529 -14 646 142 b 347 707 646 550 529 707 z "},"p":{"ha":694,"x_min":0,"x_max":0,"o":"m 649 346 b 410 707 649 557 589 707 b 233 636 335 707 268 681 l 233 692 l 69 692 l 69 -276 l 239 -276 l 239 49 b 410 -14 283 4 346 -14 b 649 346 589 -14 649 135 z m 239 475 b 374 567 264 524 317 567 b 479 346 443 567 479 503 b 372 125 479 188 443 125 b 239 215 317 125 271 164 z "},"р":{"ha":694,"x_min":0,"x_max":0,"o":"m 649 346 b 410 707 649 557 589 707 b 233 636 335 707 268 681 l 233 692 l 69 692 l 69 -276 l 239 -276 l 239 49 b 410 -14 283 4 346 -14 b 649 346 589 -14 649 135 z m 239 475 b 374 567 264 524 317 567 b 479 346 443 567 479 503 b 372 125 479 188 443 125 b 239 215 317 125 271 164 z "},"q":{"ha":694,"x_min":0,"x_max":0,"o":"m 285 707 b 46 346 106 707 46 557 b 285 -14 46 135 106 -14 b 456 49 349 -14 411 4 l 456 -276 l 625 -276 l 625 692 l 461 692 l 461 636 b 285 707 426 681 360 707 z m 456 215 b 322 125 424 164 378 125 b 215 346 251 125 215 188 b 321 567 215 503 251 567 b 456 475 378 567 431 524 z "},"r":{"ha":694,"x_min":0,"x_max":0,"o":"m 439 707 b 239 599 361 707 293 675 l 239 692 l 85 692 l 85 0 l 244 0 l 244 444 b 381 567 263 514 313 567 b 478 472 444 567 467 521 l 628 546 b 439 707 619 642 549 707 z "},"s":{"ha":694,"x_min":0,"x_max":0,"o":"m 342 707 b 96 508 182 707 96 631 b 175 361 96 443 121 399 b 371 258 225 326 303 297 b 442 176 425 228 442 207 b 357 115 442 142 421 115 b 263 192 297 115 263 138 l 93 192 b 351 -14 97 58 192 -14 b 608 192 529 -14 608 75 b 515 360 608 269 574 322 b 319 450 460 394 382 418 b 256 521 268 476 256 494 b 342 583 256 553 272 583 b 425 519 400 583 422 561 l 589 519 b 342 707 575 643 489 707 z "},"ѕ":{"ha":694,"x_min":0,"x_max":0,"o":"m 342 707 b 96 508 182 707 96 631 b 175 361 96 443 121 399 b 371 258 225 326 303 297 b 442 176 425 228 442 207 b 357 115 442 142 421 115 b 263 192 297 115 263 138 l 93 192 b 351 -14 97 58 192 -14 b 608 192 529 -14 608 75 b 515 360 608 269 574 322 b 319 450 460 394 382 418 b 256 521 268 476 256 494 b 342 583 256 553 272 583 b 425 519 400 583 422 561 l 589 519 b 342 707 575 643 489 707 z "},"t":{"ha":694,"x_min":0,"x_max":0,"o":"m 600 163 l 446 163 b 390 226 404 163 390 186 l 390 543 l 540 543 l 540 692 l 390 692 l 390 882 l 221 882 l 221 692 l 71 692 l 71 543 l 221 543 l 221 186 b 399 0 221 61 271 0 l 600 0 z "},"u":{"ha":694,"x_min":0,"x_max":0,"o":"m 639 692 l 475 692 l 475 268 b 349 142 475 176 410 142 b 225 268 288 142 225 176 l 225 692 l 56 692 l 56 256 b 350 -14 56 86 179 -14 b 639 256 519 -14 639 86 z "},"v":{"ha":694,"x_min":0,"x_max":0,"o":"m 493 692 l 357 228 l 217 692 l 33 692 l 254 0 l 442 0 l 661 692 z "},"w":{"ha":694,"x_min":0,"x_max":0,"o":"m 514 692 l 439 313 l 353 692 l 265 313 l 190 692 l 14 692 l 150 0 l 281 0 l 347 265 l 413 0 l 544 0 l 682 692 z "},"x":{"ha":694,"x_min":0,"x_max":0,"o":"m 446 360 l 632 692 l 457 692 l 346 478 l 242 692 l 67 692 l 246 356 l 56 0 l 236 0 l 351 239 l 461 0 l 639 0 z "},"х":{"ha":694,"x_min":0,"x_max":0,"o":"m 446 360 l 632 692 l 457 692 l 346 478 l 242 692 l 67 692 l 246 356 l 56 0 l 236 0 l 351 239 l 461 0 l 639 0 z "},"y":{"ha":694,"x_min":0,"x_max":0,"o":"m 493 692 l 356 210 l 217 692 l 35 692 l 265 -35 l 190 -276 l 369 -276 l 660 692 z "},"у":{"ha":694,"x_min":0,"x_max":0,"o":"m 493 692 l 356 210 l 217 692 l 35 692 l 265 -35 l 190 -276 l 369 -276 l 660 692 z "},"z":{"ha":694,"x_min":0,"x_max":0,"o":"m 83 692 l 83 532 l 358 532 l 56 0 l 617 0 l 617 160 l 328 160 l 626 692 z "},"{":{"ha":694,"x_min":0,"x_max":0,"o":"m 579 1136 b 375 950 433 1136 375 1072 b 389 643 375 890 389 735 b 278 499 389 551 375 499 l 250 499 l 250 360 l 278 360 b 389 215 375 360 389 307 b 375 -90 389 124 375 -31 b 579 -276 375 -212 433 -276 l 619 -276 l 619 -154 l 579 -154 b 503 -50 513 -154 503 -128 b 513 233 503 28 513 168 b 399 429 513 333 489 394 b 513 625 489 464 513 525 b 503 910 513 690 503 832 b 579 1014 503 988 513 1014 l 619 1014 l 619 1136 z "},"|":{"ha":694,"x_min":0,"x_max":0,"o":"m 403 1096 l 292 1096 l 292 -235 l 403 -235 z "},"}":{"ha":694,"x_min":0,"x_max":0,"o":"m 76 1136 l 76 1014 l 117 1014 b 193 910 183 1014 193 988 b 183 625 193 832 183 690 b 297 429 183 525 207 464 b 183 233 207 394 183 333 b 193 -50 183 168 193 28 b 117 -154 193 -128 183 -154 l 76 -154 l 76 -276 l 117 -276 b 321 -90 263 -276 321 -212 b 307 215 321 -31 307 124 b 418 360 307 307 321 360 l 446 360 l 446 499 l 418 499 b 307 643 321 499 307 551 b 321 950 307 735 321 890 b 117 1136 321 1072 263 1136 z "},"~":{"ha":694,"x_min":0,"x_max":0,"o":"m 31 407 b 182 488 93 472 129 488 b 510 403 249 488 444 403 b 664 482 569 403 625 428 l 664 596 b 513 515 603 531 565 515 b 185 600 446 515 250 600 b 31 521 125 600 71 574 z "}," ":{"ha":694,"x_min":0,"x_max":0,"o":""},"¡":{"ha":694,"x_min":0,"x_max":0,"o":"m 258 -278 l 436 -278 l 436 379 l 258 379 z m 244 635 b 343 524 244 575 275 524 b 450 635 411 524 450 575 b 346 743 450 694 414 743 b 244 635 278 743 244 694 z "},"¢":{"ha":694,"x_min":0,"x_max":0,"o":"m 407 -140 l 407 -10 b 631 253 540 8 617 96 l 461 253 b 350 139 461 190 425 139 b 233 308 279 139 233 183 l 233 699 b 350 868 233 824 279 868 b 461 754 425 868 461 817 l 631 754 b 407 1017 617 911 540 999 l 407 1147 l 296 1147 l 296 1017 b 56 699 129 996 56 874 l 56 308 b 296 -11 56 133 129 10 l 296 -140 z "},"£":{"ha":694,"x_min":0,"x_max":0,"o":"m 565 444 l 565 556 l 288 556 b 258 714 271 606 258 657 b 369 868 258 815 300 868 b 478 754 436 868 475 821 l 647 754 b 369 1021 629 933 536 1021 b 88 735 190 1021 88 919 b 119 556 88 665 101 608 l 60 556 l 60 444 l 163 444 b 200 274 183 390 200 336 b 176 169 200 235 193 201 l 49 169 l 49 0 l 643 0 l 643 169 l 331 169 b 354 283 351 214 354 256 b 325 444 354 342 342 393 z "},"¤":{"ha":694,"x_min":0,"x_max":0,"o":"m 594 499 b 567 643 594 550 585 601 l 703 779 l 625 858 l 507 740 b 349 808 467 783 411 808 b 183 739 282 808 226 782 l 68 857 l -11 778 l 125 640 b 101 499 110 599 101 550 b 125 358 101 446 110 399 l -11 222 l 68 143 l 183 260 b 349 189 226 215 282 189 b 508 258 411 189 468 215 l 626 142 l 704 221 l 568 356 b 594 499 586 397 594 446 z m 476 499 b 349 299 476 381 425 299 b 219 497 274 299 219 385 b 349 699 219 613 269 699 b 476 499 424 699 476 615 z "},"¥":{"ha":694,"x_min":0,"x_max":0,"o":"m 657 136 l 657 247 l 436 247 l 436 375 l 657 375 l 657 486 l 472 486 l 679 1007 l 472 1007 l 351 647 l 229 1007 l 17 1007 l 224 486 l 38 486 l 38 375 l 258 375 l 258 247 l 38 247 l 38 136 l 258 136 l 258 0 l 436 0 l 436 136 z "},"¦":{"ha":694,"x_min":0,"x_max":0,"o":"m 403 1096 l 292 1096 l 292 608 l 403 608 z m 403 253 l 292 253 l 292 -235 l 403 -235 z "},"§":{"ha":694,"x_min":0,"x_max":0,"o":"m 643 361 b 571 550 643 439 624 497 b 347 682 507 614 419 639 b 275 790 292 715 275 743 b 379 881 275 849 310 881 b 481 779 442 881 481 844 l 626 779 b 383 1021 625 932 549 1021 b 131 764 228 1021 131 922 b 171 611 131 696 143 649 b 65 392 104 567 65 492 b 146 196 65 297 90 243 b 332 82 206 144 271 113 b 425 -37 401 46 425 13 b 331 -135 425 -97 388 -135 b 208 -39 251 -135 217 -104 l 58 -39 b 322 -290 72 -208 154 -290 b 578 -11 486 -290 578 -181 b 544 129 578 43 567 89 b 643 361 608 175 643 257 z m 281 310 b 211 418 226 343 211 371 b 294 507 211 471 239 503 b 397 454 322 488 363 471 b 490 335 468 418 490 385 b 419 240 490 283 463 249 b 281 310 375 264 326 282 z "},"¨":{"ha":694,"x_min":0,"x_max":0,"o":"m 181 799 b 282 904 247 799 282 846 b 181 1013 282 963 247 1013 b 79 904 114 1013 79 963 b 181 799 79 846 114 799 z m 514 799 b 615 904 581 799 615 846 b 514 1013 615 963 581 1013 b 413 904 447 1013 413 963 b 514 799 413 846 447 799 z "},"©":{"ha":694,"x_min":0,"x_max":0,"o":"m 671 699 b 349 1021 671 903 554 1021 b 24 699 135 1021 24 894 l 24 307 b 349 -14 24 113 135 -14 b 671 307 554 -14 671 104 z m 588 307 b 349 71 588 157 501 71 b 108 307 189 71 108 163 l 108 699 b 349 936 108 844 189 936 b 588 699 501 936 588 850 z m 294 613 b 350 681 294 658 315 681 b 400 629 375 681 399 665 l 488 629 b 350 763 478 719 432 763 b 210 615 258 763 210 715 l 210 393 b 350 246 210 293 258 246 b 488 379 432 246 478 289 l 400 379 b 350 328 399 343 375 328 b 294 396 315 328 294 350 z "},"ª":{"ha":694,"x_min":0,"x_max":0,"o":"m 435 661 b 325 601 415 626 371 601 b 253 664 288 601 253 619 b 340 732 253 703 281 732 b 435 708 378 732 415 721 z m 558 842 b 361 1021 558 950 489 1021 b 154 910 268 1021 192 983 l 260 864 b 353 908 276 892 308 908 b 435 839 401 908 435 888 l 435 792 b 322 814 413 803 372 814 b 133 653 194 814 133 746 b 307 499 133 565 189 499 b 447 558 381 499 425 525 l 447 508 l 558 508 z m 550 424 l 143 424 l 143 303 l 550 303 z "},"«":{"ha":694,"x_min":0,"x_max":0,"o":"m 369 -14 l 369 156 l 149 346 l 369 538 l 369 707 l 11 403 l 11 290 z m 682 -14 l 682 156 l 460 346 l 682 538 l 682 707 l 324 403 l 324 290 z "},"¬":{"ha":694,"x_min":0,"x_max":0,"o":"m 657 49 l 657 556 l 38 556 l 38 444 l 546 444 l 546 49 z "},"®":{"ha":694,"x_min":0,"x_max":0,"o":"m 671 699 b 349 1021 671 903 554 1021 b 24 699 135 1021 24 894 l 24 307 b 349 -14 24 113 135 -14 b 671 307 554 -14 671 104 z m 588 307 b 349 71 588 157 501 71 b 108 307 189 71 108 163 l 108 699 b 349 936 108 844 189 936 b 588 699 501 936 588 850 z m 396 465 b 496 606 457 482 496 522 b 347 756 496 699 439 756 l 208 756 l 208 253 l 297 253 l 297 453 l 394 253 l 507 253 z m 404 593 b 340 508 404 543 381 508 l 297 508 l 297 674 l 331 674 b 404 593 379 674 404 656 z "},"¯":{"ha":694,"x_min":0,"x_max":0,"o":"m 628 849 l 628 988 l 65 988 l 65 849 z "},"°":{"ha":694,"x_min":0,"x_max":0,"o":"m 347 1021 b 150 803 240 1021 150 947 b 347 589 150 658 240 589 b 543 803 454 589 543 658 b 347 1021 543 947 454 1021 z m 347 936 b 460 803 417 936 460 897 b 347 675 460 710 417 675 b 235 803 276 675 235 710 b 347 936 235 897 276 936 z "},"±":{"ha":694,"x_min":0,"x_max":0,"o":"m 403 189 l 403 444 l 657 444 l 657 556 l 403 556 l 403 808 l 292 808 l 292 556 l 38 556 l 38 444 l 292 444 l 292 189 z m 657 -111 l 657 0 l 38 0 l 38 -111 z "},"²":{"ha":694,"x_min":0,"x_max":0,"o":"m 503 868 b 344 1029 503 963 442 1029 b 194 844 253 1029 201 969 l 297 844 b 349 922 299 897 315 922 b 397 868 376 922 397 904 b 372 793 397 844 389 824 l 190 465 l 499 465 l 499 583 l 368 583 l 468 750 b 503 868 489 786 503 824 z "},"³":{"ha":694,"x_min":0,"x_max":0,"o":"m 514 632 b 451 757 514 696 490 733 b 500 864 483 776 500 811 b 349 1029 500 968 438 1029 b 197 874 263 1029 204 971 l 289 874 b 349 933 296 913 318 933 b 404 868 382 933 404 908 b 342 794 404 821 374 796 l 342 711 b 408 635 375 707 408 685 b 343 560 408 592 383 560 b 283 642 306 560 283 589 l 181 642 b 347 457 181 532 243 457 b 514 632 449 457 514 526 z "},"´":{"ha":694,"x_min":0,"x_max":0,"o":"m 510 1042 l 317 1042 l 183 774 l 329 774 z "},"¶":{"ha":694,"x_min":0,"x_max":0,"o":"m 28 793 b 217 589 28 664 89 589 l 282 589 l 282 -187 l 393 -187 l 393 906 l 518 906 l 518 -187 l 629 -187 l 629 1007 l 215 1007 b 28 793 94 1007 28 929 z "},"·":{"ha":694,"x_min":0,"x_max":0,"o":"m 450 489 b 349 600 450 549 417 600 b 244 489 281 600 244 549 b 349 381 244 429 281 381 b 450 489 417 381 450 429 z "},"¸":{"ha":694,"x_min":0,"x_max":0,"o":"m 290 -24 l 238 -304 l 356 -333 l 435 -60 z "},"¹":{"ha":694,"x_min":0,"x_max":0,"o":"m 442 1035 l 253 929 l 253 814 l 340 864 l 340 465 l 442 465 z "},"º":{"ha":694,"x_min":0,"x_max":0,"o":"m 550 424 l 143 424 l 143 303 l 550 303 z m 347 910 b 446 758 406 910 446 844 b 347 608 446 674 406 608 b 250 758 290 608 250 674 b 347 910 250 844 290 910 z m 347 1021 b 131 758 215 1021 131 907 b 347 499 131 611 215 499 b 564 758 479 499 564 611 b 347 1021 564 907 479 1021 z "},"»":{"ha":694,"x_min":0,"x_max":0,"o":"m 369 290 l 369 403 l 11 707 l 11 538 l 233 346 l 11 156 l 11 -14 z m 324 538 l 544 346 l 324 156 l 324 -14 l 682 290 l 682 403 l 324 707 z "},"¼":{"ha":694,"x_min":0,"x_max":0,"o":"m 233 1035 l 44 929 l 44 814 l 132 864 l 132 465 l 233 465 z m 583 1007 l -3 0 l 107 0 l 692 1007 z m 699 206 l 643 206 l 643 542 l 513 542 l 356 207 l 356 104 l 540 104 l 540 -14 l 643 -14 l 643 104 l 699 104 z m 439 206 l 546 431 l 546 206 z "},"½":{"ha":694,"x_min":0,"x_max":0,"o":"m 240 1035 l 51 929 l 51 814 l 139 864 l 139 465 l 240 465 z m 581 1007 l -6 0 l 104 0 l 689 1007 z m 703 389 b 544 550 703 483 642 550 b 394 365 453 550 401 490 l 497 365 b 549 443 499 418 515 443 b 597 389 576 443 597 425 b 572 314 597 365 589 344 l 390 -14 l 699 -14 l 699 104 l 568 104 l 668 271 b 703 389 689 307 703 344 z "},"¾":{"ha":694,"x_min":0,"x_max":0,"o":"m 307 632 b 244 757 307 696 283 733 b 293 864 276 776 293 811 b 142 1029 293 968 231 1029 b -10 874 56 1029 -3 971 l 82 874 b 142 933 89 913 111 933 b 197 868 175 933 197 908 b 135 794 197 821 167 796 l 135 711 b 201 635 168 707 201 685 b 136 560 201 592 176 560 b 76 642 99 560 76 589 l -26 642 b 140 457 -26 532 36 457 b 307 632 242 457 307 526 z m 600 1007 l 14 0 l 124 0 l 708 1007 z m 721 206 l 665 206 l 665 542 l 535 542 l 378 207 l 378 104 l 563 104 l 563 -14 l 665 -14 l 665 104 l 721 104 z m 461 206 l 568 431 l 568 206 z "},"¿":{"ha":694,"x_min":0,"x_max":0,"o":"m 358 -292 b 631 -1 515 -292 625 -208 l 468 -1 b 365 -140 464 -103 432 -140 b 268 -32 297 -140 268 -101 b 378 126 268 38 299 64 b 472 339 447 182 472 246 l 472 367 l 313 367 l 313 347 b 218 196 313 281 294 264 b 90 -40 135 121 90 61 b 358 -292 90 -181 178 -292 z m 285 635 b 386 524 285 575 318 524 b 490 635 454 524 490 575 b 386 743 490 694 454 743 b 285 635 318 743 285 694 z "},"À":{"ha":694,"x_min":0,"x_max":0,"o":"m 322 1089 l 468 1089 l 335 1333 l 142 1333 z m 481 0 l 669 0 l 436 1007 l 257 1007 l 25 0 l 203 0 l 233 151 l 449 151 z m 343 675 l 415 319 l 268 319 z "},"Á":{"ha":694,"x_min":0,"x_max":0,"o":"m 551 1333 l 358 1333 l 225 1089 l 371 1089 z m 481 0 l 669 0 l 436 1007 l 257 1007 l 25 0 l 203 0 l 233 151 l 449 151 z m 343 675 l 415 319 l 268 319 z "},"Â":{"ha":694,"x_min":0,"x_max":0,"o":"m 81 1089 l 225 1089 l 344 1239 l 467 1089 l 613 1089 l 460 1333 l 233 1333 z m 481 0 l 669 0 l 436 1007 l 257 1007 l 25 0 l 203 0 l 233 151 l 449 151 z m 343 675 l 415 319 l 268 319 z "},"Ã":{"ha":694,"x_min":0,"x_max":0,"o":"m 492 1103 b 646 1181 553 1103 607 1126 l 646 1321 b 489 1240 589 1263 546 1240 b 201 1333 371 1240 322 1333 b 47 1256 140 1333 86 1310 l 47 1115 b 204 1196 104 1174 147 1196 b 492 1103 322 1196 371 1103 z m 481 0 l 669 0 l 436 1007 l 257 1007 l 25 0 l 203 0 l 233 151 l 449 151 z m 343 675 l 415 319 l 268 319 z "},"Ä":{"ha":694,"x_min":0,"x_max":0,"o":"m 181 1114 b 282 1219 247 1114 282 1161 b 181 1328 282 1278 247 1328 b 79 1219 114 1328 79 1278 b 181 1114 79 1161 114 1114 z m 514 1114 b 615 1219 581 1114 615 1161 b 514 1328 615 1278 581 1328 b 413 1219 447 1328 413 1278 b 514 1114 413 1161 447 1114 z m 481 0 l 669 0 l 436 1007 l 257 1007 l 25 0 l 203 0 l 233 151 l 449 151 z m 343 675 l 415 319 l 268 319 z "},"Å":{"ha":694,"x_min":0,"x_max":0,"o":"m 257 1176 b 347 1254 257 1232 292 1254 b 438 1176 403 1254 438 1232 b 347 1100 438 1122 403 1100 b 257 1176 292 1100 257 1122 z m 544 1176 b 347 1333 544 1281 472 1333 b 150 1176 222 1333 150 1281 b 347 1021 150 1074 222 1021 b 544 1176 472 1021 544 1074 z m 481 0 l 669 0 l 436 1007 l 257 1007 l 25 0 l 203 0 l 233 151 l 449 151 z m 343 675 l 415 319 l 268 319 z "},"Æ":{"ha":694,"x_min":0,"x_max":0,"o":"m 682 0 l 682 169 l 507 169 l 507 428 l 654 428 l 654 590 l 507 590 l 507 838 l 682 838 l 682 1007 l 149 1007 l 7 0 l 174 0 l 197 161 l 344 161 l 344 0 z m 344 326 l 215 326 l 276 838 l 344 838 z "},"Ç":{"ha":694,"x_min":0,"x_max":0,"o":"m 350 1021 b 56 699 146 1021 56 892 l 56 308 b 350 -14 56 115 146 -14 b 631 253 519 -14 615 75 l 461 253 b 350 139 461 190 425 139 b 233 308 279 139 233 183 l 233 699 b 350 868 233 824 279 868 b 461 754 425 868 461 817 l 631 754 b 350 1021 615 932 519 1021 z m 301 -24 l 249 -304 l 367 -333 l 446 -60 z "},"È":{"ha":694,"x_min":0,"x_max":0,"o":"m 322 1089 l 468 1089 l 335 1333 l 142 1333 z m 604 169 l 271 169 l 271 428 l 576 428 l 576 590 l 271 590 l 271 838 l 604 838 l 604 1007 l 93 1007 l 93 0 l 604 0 z "},"Ѐ":{"ha":694,"x_min":0,"x_max":0,"o":"m 322 1089 l 468 1089 l 335 1333 l 142 1333 z m 604 169 l 271 169 l 271 428 l 576 428 l 576 590 l 271 590 l 271 838 l 604 838 l 604 1007 l 93 1007 l 93 0 l 604 0 z "},"É":{"ha":694,"x_min":0,"x_max":0,"o":"m 510 1333 l 317 1333 l 183 1089 l 329 1089 z m 604 169 l 271 169 l 271 428 l 576 428 l 576 590 l 271 590 l 271 838 l 604 838 l 604 1007 l 93 1007 l 93 0 l 604 0 z "},"Ê":{"ha":694,"x_min":0,"x_max":0,"o":"m 81 1089 l 225 1089 l 344 1239 l 467 1089 l 613 1089 l 460 1333 l 233 1333 z m 604 169 l 271 169 l 271 428 l 576 428 l 576 590 l 271 590 l 271 838 l 604 838 l 604 1007 l 93 1007 l 93 0 l 604 0 z "},"Ë":{"ha":694,"x_min":0,"x_max":0,"o":"m 181 1114 b 282 1219 247 1114 282 1161 b 181 1328 282 1278 247 1328 b 79 1219 114 1328 79 1278 b 181 1114 79 1161 114 1114 z m 514 1114 b 615 1219 581 1114 615 1161 b 514 1328 615 1278 581 1328 b 413 1219 447 1328 413 1278 b 514 1114 413 1161 447 1114 z m 604 169 l 271 169 l 271 428 l 576 428 l 576 590 l 271 590 l 271 838 l 604 838 l 604 1007 l 93 1007 l 93 0 l 604 0 z "},"Ё":{"ha":694,"x_min":0,"x_max":0,"o":"m 181 1114 b 282 1219 247 1114 282 1161 b 181 1328 282 1278 247 1328 b 79 1219 114 1328 79 1278 b 181 1114 79 1161 114 1114 z m 514 1114 b 615 1219 581 1114 615 1161 b 514 1328 615 1278 581 1328 b 413 1219 447 1328 413 1278 b 514 1114 413 1161 447 1114 z m 604 169 l 271 169 l 271 428 l 576 428 l 576 590 l 271 590 l 271 838 l 604 838 l 604 1007 l 93 1007 l 93 0 l 604 0 z "},"Ì":{"ha":694,"x_min":0,"x_max":0,"o":"m 322 1089 l 468 1089 l 335 1333 l 142 1333 z m 111 838 l 258 838 l 258 169 l 111 169 l 111 0 l 583 0 l 583 169 l 436 169 l 436 838 l 583 838 l 583 1007 l 111 1007 z "},"Í":{"ha":694,"x_min":0,"x_max":0,"o":"m 551 1333 l 358 1333 l 225 1089 l 371 1089 z m 111 838 l 258 838 l 258 169 l 111 169 l 111 0 l 583 0 l 583 169 l 436 169 l 436 838 l 583 838 l 583 1007 l 111 1007 z "},"Î":{"ha":694,"x_min":0,"x_max":0,"o":"m 81 1089 l 225 1089 l 344 1239 l 467 1089 l 613 1089 l 460 1333 l 233 1333 z m 111 838 l 258 838 l 258 169 l 111 169 l 111 0 l 583 0 l 583 169 l 436 169 l 436 838 l 583 838 l 583 1007 l 111 1007 z "},"Ï":{"ha":694,"x_min":0,"x_max":0,"o":"m 181 1114 b 282 1219 247 1114 282 1161 b 181 1328 282 1278 247 1328 b 79 1219 114 1328 79 1278 b 181 1114 79 1161 114 1114 z m 514 1114 b 615 1219 581 1114 615 1161 b 514 1328 615 1278 581 1328 b 413 1219 447 1328 413 1278 b 514 1114 413 1161 447 1114 z m 111 838 l 258 838 l 258 169 l 111 169 l 111 0 l 583 0 l 583 169 l 436 169 l 436 838 l 583 838 l 583 1007 l 111 1007 z "},"Ϊ":{"ha":694,"x_min":0,"x_max":0,"o":"m 181 1114 b 282 1219 247 1114 282 1161 b 181 1328 282 1278 247 1328 b 79 1219 114 1328 79 1278 b 181 1114 79 1161 114 1114 z m 514 1114 b 615 1219 581 1114 615 1161 b 514 1328 615 1278 581 1328 b 413 1219 447 1328 413 1278 b 514 1114 413 1161 447 1114 z m 111 838 l 258 838 l 258 169 l 111 169 l 111 0 l 583 0 l 583 169 l 436 169 l 436 838 l 583 838 l 583 1007 l 111 1007 z "},"Ї":{"ha":694,"x_min":0,"x_max":0,"o":"m 181 1114 b 282 1219 247 1114 282 1161 b 181 1328 282 1278 247 1328 b 79 1219 114 1328 79 1278 b 181 1114 79 1161 114 1114 z m 514 1114 b 615 1219 581 1114 615 1161 b 514 1328 615 1278 581 1328 b 413 1219 447 1328 413 1278 b 514 1114 413 1161 447 1114 z m 111 838 l 258 838 l 258 169 l 111 169 l 111 0 l 583 0 l 583 169 l 436 169 l 436 838 l 583 838 l 583 1007 l 111 1007 z "},"Ð":{"ha":694,"x_min":0,"x_max":0,"o":"m 14 428 l 69 428 l 69 0 l 358 0 b 633 303 542 0 633 101 l 633 699 b 358 1007 633 904 542 1007 l 69 1007 l 69 590 l 14 590 z m 456 313 b 347 169 456 221 419 169 l 247 169 l 247 428 l 393 428 l 393 590 l 247 590 l 247 838 l 347 838 b 456 682 419 838 456 782 z "},"Đ":{"ha":694,"x_min":0,"x_max":0,"o":"m 14 428 l 69 428 l 69 0 l 358 0 b 633 303 542 0 633 101 l 633 699 b 358 1007 633 904 542 1007 l 69 1007 l 69 590 l 14 590 z m 456 313 b 347 169 456 221 419 169 l 247 169 l 247 428 l 393 428 l 393 590 l 247 590 l 247 838 l 347 838 b 456 682 419 838 456 782 z "},"Ñ":{"ha":694,"x_min":0,"x_max":0,"o":"m 492 1103 b 646 1181 553 1103 607 1126 l 646 1321 b 489 1240 589 1263 546 1240 b 201 1333 371 1240 322 1333 b 47 1256 140 1333 86 1310 l 47 1115 b 204 1196 104 1174 147 1196 b 492 1103 322 1196 371 1103 z m 625 1007 l 465 1007 l 465 457 l 275 1007 l 69 1007 l 69 0 l 229 0 l 229 589 l 454 0 l 625 0 z "},"Ò":{"ha":694,"x_min":0,"x_max":0,"o":"m 322 1089 l 468 1089 l 335 1333 l 142 1333 z m 347 139 b 233 308 279 139 233 185 l 233 699 b 347 868 233 822 279 868 b 461 699 415 868 461 822 l 461 308 b 347 139 461 185 415 139 z m 347 -14 b 639 308 540 -14 639 113 l 639 699 b 347 1021 639 894 540 1021 b 56 699 154 1021 56 894 l 56 308 b 347 -14 56 113 154 -14 z "},"Ó":{"ha":694,"x_min":0,"x_max":0,"o":"m 551 1333 l 358 1333 l 225 1089 l 371 1089 z m 347 139 b 233 308 279 139 233 185 l 233 699 b 347 868 233 822 279 868 b 461 699 415 868 461 822 l 461 308 b 347 139 461 185 415 139 z m 347 -14 b 639 308 540 -14 639 113 l 639 699 b 347 1021 639 894 540 1021 b 56 699 154 1021 56 894 l 56 308 b 347 -14 56 113 154 -14 z "},"Ô":{"ha":694,"x_min":0,"x_max":0,"o":"m 81 1089 l 225 1089 l 344 1239 l 467 1089 l 613 1089 l 460 1333 l 233 1333 z m 347 139 b 233 308 279 139 233 185 l 233 699 b 347 868 233 822 279 868 b 461 699 415 868 461 822 l 461 308 b 347 139 461 185 415 139 z m 347 -14 b 639 308 540 -14 639 113 l 639 699 b 347 1021 639 894 540 1021 b 56 699 154 1021 56 894 l 56 308 b 347 -14 56 113 154 -14 z "},"Õ":{"ha":694,"x_min":0,"x_max":0,"o":"m 492 1103 b 646 1181 553 1103 607 1126 l 646 1321 b 489 1240 589 1263 546 1240 b 201 1333 371 1240 322 1333 b 47 1256 140 1333 86 1310 l 47 1115 b 204 1196 104 1174 147 1196 b 492 1103 322 1196 371 1103 z m 347 139 b 233 308 279 139 233 185 l 233 699 b 347 868 233 822 279 868 b 461 699 415 868 461 822 l 461 308 b 347 139 461 185 415 139 z m 347 -14 b 639 308 540 -14 639 113 l 639 699 b 347 1021 639 894 540 1021 b 56 699 154 1021 56 894 l 56 308 b 347 -14 56 113 154 -14 z "},"Ö":{"ha":694,"x_min":0,"x_max":0,"o":"m 181 1114 b 282 1219 247 1114 282 1161 b 181 1328 282 1278 247 1328 b 79 1219 114 1328 79 1278 b 181 1114 79 1161 114 1114 z m 514 1114 b 615 1219 581 1114 615 1161 b 514 1328 615 1278 581 1328 b 413 1219 447 1328 413 1278 b 514 1114 413 1161 447 1114 z m 347 139 b 233 308 279 139 233 185 l 233 699 b 347 868 233 822 279 868 b 461 699 415 868 461 822 l 461 308 b 347 139 461 185 415 139 z m 347 -14 b 639 308 540 -14 639 113 l 639 699 b 347 1021 639 894 540 1021 b 56 699 154 1021 56 894 l 56 308 b 347 -14 56 113 154 -14 z "},"×":{"ha":694,"x_min":0,"x_max":0,"o":"m 168 240 l 349 421 l 528 242 l 607 319 l 426 500 l 607 678 l 528 757 l 349 579 l 168 758 l 92 679 l 271 500 l 90 318 z "},"Ø":{"ha":694,"x_min":0,"x_max":0,"o":"m 347 -14 b 639 308 540 -14 639 113 l 639 699 b 594 889 639 774 624 838 l 669 1042 l 574 1092 l 517 975 b 347 1021 472 1004 415 1021 b 56 699 154 1021 56 894 l 56 308 b 99 117 56 233 69 168 l 25 -35 l 121 -85 l 176 31 b 347 -14 221 1 278 -14 z m 347 132 b 247 176 306 132 271 146 l 478 649 l 478 304 b 347 132 478 179 425 132 z m 217 703 b 347 875 217 828 269 875 b 446 829 389 875 422 861 l 217 360 z "},"Ù":{"ha":694,"x_min":0,"x_max":0,"o":"m 322 1089 l 468 1089 l 335 1333 l 142 1333 z m 646 1007 l 474 1007 l 474 296 b 349 147 474 186 415 147 b 226 296 281 147 226 186 l 226 1007 l 49 1007 l 49 286 b 349 -14 49 83 163 -14 b 646 286 529 -14 646 79 z "},"Ú":{"ha":694,"x_min":0,"x_max":0,"o":"m 551 1333 l 358 1333 l 225 1089 l 371 1089 z m 646 1007 l 474 1007 l 474 296 b 349 147 474 186 415 147 b 226 296 281 147 226 186 l 226 1007 l 49 1007 l 49 286 b 349 -14 49 83 163 -14 b 646 286 529 -14 646 79 z "},"Û":{"ha":694,"x_min":0,"x_max":0,"o":"m 81 1089 l 225 1089 l 344 1239 l 467 1089 l 613 1089 l 460 1333 l 233 1333 z m 646 1007 l 474 1007 l 474 296 b 349 147 474 186 415 147 b 226 296 281 147 226 186 l 226 1007 l 49 1007 l 49 286 b 349 -14 49 83 163 -14 b 646 286 529 -14 646 79 z "},"Ü":{"ha":694,"x_min":0,"x_max":0,"o":"m 181 1114 b 282 1219 247 1114 282 1161 b 181 1328 282 1278 247 1328 b 79 1219 114 1328 79 1278 b 181 1114 79 1161 114 1114 z m 514 1114 b 615 1219 581 1114 615 1161 b 514 1328 615 1278 581 1328 b 413 1219 447 1328 413 1278 b 514 1114 413 1161 447 1114 z m 646 1007 l 474 1007 l 474 296 b 349 147 474 186 415 147 b 226 296 281 147 226 186 l 226 1007 l 49 1007 l 49 286 b 349 -14 49 83 163 -14 b 646 286 529 -14 646 79 z "},"Ý":{"ha":694,"x_min":0,"x_max":0,"o":"m 551 1333 l 358 1333 l 225 1089 l 371 1089 z m 475 1007 l 351 643 l 226 1007 l 17 1007 l 258 401 l 258 0 l 436 0 l 436 401 l 679 1007 z "},"Þ":{"ha":694,"x_min":0,"x_max":0,"o":"m 469 507 b 332 347 469 394 424 347 l 247 347 l 247 669 l 332 669 b 469 507 424 669 469 619 z m 247 1008 l 69 1008 l 69 0 l 247 0 l 247 178 l 332 178 b 651 507 549 178 651 301 b 332 839 651 713 549 839 l 247 839 z "},"ß":{"ha":694,"x_min":0,"x_max":0,"o":"m 239 740 b 347 869 239 821 269 869 b 456 733 426 869 456 819 b 347 589 456 642 424 589 l 324 589 l 324 464 l 347 464 b 482 311 425 464 482 424 b 333 161 482 206 432 161 l 304 161 l 304 0 l 333 0 b 651 289 578 0 651 129 b 515 531 651 431 593 504 b 619 740 578 556 619 624 b 342 1021 619 918 522 1021 b 69 764 160 1021 69 915 l 69 0 l 239 0 z "},"à":{"ha":694,"x_min":0,"x_max":0,"o":"m 464 211 b 313 128 436 164 375 128 b 213 214 260 128 213 153 b 333 308 213 268 250 308 b 464 276 385 308 438 293 z m 633 460 b 363 707 633 610 539 707 b 76 554 233 707 128 656 l 222 492 b 350 553 246 529 289 553 b 464 456 418 553 464 524 l 464 390 b 308 421 432 407 378 421 b 47 200 132 421 47 328 b 288 -14 47 79 125 -14 b 481 69 389 -14 450 22 l 481 0 l 633 0 z m 328 774 l 474 774 l 340 1042 l 147 1042 z "},"á":{"ha":694,"x_min":0,"x_max":0,"o":"m 464 211 b 313 128 436 164 375 128 b 213 214 260 128 213 153 b 333 308 213 268 250 308 b 464 276 385 308 438 293 z m 633 460 b 363 707 633 610 539 707 b 76 554 233 707 128 656 l 222 492 b 350 553 246 529 289 553 b 464 456 418 553 464 524 l 464 390 b 308 421 432 407 378 421 b 47 200 132 421 47 328 b 288 -14 47 79 125 -14 b 481 69 389 -14 450 22 l 481 0 l 633 0 z m 557 1042 l 364 1042 l 231 774 l 376 774 z "},"â":{"ha":694,"x_min":0,"x_max":0,"o":"m 464 211 b 313 128 436 164 375 128 b 213 214 260 128 213 153 b 333 308 213 268 250 308 b 464 276 385 308 438 293 z m 633 460 b 363 707 633 610 539 707 b 76 554 233 707 128 656 l 222 492 b 350 553 246 529 289 553 b 464 456 418 553 464 524 l 464 390 b 308 421 432 407 378 421 b 47 200 132 421 47 328 b 288 -14 47 79 125 -14 b 481 69 389 -14 450 22 l 481 0 l 633 0 z m 86 774 l 231 774 l 350 944 l 472 774 l 618 774 l 465 1042 l 239 1042 z "},"ã":{"ha":694,"x_min":0,"x_max":0,"o":"m 464 211 b 313 128 436 164 375 128 b 213 214 260 128 213 153 b 333 308 213 268 250 308 b 464 276 385 308 438 293 z m 633 460 b 363 707 633 610 539 707 b 76 554 233 707 128 656 l 222 492 b 350 553 246 529 289 553 b 464 456 418 553 464 524 l 464 390 b 308 421 432 407 378 421 b 47 200 132 421 47 328 b 288 -14 47 79 125 -14 b 481 69 389 -14 450 22 l 481 0 l 633 0 z m 497 797 b 651 875 558 797 613 821 l 651 1015 b 494 935 594 957 551 935 b 207 1028 376 935 328 1028 b 53 950 146 1028 92 1004 l 53 810 b 210 890 110 868 153 890 b 497 797 328 890 376 797 z "},"ä":{"ha":694,"x_min":0,"x_max":0,"o":"m 464 211 b 313 128 436 164 375 128 b 213 214 260 128 213 153 b 333 308 213 268 250 308 b 464 276 385 308 438 293 z m 633 460 b 363 707 633 610 539 707 b 76 554 233 707 128 656 l 222 492 b 350 553 246 529 289 553 b 464 456 418 553 464 524 l 464 390 b 308 421 432 407 378 421 b 47 200 132 421 47 328 b 288 -14 47 79 125 -14 b 481 69 389 -14 450 22 l 481 0 l 633 0 z m 186 799 b 288 904 253 799 288 846 b 186 1013 288 963 253 1013 b 85 904 119 1013 85 963 b 186 799 85 846 119 799 z m 519 799 b 621 904 586 799 621 846 b 519 1013 621 963 586 1013 b 418 904 453 1013 418 963 b 519 799 418 846 453 799 z "},"å":{"ha":694,"x_min":0,"x_max":0,"o":"m 464 211 b 313 128 436 164 375 128 b 213 214 260 128 213 153 b 333 308 213 268 250 308 b 464 276 385 308 438 293 z m 633 460 b 363 707 633 610 539 707 b 76 554 233 707 128 656 l 222 492 b 350 553 246 529 289 553 b 464 456 418 553 464 524 l 464 390 b 308 421 432 407 378 421 b 47 200 132 421 47 328 b 288 -14 47 79 125 -14 b 481 69 389 -14 450 22 l 481 0 l 633 0 z m 263 878 b 353 958 263 935 297 958 b 443 878 408 958 443 935 b 353 797 443 821 408 797 b 263 878 297 797 263 821 z m 550 878 b 353 1042 550 986 478 1042 b 156 878 228 1042 156 986 b 353 714 156 769 228 714 b 550 878 478 714 550 769 z "},"æ":{"ha":694,"x_min":0,"x_max":0,"o":"m 339 83 b 483 -14 364 31 407 -14 b 667 163 592 -14 638 76 l 547 200 b 485 124 535 149 517 124 b 410 303 442 124 410 169 l 686 303 b 485 707 686 615 610 707 b 346 639 433 707 381 692 b 211 707 311 681 272 707 b 32 539 132 707 71 663 l 149 492 b 214 561 163 544 183 561 b 272 456 254 561 272 532 l 272 393 b 164 421 242 410 201 421 b 10 203 51 421 10 321 b 179 -14 10 47 81 -14 b 339 83 253 -14 314 21 z m 408 396 b 483 557 411 524 439 557 b 560 396 522 557 557 531 z m 272 176 b 200 117 257 138 229 117 b 144 214 165 117 144 144 b 208 308 144 265 156 308 b 272 288 231 308 250 300 z "},"ç":{"ha":694,"x_min":0,"x_max":0,"o":"m 374 707 b 49 349 165 707 49 554 b 375 -14 49 143 165 -14 b 640 156 493 -14 594 36 l 500 208 b 368 139 483 171 431 139 b 218 349 269 139 218 219 b 367 554 218 478 269 554 b 500 485 431 554 483 522 l 640 538 b 374 707 594 657 493 707 z m 301 -24 l 249 -304 l 367 -333 l 446 -60 z "},"è":{"ha":694,"x_min":0,"x_max":0,"o":"m 649 303 b 651 365 651 322 651 342 b 356 707 651 589 526 707 b 49 344 171 707 49 569 b 367 -14 49 132 158 -14 b 640 156 478 -14 592 28 l 500 208 b 365 139 479 164 428 139 b 213 303 274 139 224 193 z m 210 396 b 350 558 226 492 261 558 b 490 396 436 558 482 497 z m 328 774 l 474 774 l 340 1042 l 147 1042 z "},"ѐ":{"ha":694,"x_min":0,"x_max":0,"o":"m 649 303 b 651 365 651 322 651 342 b 356 707 651 589 526 707 b 49 344 171 707 49 569 b 367 -14 49 132 158 -14 b 640 156 478 -14 592 28 l 500 208 b 365 139 479 164 428 139 b 213 303 274 139 224 193 z m 210 396 b 350 558 226 492 261 558 b 490 396 436 558 482 497 z m 328 774 l 474 774 l 340 1042 l 147 1042 z "},"é":{"ha":694,"x_min":0,"x_max":0,"o":"m 649 303 b 651 365 651 322 651 342 b 356 707 651 589 526 707 b 49 344 171 707 49 569 b 367 -14 49 132 158 -14 b 640 156 478 -14 592 28 l 500 208 b 365 139 479 164 428 139 b 213 303 274 139 224 193 z m 210 396 b 350 558 226 492 261 558 b 490 396 436 558 482 497 z m 557 1042 l 364 1042 l 231 774 l 376 774 z "},"ê":{"ha":694,"x_min":0,"x_max":0,"o":"m 649 303 b 651 365 651 322 651 342 b 356 707 651 589 526 707 b 49 344 171 707 49 569 b 367 -14 49 132 158 -14 b 640 156 478 -14 592 28 l 500 208 b 365 139 479 164 428 139 b 213 303 274 139 224 193 z m 210 396 b 350 558 226 492 261 558 b 490 396 436 558 482 497 z m 86 774 l 231 774 l 350 944 l 472 774 l 618 774 l 465 1042 l 239 1042 z "},"ë":{"ha":694,"x_min":0,"x_max":0,"o":"m 649 303 b 651 365 651 322 651 342 b 356 707 651 589 526 707 b 49 344 171 707 49 569 b 367 -14 49 132 158 -14 b 640 156 478 -14 592 28 l 500 208 b 365 139 479 164 428 139 b 213 303 274 139 224 193 z m 210 396 b 350 558 226 492 261 558 b 490 396 436 558 482 497 z m 186 799 b 288 904 253 799 288 846 b 186 1013 288 963 253 1013 b 85 904 119 1013 85 963 b 186 799 85 846 119 799 z m 519 799 b 621 904 586 799 621 846 b 519 1013 621 963 586 1013 b 418 904 453 1013 418 963 b 519 799 418 846 453 799 z "},"ё":{"ha":694,"x_min":0,"x_max":0,"o":"m 649 303 b 651 365 651 322 651 342 b 356 707 651 589 526 707 b 49 344 171 707 49 569 b 367 -14 49 132 158 -14 b 640 156 478 -14 592 28 l 500 208 b 365 139 479 164 428 139 b 213 303 274 139 224 193 z m 210 396 b 350 558 226 492 261 558 b 490 396 436 558 482 497 z m 186 799 b 288 904 253 799 288 846 b 186 1013 288 963 253 1013 b 85 904 119 1013 85 963 b 186 799 85 846 119 799 z m 519 799 b 621 904 586 799 621 846 b 519 1013 621 963 586 1013 b 418 904 453 1013 418 963 b 519 799 418 846 453 799 z "},"ì":{"ha":694,"x_min":0,"x_max":0,"o":"m 568 160 l 436 160 l 436 692 l 126 692 l 126 532 l 268 532 l 268 160 l 126 160 l 126 0 l 568 0 z m 283 774 l 429 774 l 296 1042 l 103 1042 z "},"í":{"ha":694,"x_min":0,"x_max":0,"o":"m 568 160 l 436 160 l 436 692 l 126 692 l 126 532 l 268 532 l 268 160 l 126 160 l 126 0 l 568 0 z m 551 1042 l 358 1042 l 225 774 l 371 774 z "},"î":{"ha":694,"x_min":0,"x_max":0,"o":"m 568 160 l 436 160 l 436 692 l 126 692 l 126 532 l 268 532 l 268 160 l 126 160 l 126 0 l 568 0 z m 64 774 l 208 774 l 328 944 l 450 774 l 596 774 l 443 1042 l 217 1042 z "},"ï":{"ha":694,"x_min":0,"x_max":0,"o":"m 568 160 l 436 160 l 436 692 l 126 692 l 126 532 l 268 532 l 268 160 l 126 160 l 126 0 l 568 0 z m 167 799 b 268 904 233 799 268 846 b 167 1013 268 963 233 1013 b 65 904 100 1013 65 963 b 167 799 65 846 100 799 z m 500 799 b 601 904 567 799 601 846 b 500 1013 601 963 567 1013 b 399 904 433 1013 399 963 b 500 799 399 846 433 799 z "},"ї":{"ha":694,"x_min":0,"x_max":0,"o":"m 568 160 l 436 160 l 436 692 l 126 692 l 126 532 l 268 532 l 268 160 l 126 160 l 126 0 l 568 0 z m 167 799 b 268 904 233 799 268 846 b 167 1013 268 963 233 1013 b 65 904 100 1013 65 963 b 167 799 65 846 100 799 z m 500 799 b 601 904 567 799 601 846 b 500 1013 601 963 567 1013 b 399 904 433 1013 399 963 b 500 799 399 846 433 799 z "},"ð":{"ha":694,"x_min":0,"x_max":0,"o":"m 468 1039 l 374 953 b 189 1032 317 992 256 1018 l 140 918 b 271 860 182 911 228 889 l 179 778 l 231 719 l 332 811 b 454 639 392 756 439 690 b 313 671 413 661 351 671 b 47 331 168 671 47 531 b 353 -14 47 129 168 -14 b 646 381 524 -14 646 110 b 436 904 646 603 564 786 l 521 981 z m 225 329 b 347 521 225 447 271 521 b 469 329 424 521 469 447 b 347 139 469 213 424 139 b 225 329 271 139 225 213 z "},"ñ":{"ha":694,"x_min":0,"x_max":0,"o":"m 642 464 b 421 707 642 632 572 707 b 233 636 333 707 272 682 l 233 692 l 69 692 l 69 0 l 239 0 l 239 475 b 378 567 268 521 307 567 b 472 443 436 567 472 536 l 472 0 l 642 0 z m 492 797 b 646 875 553 797 607 821 l 646 1015 b 489 935 589 957 546 935 b 201 1028 371 935 322 1028 b 47 950 140 1028 86 1004 l 47 810 b 204 890 104 868 147 890 b 492 797 322 890 371 797 z "},"ò":{"ha":694,"x_min":0,"x_max":0,"o":"m 347 554 b 482 346 426 554 482 464 b 347 138 482 228 426 138 b 213 346 268 138 213 228 b 347 554 213 464 268 554 z m 347 707 b 49 346 165 707 49 550 b 347 -14 49 142 165 -14 b 646 346 529 -14 646 142 b 347 707 646 550 529 707 z m 322 774 l 468 774 l 335 1042 l 142 1042 z "},"ó":{"ha":694,"x_min":0,"x_max":0,"o":"m 347 554 b 482 346 426 554 482 464 b 347 138 482 228 426 138 b 213 346 268 138 213 228 b 347 554 213 464 268 554 z m 347 707 b 49 346 165 707 49 550 b 347 -14 49 142 165 -14 b 646 346 529 -14 646 142 b 347 707 646 550 529 707 z m 551 1042 l 358 1042 l 225 774 l 371 774 z "},"ô":{"ha":694,"x_min":0,"x_max":0,"o":"m 347 554 b 482 346 426 554 482 464 b 347 138 482 228 426 138 b 213 346 268 138 213 228 b 347 554 213 464 268 554 z m 347 707 b 49 346 165 707 49 550 b 347 -14 49 142 165 -14 b 646 346 529 -14 646 142 b 347 707 646 550 529 707 z m 81 774 l 225 774 l 344 944 l 467 774 l 613 774 l 460 1042 l 233 1042 z "},"õ":{"ha":694,"x_min":0,"x_max":0,"o":"m 347 554 b 482 346 426 554 482 464 b 347 138 482 228 426 138 b 213 346 268 138 213 228 b 347 554 213 464 268 554 z m 347 707 b 49 346 165 707 49 550 b 347 -14 49 142 165 -14 b 646 346 529 -14 646 142 b 347 707 646 550 529 707 z m 492 797 b 646 875 553 797 607 821 l 646 1015 b 489 935 589 957 546 935 b 201 1028 371 935 322 1028 b 47 950 140 1028 86 1004 l 47 810 b 204 890 104 868 147 890 b 492 797 322 890 371 797 z "},"ö":{"ha":694,"x_min":0,"x_max":0,"o":"m 347 554 b 482 346 426 554 482 464 b 347 138 482 228 426 138 b 213 346 268 138 213 228 b 347 554 213 464 268 554 z m 347 707 b 49 346 165 707 49 550 b 347 -14 49 142 165 -14 b 646 346 529 -14 646 142 b 347 707 646 550 529 707 z m 181 799 b 282 904 247 799 282 846 b 181 1013 282 963 247 1013 b 79 904 114 1013 79 963 b 181 799 79 846 114 799 z m 514 799 b 615 904 581 799 615 846 b 514 1013 615 963 581 1013 b 413 904 447 1013 413 963 b 514 799 413 846 447 799 z "},"÷":{"ha":694,"x_min":0,"x_max":0,"o":"m 450 806 b 349 917 450 865 417 917 b 244 806 281 917 244 865 b 349 697 244 746 281 697 b 450 806 417 697 450 746 z m 450 196 b 349 307 450 256 417 307 b 244 196 281 307 244 256 b 349 88 244 136 281 88 b 450 196 417 88 450 136 z m 657 444 l 657 556 l 38 556 l 38 444 z "},"ø":{"ha":694,"x_min":0,"x_max":0,"o":"m 347 707 b 49 346 165 707 49 550 b 128 92 49 244 78 156 l 51 -35 l 144 -86 l 210 21 b 347 -14 249 -1 296 -14 b 646 346 529 -14 646 142 b 564 603 646 449 615 539 l 642 732 l 549 785 l 481 674 b 347 707 442 694 397 707 z m 500 346 b 347 131 500 224 438 131 b 286 146 325 131 304 136 l 478 461 b 500 346 492 428 500 389 z m 347 561 b 404 547 368 561 388 556 l 214 233 b 194 346 201 265 194 304 b 347 561 194 468 257 561 z "},"ù":{"ha":694,"x_min":0,"x_max":0,"o":"m 639 692 l 475 692 l 475 268 b 349 142 475 176 410 142 b 225 268 288 142 225 176 l 225 692 l 56 692 l 56 256 b 350 -14 56 86 179 -14 b 639 256 519 -14 639 86 z m 322 774 l 468 774 l 335 1042 l 142 1042 z "},"ú":{"ha":694,"x_min":0,"x_max":0,"o":"m 639 692 l 475 692 l 475 268 b 349 142 475 176 410 142 b 225 268 288 142 225 176 l 225 692 l 56 692 l 56 256 b 350 -14 56 86 179 -14 b 639 256 519 -14 639 86 z m 551 1042 l 358 1042 l 225 774 l 371 774 z "},"û":{"ha":694,"x_min":0,"x_max":0,"o":"m 639 692 l 475 692 l 475 268 b 349 142 475 176 410 142 b 225 268 288 142 225 176 l 225 692 l 56 692 l 56 256 b 350 -14 56 86 179 -14 b 639 256 519 -14 639 86 z m 81 774 l 225 774 l 344 944 l 467 774 l 613 774 l 460 1042 l 233 1042 z "},"ü":{"ha":694,"x_min":0,"x_max":0,"o":"m 639 692 l 475 692 l 475 268 b 349 142 475 176 410 142 b 225 268 288 142 225 176 l 225 692 l 56 692 l 56 256 b 350 -14 56 86 179 -14 b 639 256 519 -14 639 86 z m 181 799 b 282 904 247 799 282 846 b 181 1013 282 963 247 1013 b 79 904 114 1013 79 963 b 181 799 79 846 114 799 z m 514 799 b 615 904 581 799 615 846 b 514 1013 615 963 581 1013 b 413 904 447 1013 413 963 b 514 799 413 846 447 799 z "},"ý":{"ha":694,"x_min":0,"x_max":0,"o":"m 493 692 l 356 210 l 217 692 l 35 692 l 265 -35 l 190 -276 l 369 -276 l 660 692 z m 551 1042 l 358 1042 l 225 774 l 371 774 z "},"þ":{"ha":694,"x_min":0,"x_max":0,"o":"m 372 567 b 479 346 443 567 479 504 b 372 125 479 188 443 125 b 239 215 317 125 271 164 l 239 476 b 372 567 271 528 317 567 z m 410 707 b 239 643 346 707 283 688 l 239 1007 l 69 1007 l 69 -276 l 239 -276 l 239 49 b 410 -14 283 4 346 -14 b 649 346 589 -14 649 135 b 410 707 649 557 589 707 z "},"ÿ":{"ha":694,"x_min":0,"x_max":0,"o":"m 493 692 l 356 210 l 217 692 l 35 692 l 265 -35 l 190 -276 l 369 -276 l 660 692 z m 181 799 b 282 904 247 799 282 846 b 181 1013 282 963 247 1013 b 79 904 114 1013 79 963 b 181 799 79 846 114 799 z m 514 799 b 615 904 581 799 615 846 b 514 1013 615 963 581 1013 b 413 904 447 1013 413 963 b 514 799 413 846 447 799 z "},"Ā":{"ha":694,"x_min":0,"x_max":0,"o":"m 628 1164 l 628 1303 l 65 1303 l 65 1164 z m 481 0 l 669 0 l 436 1007 l 257 1007 l 25 0 l 203 0 l 233 151 l 449 151 z m 343 675 l 415 319 l 268 319 z "},"ā":{"ha":694,"x_min":0,"x_max":0,"o":"m 464 211 b 313 128 436 164 375 128 b 213 214 260 128 213 153 b 333 308 213 268 250 308 b 464 276 385 308 438 293 z m 633 460 b 363 707 633 610 539 707 b 76 554 233 707 128 656 l 222 492 b 350 553 246 529 289 553 b 464 456 418 553 464 524 l 464 390 b 308 421 432 407 378 421 b 47 200 132 421 47 328 b 288 -14 47 79 125 -14 b 481 69 389 -14 450 22 l 481 0 l 633 0 z m 633 849 l 633 988 l 71 988 l 71 849 z "},"Ă":{"ha":694,"x_min":0,"x_max":0,"o":"m 347 1072 b 618 1333 543 1072 618 1140 l 464 1333 b 347 1165 464 1190 415 1165 b 231 1333 279 1165 231 1190 l 76 1333 b 347 1072 76 1140 151 1072 z m 481 0 l 669 0 l 436 1007 l 257 1007 l 25 0 l 203 0 l 233 151 l 449 151 z m 343 675 l 415 319 l 268 319 z "},"ă":{"ha":694,"x_min":0,"x_max":0,"o":"m 464 211 b 313 128 436 164 375 128 b 213 214 260 128 213 153 b 333 308 213 268 250 308 b 464 276 385 308 438 293 z m 633 460 b 363 707 633 610 539 707 b 76 554 233 707 128 656 l 222 492 b 350 553 246 529 289 553 b 464 456 418 553 464 524 l 464 390 b 308 421 432 407 378 421 b 47 200 132 421 47 328 b 288 -14 47 79 125 -14 b 481 69 389 -14 450 22 l 481 0 l 633 0 z m 353 757 b 621 1042 549 757 621 843 l 467 1042 b 353 853 467 894 421 853 b 239 1042 285 853 239 894 l 85 1042 b 353 757 85 843 157 757 z "},"Ą":{"ha":694,"x_min":0,"x_max":0,"o":"m 669 -169 l 476 -169 b 442 -140 453 -169 442 -156 b 461 -111 442 -129 447 -118 l 669 0 l 436 1007 l 257 1007 l 25 0 l 203 0 l 233 151 l 449 151 l 483 -14 l 344 -87 b 275 -207 300 -111 275 -158 b 422 -333 275 -269 319 -333 l 669 -333 z m 343 675 l 415 319 l 268 319 z "},"ą":{"ha":694,"x_min":0,"x_max":0,"o":"m 633 -169 l 440 -169 b 406 -140 417 -169 406 -156 b 425 -111 406 -129 411 -118 l 633 0 l 633 460 b 363 707 633 610 539 707 b 76 554 233 707 128 656 l 222 492 b 350 553 246 529 289 553 b 464 456 418 553 464 524 l 464 390 b 308 421 432 407 378 421 b 47 200 132 421 47 328 b 288 -14 47 79 125 -14 b 481 69 389 -14 450 22 l 481 4 l 308 -87 b 239 -207 264 -111 239 -158 b 386 -333 239 -269 283 -333 l 633 -333 z m 464 211 b 313 128 436 164 375 128 b 213 214 260 128 213 153 b 333 308 213 268 250 308 b 464 276 385 308 438 293 z "},"Ć":{"ha":694,"x_min":0,"x_max":0,"o":"m 551 1333 l 358 1333 l 225 1089 l 371 1089 z m 350 1021 b 56 699 146 1021 56 892 l 56 308 b 350 -14 56 115 146 -14 b 631 253 519 -14 615 75 l 461 253 b 350 139 461 190 425 139 b 233 308 279 139 233 183 l 233 699 b 350 868 233 824 279 868 b 461 754 425 868 461 817 l 631 754 b 350 1021 615 932 519 1021 z "},"ć":{"ha":694,"x_min":0,"x_max":0,"o":"m 374 707 b 49 349 165 707 49 554 b 375 -14 49 143 165 -14 b 640 156 493 -14 594 36 l 500 208 b 368 139 483 171 431 139 b 218 349 269 139 218 219 b 367 554 218 478 269 554 b 500 485 431 554 483 522 l 640 538 b 374 707 594 657 493 707 z m 565 1042 l 372 1042 l 239 774 l 385 774 z "},"Ċ":{"ha":694,"x_min":0,"x_max":0,"o":"m 347 1114 b 449 1219 414 1114 449 1161 b 347 1328 449 1278 414 1328 b 246 1219 281 1328 246 1278 b 347 1114 246 1161 281 1114 z m 350 1021 b 56 699 146 1021 56 892 l 56 308 b 350 -14 56 115 146 -14 b 631 253 519 -14 615 75 l 461 253 b 350 139 461 190 425 139 b 233 308 279 139 233 183 l 233 699 b 350 868 233 824 279 868 b 461 754 425 868 461 817 l 631 754 b 350 1021 615 932 519 1021 z "},"ċ":{"ha":694,"x_min":0,"x_max":0,"o":"m 374 707 b 49 349 165 707 49 554 b 375 -14 49 143 165 -14 b 640 156 493 -14 594 36 l 500 208 b 368 139 483 171 431 139 b 218 349 269 139 218 219 b 367 554 218 478 269 554 b 500 485 431 554 483 522 l 640 538 b 374 707 594 657 493 707 z m 361 799 b 463 904 428 799 463 846 b 361 1013 463 963 428 1013 b 260 904 294 1013 260 963 b 361 799 260 846 294 799 z "},"Č":{"ha":694,"x_min":0,"x_max":0,"o":"m 613 1333 l 468 1333 l 349 1183 l 226 1333 l 81 1333 l 233 1089 l 460 1089 z m 350 1021 b 56 699 146 1021 56 892 l 56 308 b 350 -14 56 115 146 -14 b 631 253 519 -14 615 75 l 461 253 b 350 139 461 190 425 139 b 233 308 279 139 233 183 l 233 699 b 350 868 233 824 279 868 b 461 754 425 868 461 817 l 631 754 b 350 1021 615 932 519 1021 z "},"č":{"ha":694,"x_min":0,"x_max":0,"o":"m 374 707 b 49 349 165 707 49 554 b 375 -14 49 143 165 -14 b 640 156 493 -14 594 36 l 500 208 b 368 139 483 171 431 139 b 218 349 269 139 218 219 b 367 554 218 478 269 554 b 500 485 431 554 483 522 l 640 538 b 374 707 594 657 493 707 z m 626 1042 l 482 1042 l 363 871 l 240 1042 l 94 1042 l 247 774 l 474 774 z "},"Ď":{"ha":694,"x_min":0,"x_max":0,"o":"m 599 1333 l 454 1333 l 335 1183 l 213 1333 l 67 1333 l 219 1089 l 446 1089 z m 633 699 b 358 1007 633 904 542 1007 l 69 1007 l 69 0 l 358 0 b 633 303 542 0 633 101 z m 456 313 b 347 169 456 221 419 169 l 247 169 l 247 838 l 347 838 b 456 682 419 838 456 782 z "},"ď":{"ha":694,"x_min":0,"x_max":0,"o":"m 0 346 b 239 -14 0 135 60 -14 b 415 56 314 -14 381 11 l 415 0 l 579 0 l 579 1007 l 410 1007 l 410 643 b 239 707 365 688 303 707 b 0 346 60 707 0 557 z m 410 217 b 275 125 385 168 332 125 b 169 346 206 125 169 189 b 276 567 169 504 206 567 b 410 476 332 567 378 528 z m 626 1021 l 581 642 l 688 617 l 790 983 z "},"đ":{"ha":694,"x_min":0,"x_max":0,"o":"m 694 779 l 694 918 l 625 918 l 625 1007 l 456 1007 l 456 918 l 132 918 l 132 779 l 456 779 l 456 643 b 285 707 411 688 349 707 b 46 346 106 707 46 557 b 285 -14 46 135 106 -14 b 461 56 360 -14 426 11 l 461 0 l 625 0 l 625 779 z m 456 217 b 321 125 431 168 378 125 b 215 346 251 125 215 189 b 322 567 215 504 251 567 b 456 476 378 567 424 528 z "},"Ē":{"ha":694,"x_min":0,"x_max":0,"o":"m 628 1164 l 628 1303 l 65 1303 l 65 1164 z m 604 169 l 271 169 l 271 428 l 576 428 l 576 590 l 271 590 l 271 838 l 604 838 l 604 1007 l 93 1007 l 93 0 l 604 0 z "},"ē":{"ha":694,"x_min":0,"x_max":0,"o":"m 649 303 b 651 365 651 322 651 342 b 356 707 651 589 526 707 b 49 344 171 707 49 569 b 367 -14 49 132 158 -14 b 640 156 478 -14 592 28 l 500 208 b 365 139 479 164 428 139 b 213 303 274 139 224 193 z m 210 396 b 350 558 226 492 261 558 b 490 396 436 558 482 497 z m 633 849 l 633 988 l 71 988 l 71 849 z "},"Ė":{"ha":694,"x_min":0,"x_max":0,"o":"m 347 1114 b 449 1219 414 1114 449 1161 b 347 1328 449 1278 414 1328 b 246 1219 281 1328 246 1278 b 347 1114 246 1161 281 1114 z m 604 169 l 271 169 l 271 428 l 576 428 l 576 590 l 271 590 l 271 838 l 604 838 l 604 1007 l 93 1007 l 93 0 l 604 0 z "},"ė":{"ha":694,"x_min":0,"x_max":0,"o":"m 649 303 b 651 365 651 322 651 342 b 356 707 651 589 526 707 b 49 344 171 707 49 569 b 367 -14 49 132 158 -14 b 640 156 478 -14 592 28 l 500 208 b 365 139 479 164 428 139 b 213 303 274 139 224 193 z m 210 396 b 350 558 226 492 261 558 b 490 396 436 558 482 497 z m 353 799 b 454 904 419 799 454 846 b 353 1013 454 963 419 1013 b 251 904 286 1013 251 963 b 353 799 251 846 286 799 z "},"Ę":{"ha":694,"x_min":0,"x_max":0,"o":"m 604 -169 l 411 -169 b 376 -140 388 -169 376 -156 b 396 -111 376 -129 382 -118 l 604 0 l 604 169 l 271 169 l 271 428 l 576 428 l 576 590 l 271 590 l 271 838 l 604 838 l 604 1007 l 93 1007 l 93 0 l 444 0 l 279 -87 b 210 -207 235 -111 210 -158 b 357 -333 210 -269 254 -333 l 604 -333 z "},"ę":{"ha":694,"x_min":0,"x_max":0,"o":"m 508 -169 l 315 -169 b 281 -140 292 -169 281 -156 b 300 -111 281 -129 286 -118 l 513 15 b 640 156 567 42 614 86 l 500 208 b 365 139 479 164 428 139 b 213 303 274 139 224 193 l 649 303 b 651 365 651 322 651 342 b 356 707 651 589 526 707 b 49 344 171 707 49 569 b 311 -10 49 151 139 13 l 183 -87 b 114 -207 139 -111 114 -158 b 261 -333 114 -269 158 -333 l 508 -333 z m 210 396 b 350 558 226 492 261 558 b 490 396 436 558 482 497 z "},"Ě":{"ha":694,"x_min":0,"x_max":0,"o":"m 613 1333 l 468 1333 l 349 1183 l 226 1333 l 81 1333 l 233 1089 l 460 1089 z m 604 169 l 271 169 l 271 428 l 576 428 l 576 590 l 271 590 l 271 838 l 604 838 l 604 1007 l 93 1007 l 93 0 l 604 0 z "},"ě":{"ha":694,"x_min":0,"x_max":0,"o":"m 649 303 b 651 365 651 322 651 342 b 356 707 651 589 526 707 b 49 344 171 707 49 569 b 367 -14 49 132 158 -14 b 640 156 478 -14 592 28 l 500 208 b 365 139 479 164 428 139 b 213 303 274 139 224 193 z m 210 396 b 350 558 226 492 261 558 b 490 396 436 558 482 497 z m 618 1042 l 474 1042 l 354 871 l 232 1042 l 86 1042 l 239 774 l 465 774 z "},"Ğ":{"ha":694,"x_min":0,"x_max":0,"o":"m 347 1072 b 618 1333 543 1072 618 1140 l 464 1333 b 347 1165 464 1190 415 1165 b 231 1333 279 1165 231 1190 l 76 1333 b 347 1072 76 1140 151 1072 z m 614 569 l 354 569 l 354 425 l 436 425 l 436 285 b 342 139 436 182 403 139 b 233 308 281 139 233 182 l 233 699 b 350 868 233 824 279 868 b 461 754 425 868 461 817 l 631 754 b 350 1021 615 932 519 1021 b 56 699 146 1021 56 892 l 56 308 b 300 -14 56 114 147 -14 b 464 57 371 -14 438 14 l 464 0 l 614 0 z "},"ğ":{"ha":694,"x_min":0,"x_max":0,"o":"m 283 707 b 46 351 106 707 46 561 b 283 -4 46 140 106 -4 b 456 65 349 -4 410 15 l 456 19 b 313 -139 456 -111 406 -139 b 114 -58 226 -139 175 -115 l 46 -183 b 311 -290 103 -250 186 -290 b 626 13 522 -290 626 -174 l 626 692 l 461 692 l 461 636 b 283 707 426 681 360 707 z m 456 231 b 322 136 415 171 376 136 b 214 351 251 136 214 197 b 321 567 214 504 251 567 b 456 475 378 567 431 524 z m 347 757 b 615 1042 543 757 615 843 l 461 1042 b 347 853 461 894 415 853 b 233 1042 279 853 233 894 l 79 1042 b 347 757 79 843 151 757 z "},"Ġ":{"ha":694,"x_min":0,"x_max":0,"o":"m 347 1114 b 449 1219 414 1114 449 1161 b 347 1328 449 1278 414 1328 b 246 1219 281 1328 246 1278 b 347 1114 246 1161 281 1114 z m 614 569 l 354 569 l 354 425 l 436 425 l 436 285 b 342 139 436 182 403 139 b 233 308 281 139 233 182 l 233 699 b 350 868 233 824 279 868 b 461 754 425 868 461 817 l 631 754 b 350 1021 615 932 519 1021 b 56 699 146 1021 56 892 l 56 308 b 300 -14 56 114 147 -14 b 464 57 371 -14 438 14 l 464 0 l 614 0 z "},"ġ":{"ha":694,"x_min":0,"x_max":0,"o":"m 283 707 b 46 351 106 707 46 561 b 283 -4 46 140 106 -4 b 456 65 349 -4 410 15 l 456 19 b 313 -139 456 -111 406 -139 b 114 -58 226 -139 175 -115 l 46 -183 b 311 -290 103 -250 186 -290 b 626 13 522 -290 626 -174 l 626 692 l 461 692 l 461 636 b 283 707 426 681 360 707 z m 456 231 b 322 136 415 171 376 136 b 214 351 251 136 214 197 b 321 567 214 504 251 567 b 456 475 378 567 431 524 z m 347 799 b 449 904 414 799 449 846 b 347 1013 449 963 414 1013 b 246 904 281 1013 246 963 b 347 799 246 846 281 799 z "},"Ģ":{"ha":694,"x_min":0,"x_max":0,"o":"m 614 569 l 354 569 l 354 425 l 436 425 l 436 285 b 342 139 436 182 403 139 b 233 308 281 139 233 182 l 233 699 b 350 868 233 824 279 868 b 461 754 425 868 461 817 l 631 754 b 350 1021 615 932 519 1021 b 56 699 146 1021 56 892 l 56 308 b 300 -14 56 114 147 -14 b 464 57 371 -14 438 14 l 464 0 l 614 0 z m 301 -24 l 249 -304 l 367 -333 l 446 -60 z "},"ģ":{"ha":694,"x_min":0,"x_max":0,"o":"m 283 707 b 46 351 106 707 46 561 b 283 -4 46 140 106 -4 b 456 65 349 -4 410 15 l 456 19 b 313 -139 456 -111 406 -139 b 114 -58 226 -139 175 -115 l 46 -183 b 311 -290 103 -250 186 -290 b 626 13 522 -290 626 -174 l 626 692 l 461 692 l 461 636 b 283 707 426 681 360 707 z m 456 231 b 322 136 415 171 376 136 b 214 351 251 136 214 197 b 321 567 214 504 251 567 b 456 475 378 567 431 524 z m 303 1165 l 257 786 l 364 761 l 467 1128 z "},"Ħ":{"ha":694,"x_min":0,"x_max":0,"o":"m 694 743 l 694 882 l 622 882 l 622 1007 l 444 1007 l 444 882 l 250 882 l 250 1007 l 72 1007 l 72 882 l 0 882 l 0 743 l 72 743 l 72 0 l 250 0 l 250 435 l 444 435 l 444 0 l 622 0 l 622 743 z m 250 604 l 250 743 l 444 743 l 444 604 z "},"ħ":{"ha":694,"x_min":0,"x_max":0,"o":"m 563 779 l 563 918 l 239 918 l 239 1007 l 69 1007 l 69 918 l 0 918 l 0 779 l 69 779 l 69 0 l 239 0 l 239 475 b 378 567 268 521 307 567 b 472 443 436 567 472 536 l 472 0 l 642 0 l 642 464 b 422 707 642 631 572 707 b 239 643 332 707 275 679 l 239 779 z "},"ћ":{"ha":694,"x_min":0,"x_max":0,"o":"m 563 779 l 563 918 l 239 918 l 239 1007 l 69 1007 l 69 918 l 0 918 l 0 779 l 69 779 l 69 0 l 239 0 l 239 475 b 378 567 268 521 307 567 b 472 443 436 567 472 536 l 472 0 l 642 0 l 642 464 b 422 707 642 631 572 707 b 239 643 332 707 275 679 l 239 779 z "},"Ĩ":{"ha":694,"x_min":0,"x_max":0,"o":"m 492 1103 b 646 1181 553 1103 607 1126 l 646 1321 b 489 1240 589 1263 546 1240 b 201 1333 371 1240 322 1333 b 47 1256 140 1333 86 1310 l 47 1115 b 204 1196 104 1174 147 1196 b 492 1103 322 1196 371 1103 z m 111 838 l 258 838 l 258 169 l 111 169 l 111 0 l 583 0 l 583 169 l 436 169 l 436 838 l 583 838 l 583 1007 l 111 1007 z "},"ĩ":{"ha":694,"x_min":0,"x_max":0,"o":"m 568 160 l 436 160 l 436 692 l 126 692 l 126 532 l 268 532 l 268 160 l 126 160 l 126 0 l 568 0 z m 492 797 b 646 875 553 797 607 821 l 646 1015 b 489 935 589 957 546 935 b 201 1028 371 935 322 1028 b 47 950 140 1028 86 1004 l 47 810 b 204 890 104 868 147 890 b 492 797 322 890 371 797 z "},"Ī":{"ha":694,"x_min":0,"x_max":0,"o":"m 628 1164 l 628 1303 l 65 1303 l 65 1164 z m 111 838 l 258 838 l 258 169 l 111 169 l 111 0 l 583 0 l 583 169 l 436 169 l 436 838 l 583 838 l 583 1007 l 111 1007 z "},"ī":{"ha":694,"x_min":0,"x_max":0,"o":"m 568 160 l 436 160 l 436 692 l 126 692 l 126 532 l 268 532 l 268 160 l 126 160 l 126 0 l 568 0 z m 628 849 l 628 988 l 65 988 l 65 849 z "},"Ĭ":{"ha":694,"x_min":0,"x_max":0,"o":"m 347 1072 b 618 1333 543 1072 618 1140 l 464 1333 b 347 1165 464 1190 415 1165 b 231 1333 279 1165 231 1190 l 76 1333 b 347 1072 76 1140 151 1072 z m 111 838 l 258 838 l 258 169 l 111 169 l 111 0 l 583 0 l 583 169 l 436 169 l 436 838 l 583 838 l 583 1007 l 111 1007 z "},"ĭ":{"ha":694,"x_min":0,"x_max":0,"o":"m 568 160 l 436 160 l 436 692 l 126 692 l 126 532 l 268 532 l 268 160 l 126 160 l 126 0 l 568 0 z m 347 757 b 615 1042 543 757 615 843 l 461 1042 b 347 853 461 894 415 853 b 233 1042 279 853 233 894 l 79 1042 b 347 757 79 843 151 757 z "},"Į":{"ha":694,"x_min":0,"x_max":0,"o":"m 544 -169 l 351 -169 b 317 -140 328 -169 317 -156 b 336 -111 317 -129 322 -118 l 544 0 l 583 0 l 583 169 l 436 169 l 436 838 l 583 838 l 583 1007 l 111 1007 l 111 838 l 258 838 l 258 169 l 111 169 l 111 0 l 385 0 l 219 -87 b 150 -207 175 -111 150 -158 b 297 -333 150 -269 194 -333 l 544 -333 z "},"į":{"ha":694,"x_min":0,"x_max":0,"o":"m 544 -169 l 351 -169 b 317 -140 328 -169 317 -156 b 336 -111 317 -129 322 -118 l 544 0 l 568 0 l 568 160 l 436 160 l 436 692 l 126 692 l 126 532 l 268 532 l 268 160 l 126 160 l 126 0 l 385 0 l 219 -87 b 150 -207 175 -111 150 -158 b 297 -333 150 -269 194 -333 l 544 -333 z m 347 799 b 449 904 414 799 449 846 b 347 1013 449 963 414 1013 b 246 904 281 1013 246 963 b 347 799 246 846 281 799 z "},"İ":{"ha":694,"x_min":0,"x_max":0,"o":"m 347 1114 b 449 1219 414 1114 449 1161 b 347 1328 449 1278 414 1328 b 246 1219 281 1328 246 1278 b 347 1114 246 1161 281 1114 z m 111 838 l 258 838 l 258 169 l 111 169 l 111 0 l 583 0 l 583 169 l 436 169 l 436 838 l 583 838 l 583 1007 l 111 1007 z "},"ı":{"ha":694,"x_min":0,"x_max":0,"o":"m 568 160 l 436 160 l 436 692 l 126 692 l 126 532 l 268 532 l 268 160 l 126 160 l 126 0 l 568 0 z "},"Ĳ":{"ha":694,"x_min":0,"x_max":0,"o":"m 665 1007 l 383 1007 l 383 847 l 483 847 l 483 340 b 344 169 483 210 414 169 l 257 169 l 257 0 l 368 0 b 665 349 567 0 665 131 z m 28 1007 l 28 0 l 206 0 l 206 1007 z "},"ĳ":{"ha":694,"x_min":0,"x_max":0,"o":"m 647 692 l 379 692 l 379 531 l 478 531 l 478 -11 b 413 -108 478 -76 457 -108 l 233 -108 l 233 -276 l 440 -276 b 647 -11 578 -276 647 -187 z m 218 0 l 218 692 l 50 692 l 50 0 z m 129 799 b 231 904 196 799 231 846 b 129 1013 231 963 196 1013 b 28 904 63 1013 28 963 b 129 799 28 846 63 799 z m 565 799 b 667 904 632 799 667 846 b 565 1013 667 963 632 1013 b 464 904 499 1013 464 963 b 565 799 464 846 499 799 z "},"Ķ":{"ha":694,"x_min":0,"x_max":0,"o":"m 400 538 l 643 1007 l 463 1007 l 247 560 l 247 1007 l 69 1007 l 69 0 l 247 0 l 247 472 l 467 0 l 663 0 z m 286 -24 l 233 -304 l 351 -333 l 431 -60 z "},"ķ":{"ha":694,"x_min":0,"x_max":0,"o":"m 399 388 l 606 692 l 431 692 l 239 400 l 239 1007 l 69 1007 l 69 0 l 239 0 l 239 333 l 433 0 l 635 0 z m 276 -24 l 224 -304 l 342 -333 l 421 -60 z "},"Ĺ":{"ha":694,"x_min":0,"x_max":0,"o":"m 413 1333 l 219 1333 l 86 1089 l 232 1089 z m 626 169 l 247 169 l 247 1007 l 69 1007 l 69 0 l 626 0 z "},"ĺ":{"ha":694,"x_min":0,"x_max":0,"o":"m 579 1333 l 386 1333 l 253 1089 l 399 1089 z m 468 1007 l 150 1007 l 150 847 l 299 847 l 299 0 l 468 0 z "},"Ļ":{"ha":694,"x_min":0,"x_max":0,"o":"m 626 169 l 247 169 l 247 1007 l 69 1007 l 69 0 l 626 0 z m 301 -24 l 249 -304 l 367 -333 l 446 -60 z "},"ļ":{"ha":694,"x_min":0,"x_max":0,"o":"m 468 1007 l 150 1007 l 150 847 l 299 847 l 299 0 l 468 0 z m 308 -24 l 256 -304 l 374 -333 l 453 -60 z "},"Ľ":{"ha":694,"x_min":0,"x_max":0,"o":"m 626 169 l 247 169 l 247 1007 l 69 1007 l 69 0 l 626 0 z m 469 1021 l 424 642 l 531 617 l 633 983 z "},"ľ":{"ha":694,"x_min":0,"x_max":0,"o":"m 426 1007 l 108 1007 l 108 847 l 257 847 l 257 0 l 426 0 z m 494 1021 l 449 642 l 556 617 l 658 983 z "},"Ł":{"ha":694,"x_min":0,"x_max":0,"o":"m 626 169 l 247 169 l 247 451 l 479 606 l 479 768 l 247 614 l 247 1007 l 69 1007 l 69 496 l 0 450 l 0 289 l 69 335 l 69 0 l 626 0 z "},"ł":{"ha":694,"x_min":0,"x_max":0,"o":"m 468 1007 l 150 1007 l 150 847 l 299 847 l 299 539 l 133 429 l 133 268 l 299 376 l 299 0 l 468 0 l 468 489 l 613 585 l 613 747 l 468 651 z "},"Ń":{"ha":694,"x_min":0,"x_max":0,"o":"m 551 1333 l 358 1333 l 225 1089 l 371 1089 z m 625 1007 l 465 1007 l 465 457 l 275 1007 l 69 1007 l 69 0 l 229 0 l 229 589 l 454 0 l 625 0 z "},"ń":{"ha":694,"x_min":0,"x_max":0,"o":"m 642 464 b 421 707 642 632 572 707 b 233 636 333 707 272 682 l 233 692 l 69 692 l 69 0 l 239 0 l 239 475 b 378 567 268 521 307 567 b 472 443 436 567 472 536 l 472 0 l 642 0 z m 551 1042 l 358 1042 l 225 774 l 371 774 z "},"Ņ":{"ha":694,"x_min":0,"x_max":0,"o":"m 625 1007 l 465 1007 l 465 457 l 275 1007 l 69 1007 l 69 0 l 229 0 l 229 589 l 454 0 l 625 0 z m 293 -24 l 240 -304 l 358 -333 l 438 -60 z "},"ņ":{"ha":694,"x_min":0,"x_max":0,"o":"m 642 464 b 421 707 642 632 572 707 b 233 636 333 707 272 682 l 233 692 l 69 692 l 69 0 l 239 0 l 239 475 b 378 567 268 521 307 567 b 472 443 436 567 472 536 l 472 0 l 642 0 z m 285 -24 l 232 -304 l 350 -333 l 429 -60 z "},"Ň":{"ha":694,"x_min":0,"x_max":0,"o":"m 613 1333 l 468 1333 l 349 1183 l 226 1333 l 81 1333 l 233 1089 l 460 1089 z m 625 1007 l 465 1007 l 465 457 l 275 1007 l 69 1007 l 69 0 l 229 0 l 229 589 l 454 0 l 625 0 z "},"ň":{"ha":694,"x_min":0,"x_max":0,"o":"m 642 464 b 421 707 642 632 572 707 b 233 636 333 707 272 682 l 233 692 l 69 692 l 69 0 l 239 0 l 239 475 b 378 567 268 521 307 567 b 472 443 436 567 472 536 l 472 0 l 642 0 z m 613 1042 l 468 1042 l 349 871 l 226 1042 l 81 1042 l 233 774 l 460 774 z "},"Ŋ":{"ha":694,"x_min":0,"x_max":0,"o":"m 622 811 b 431 1021 622 951 539 1021 b 244 947 374 1021 306 1001 l 244 1007 l 72 1007 l 72 0 l 250 0 l 250 778 b 381 875 289 836 329 875 b 443 785 414 875 443 860 l 443 -11 b 378 -108 443 -76 422 -108 l 296 -108 l 296 -276 l 415 -276 b 622 -11 553 -276 622 -187 z "},"ŋ":{"ha":694,"x_min":0,"x_max":0,"o":"m 642 464 b 421 707 642 632 572 707 b 233 636 333 707 272 682 l 233 692 l 69 692 l 69 0 l 239 0 l 239 475 b 378 567 268 521 307 567 b 472 443 436 567 472 536 l 472 -11 b 407 -108 472 -76 451 -108 l 228 -108 l 228 -276 l 435 -276 b 642 -11 571 -276 642 -187 z "},"Ō":{"ha":694,"x_min":0,"x_max":0,"o":"m 628 1164 l 628 1303 l 65 1303 l 65 1164 z m 347 139 b 233 308 279 139 233 185 l 233 699 b 347 868 233 822 279 868 b 461 699 415 868 461 822 l 461 308 b 347 139 461 185 415 139 z m 347 -14 b 639 308 540 -14 639 113 l 639 699 b 347 1021 639 894 540 1021 b 56 699 154 1021 56 894 l 56 308 b 347 -14 56 113 154 -14 z "},"ō":{"ha":694,"x_min":0,"x_max":0,"o":"m 347 554 b 482 346 426 554 482 464 b 347 138 482 228 426 138 b 213 346 268 138 213 228 b 347 554 213 464 268 554 z m 347 707 b 49 346 165 707 49 550 b 347 -14 49 142 165 -14 b 646 346 529 -14 646 142 b 347 707 646 550 529 707 z m 628 849 l 628 988 l 65 988 l 65 849 z "},"Ő":{"ha":694,"x_min":0,"x_max":0,"o":"m 704 1333 l 511 1333 l 378 1089 l 524 1089 z m 399 1333 l 206 1333 l 72 1089 l 218 1089 z m 347 139 b 233 308 279 139 233 185 l 233 699 b 347 868 233 822 279 868 b 461 699 415 868 461 822 l 461 308 b 347 139 461 185 415 139 z m 347 -14 b 639 308 540 -14 639 113 l 639 699 b 347 1021 639 894 540 1021 b 56 699 154 1021 56 894 l 56 308 b 347 -14 56 113 154 -14 z "},"ő":{"ha":694,"x_min":0,"x_max":0,"o":"m 347 554 b 482 346 426 554 482 464 b 347 138 482 228 426 138 b 213 346 268 138 213 228 b 347 554 213 464 268 554 z m 347 707 b 49 346 165 707 49 550 b 347 -14 49 142 165 -14 b 646 346 529 -14 646 142 b 347 707 646 550 529 707 z m 704 1042 l 511 1042 l 378 774 l 524 774 z m 399 1042 l 206 1042 l 72 774 l 218 774 z "},"Œ":{"ha":694,"x_min":0,"x_max":0,"o":"m 682 169 l 511 169 l 511 428 l 654 428 l 654 590 l 511 590 l 511 838 l 682 838 l 682 1007 l 296 1007 b 21 699 113 1007 21 904 l 21 308 b 296 0 21 107 113 0 l 682 0 z m 199 682 b 307 838 199 782 235 838 l 333 838 l 333 169 l 307 169 b 199 318 235 169 199 226 z "},"œ":{"ha":694,"x_min":0,"x_max":0,"o":"m 483 -14 b 667 163 593 -14 638 78 l 547 200 b 485 124 535 149 517 124 b 410 303 442 124 410 169 l 686 303 b 489 707 686 611 610 707 b 339 607 435 707 374 688 b 203 707 319 657 272 707 b 26 336 101 707 26 599 b 199 -14 26 89 93 -14 b 339 83 269 -14 315 32 b 483 -14 364 31 407 -14 z m 296 346 b 222 114 296 192 272 114 b 150 344 174 114 150 190 b 222 575 150 499 174 575 b 296 346 272 575 296 499 z m 408 396 b 483 557 411 524 439 557 b 560 396 522 557 557 531 z "},"Ŕ":{"ha":694,"x_min":0,"x_max":0,"o":"m 551 1333 l 358 1333 l 225 1089 l 371 1089 z m 69 1007 l 69 0 l 250 0 l 250 404 l 460 0 l 667 0 l 456 403 b 646 700 575 435 646 543 b 349 1007 646 899 533 1007 z m 250 838 l 313 838 b 463 683 411 838 463 803 b 333 513 463 568 414 513 l 250 513 z "},"ŕ":{"ha":694,"x_min":0,"x_max":0,"o":"m 439 707 b 239 599 361 707 293 675 l 239 692 l 85 692 l 85 0 l 244 0 l 244 444 b 381 567 263 514 313 567 b 478 472 444 567 467 521 l 628 546 b 439 707 619 642 549 707 z m 565 1042 l 372 1042 l 239 774 l 385 774 z "},"Ŗ":{"ha":694,"x_min":0,"x_max":0,"o":"m 69 1007 l 69 0 l 250 0 l 250 404 l 460 0 l 667 0 l 456 403 b 646 700 575 435 646 543 b 349 1007 646 899 533 1007 z m 250 838 l 313 838 b 463 683 411 838 463 803 b 333 513 463 568 414 513 l 250 513 z m 288 -24 l 235 -304 l 353 -333 l 432 -60 z "},"ŗ":{"ha":694,"x_min":0,"x_max":0,"o":"m 439 707 b 239 599 361 707 293 675 l 239 692 l 85 692 l 85 0 l 244 0 l 244 444 b 381 567 263 514 313 567 b 478 472 444 567 467 521 l 628 546 b 439 707 619 642 549 707 z m 88 -24 l 35 -304 l 153 -333 l 232 -60 z "},"Ř":{"ha":694,"x_min":0,"x_max":0,"o":"m 599 1333 l 454 1333 l 335 1183 l 213 1333 l 67 1333 l 219 1089 l 446 1089 z m 69 1007 l 69 0 l 250 0 l 250 404 l 460 0 l 667 0 l 456 403 b 646 700 575 435 646 543 b 349 1007 646 899 533 1007 z m 250 838 l 313 838 b 463 683 411 838 463 803 b 333 513 463 568 414 513 l 250 513 z "},"ř":{"ha":694,"x_min":0,"x_max":0,"o":"m 439 707 b 239 599 361 707 293 675 l 239 692 l 85 692 l 85 0 l 244 0 l 244 444 b 381 567 263 514 313 567 b 478 472 444 567 467 521 l 628 546 b 439 707 619 642 549 707 z m 626 1042 l 482 1042 l 363 871 l 240 1042 l 94 1042 l 247 774 l 474 774 z "},"Ś":{"ha":694,"x_min":0,"x_max":0,"o":"m 551 1333 l 358 1333 l 225 1089 l 371 1089 z m 350 1021 b 61 747 172 1021 61 924 b 154 525 61 646 97 576 b 361 396 214 471 300 435 b 457 257 438 347 457 307 b 353 139 457 197 429 139 b 224 263 282 139 232 188 l 58 263 b 340 -14 71 81 167 -14 b 638 278 536 -14 638 106 b 532 504 638 371 608 439 b 304 649 460 567 367 606 b 239 757 264 676 239 700 b 344 868 239 808 258 868 b 454 756 414 868 454 829 l 617 756 b 350 1021 615 917 532 1021 z "},"ś":{"ha":694,"x_min":0,"x_max":0,"o":"m 342 707 b 96 508 182 707 96 631 b 175 361 96 443 121 399 b 371 258 225 326 303 297 b 442 176 425 228 442 207 b 357 115 442 142 421 115 b 263 192 297 115 263 138 l 93 192 b 351 -14 97 58 192 -14 b 608 192 529 -14 608 75 b 515 360 608 269 574 322 b 319 450 460 394 382 418 b 256 521 268 476 256 494 b 342 583 256 553 272 583 b 425 519 400 583 422 561 l 589 519 b 342 707 575 643 489 707 z m 551 1042 l 358 1042 l 225 774 l 371 774 z "},"Ş":{"ha":694,"x_min":0,"x_max":0,"o":"m 350 1021 b 61 747 172 1021 61 924 b 154 525 61 646 97 576 b 361 396 214 471 300 435 b 457 257 438 347 457 307 b 353 139 457 197 429 139 b 224 263 282 139 232 188 l 58 263 b 340 -14 71 81 167 -14 b 638 278 536 -14 638 106 b 532 504 638 371 608 439 b 304 649 460 567 367 606 b 239 757 264 676 239 700 b 344 868 239 808 258 868 b 454 756 414 868 454 829 l 617 756 b 350 1021 615 917 532 1021 z m 286 -24 l 233 -304 l 351 -333 l 431 -60 z "},"ş":{"ha":694,"x_min":0,"x_max":0,"o":"m 342 707 b 96 508 182 707 96 631 b 175 361 96 443 121 399 b 371 258 225 326 303 297 b 442 176 425 228 442 207 b 357 115 442 142 421 115 b 263 192 297 115 263 138 l 93 192 b 351 -14 97 58 192 -14 b 608 192 529 -14 608 75 b 515 360 608 269 574 322 b 319 450 460 394 382 418 b 256 521 268 476 256 494 b 342 583 256 553 272 583 b 425 519 400 583 422 561 l 589 519 b 342 707 575 643 489 707 z m 285 -24 l 232 -304 l 350 -333 l 429 -60 z "},"Š":{"ha":694,"x_min":0,"x_max":0,"o":"m 613 1333 l 468 1333 l 349 1183 l 226 1333 l 81 1333 l 233 1089 l 460 1089 z m 350 1021 b 61 747 172 1021 61 924 b 154 525 61 646 97 576 b 361 396 214 471 300 435 b 457 257 438 347 457 307 b 353 139 457 197 429 139 b 224 263 282 139 232 188 l 58 263 b 340 -14 71 81 167 -14 b 638 278 536 -14 638 106 b 532 504 638 371 608 439 b 304 649 460 567 367 606 b 239 757 264 676 239 700 b 344 868 239 808 258 868 b 454 756 414 868 454 829 l 617 756 b 350 1021 615 917 532 1021 z "},"š":{"ha":694,"x_min":0,"x_max":0,"o":"m 342 707 b 96 508 182 707 96 631 b 175 361 96 443 121 399 b 371 258 225 326 303 297 b 442 176 425 228 442 207 b 357 115 442 142 421 115 b 263 192 297 115 263 138 l 93 192 b 351 -14 97 58 192 -14 b 608 192 529 -14 608 75 b 515 360 608 269 574 322 b 319 450 460 394 382 418 b 256 521 268 476 256 494 b 342 583 256 553 272 583 b 425 519 400 583 422 561 l 589 519 b 342 707 575 643 489 707 z m 613 1042 l 468 1042 l 349 871 l 226 1042 l 81 1042 l 233 774 l 460 774 z "},"Ţ":{"ha":694,"x_min":0,"x_max":0,"o":"m 657 1007 l 38 1007 l 38 838 l 258 838 l 258 0 l 436 0 l 436 838 l 657 838 z m 269 -24 l 217 -304 l 335 -333 l 414 -60 z "},"ţ":{"ha":694,"x_min":0,"x_max":0,"o":"m 600 163 l 446 163 b 390 226 404 163 390 186 l 390 543 l 540 543 l 540 692 l 390 692 l 390 882 l 221 882 l 221 692 l 71 692 l 71 543 l 221 543 l 221 186 b 399 0 221 61 271 0 l 600 0 z m 329 -24 l 276 -304 l 394 -333 l 474 -60 z "},"Ť":{"ha":694,"x_min":0,"x_max":0,"o":"m 613 1333 l 468 1333 l 349 1183 l 226 1333 l 81 1333 l 233 1089 l 460 1089 z m 657 1007 l 38 1007 l 38 838 l 258 838 l 258 0 l 436 0 l 436 838 l 657 838 z "},"ť":{"ha":694,"x_min":0,"x_max":0,"o":"m 529 163 l 375 163 b 319 226 333 163 319 186 l 319 543 l 469 543 l 469 692 l 319 692 l 319 882 l 150 882 l 150 692 l 0 692 l 0 543 l 150 543 l 150 186 b 328 0 150 61 200 0 l 529 0 z m 531 1021 l 485 642 l 592 617 l 694 983 z "},"Ŧ":{"ha":694,"x_min":0,"x_max":0,"o":"m 628 401 l 628 540 l 436 540 l 436 838 l 657 838 l 657 1007 l 38 1007 l 38 838 l 258 838 l 258 540 l 65 540 l 65 401 l 258 401 l 258 0 l 436 0 l 436 401 z "},"ŧ":{"ha":694,"x_min":0,"x_max":0,"o":"m 600 289 l 600 428 l 390 428 l 390 543 l 540 543 l 540 692 l 390 692 l 390 882 l 221 882 l 221 692 l 71 692 l 71 543 l 221 543 l 221 428 l 38 428 l 38 289 l 221 289 l 221 186 b 399 0 221 61 271 0 l 600 0 l 600 163 l 446 163 b 390 226 404 163 390 186 l 390 289 z "},"Ũ":{"ha":694,"x_min":0,"x_max":0,"o":"m 492 1103 b 646 1181 553 1103 607 1126 l 646 1321 b 489 1240 589 1263 546 1240 b 201 1333 371 1240 322 1333 b 47 1256 140 1333 86 1310 l 47 1115 b 204 1196 104 1174 147 1196 b 492 1103 322 1196 371 1103 z m 646 1007 l 474 1007 l 474 296 b 349 147 474 186 415 147 b 226 296 281 147 226 186 l 226 1007 l 49 1007 l 49 286 b 349 -14 49 83 163 -14 b 646 286 529 -14 646 79 z "},"ũ":{"ha":694,"x_min":0,"x_max":0,"o":"m 639 692 l 475 692 l 475 268 b 349 142 475 176 410 142 b 225 268 288 142 225 176 l 225 692 l 56 692 l 56 256 b 350 -14 56 86 179 -14 b 639 256 519 -14 639 86 z m 492 797 b 646 875 553 797 607 821 l 646 1015 b 489 935 589 957 546 935 b 201 1028 371 935 322 1028 b 47 950 140 1028 86 1004 l 47 810 b 204 890 104 868 147 890 b 492 797 322 890 371 797 z "},"Ū":{"ha":694,"x_min":0,"x_max":0,"o":"m 628 1164 l 628 1303 l 65 1303 l 65 1164 z m 646 1007 l 474 1007 l 474 296 b 349 147 474 186 415 147 b 226 296 281 147 226 186 l 226 1007 l 49 1007 l 49 286 b 349 -14 49 83 163 -14 b 646 286 529 -14 646 79 z "},"ū":{"ha":694,"x_min":0,"x_max":0,"o":"m 639 692 l 475 692 l 475 268 b 349 142 475 176 410 142 b 225 268 288 142 225 176 l 225 692 l 56 692 l 56 256 b 350 -14 56 86 179 -14 b 639 256 519 -14 639 86 z m 628 849 l 628 988 l 65 988 l 65 849 z "},"Ů":{"ha":694,"x_min":0,"x_max":0,"o":"m 257 1176 b 347 1254 257 1232 292 1254 b 438 1176 403 1254 438 1232 b 347 1100 438 1122 403 1100 b 257 1176 292 1100 257 1122 z m 544 1176 b 347 1333 544 1281 472 1333 b 150 1176 222 1333 150 1281 b 347 1021 150 1074 222 1021 b 544 1176 472 1021 544 1074 z m 646 1007 l 474 1007 l 474 296 b 349 147 474 186 415 147 b 226 296 281 147 226 186 l 226 1007 l 49 1007 l 49 286 b 349 -14 49 83 163 -14 b 646 286 529 -14 646 79 z "},"ů":{"ha":694,"x_min":0,"x_max":0,"o":"m 639 692 l 475 692 l 475 268 b 349 142 475 176 410 142 b 225 268 288 142 225 176 l 225 692 l 56 692 l 56 256 b 350 -14 56 86 179 -14 b 639 256 519 -14 639 86 z m 257 878 b 347 958 257 935 292 958 b 438 878 403 958 438 935 b 347 797 438 821 403 797 b 257 878 292 797 257 821 z m 544 878 b 347 1042 544 986 472 1042 b 150 878 222 1042 150 986 b 347 714 150 769 222 714 b 544 878 472 714 544 769 z "},"Ű":{"ha":694,"x_min":0,"x_max":0,"o":"m 704 1333 l 511 1333 l 378 1089 l 524 1089 z m 399 1333 l 206 1333 l 72 1089 l 218 1089 z m 646 1007 l 474 1007 l 474 296 b 349 147 474 186 415 147 b 226 296 281 147 226 186 l 226 1007 l 49 1007 l 49 286 b 349 -14 49 83 163 -14 b 646 286 529 -14 646 79 z "},"ű":{"ha":694,"x_min":0,"x_max":0,"o":"m 639 692 l 475 692 l 475 268 b 349 142 475 176 410 142 b 225 268 288 142 225 176 l 225 692 l 56 692 l 56 256 b 350 -14 56 86 179 -14 b 639 256 519 -14 639 86 z m 704 1042 l 511 1042 l 378 774 l 524 774 z m 399 1042 l 206 1042 l 72 774 l 218 774 z "},"Ų":{"ha":694,"x_min":0,"x_max":0,"o":"m 514 -169 l 321 -169 b 286 -140 297 -169 286 -156 b 306 -111 286 -129 293 -119 l 542 39 b 646 286 610 82 646 167 l 646 1007 l 474 1007 l 474 296 b 349 147 474 186 415 147 b 226 296 281 147 226 186 l 226 1007 l 49 1007 l 49 286 b 304 -11 49 100 144 3 l 189 -87 b 119 -207 147 -115 119 -158 b 267 -333 119 -269 164 -333 l 514 -333 z "},"ų":{"ha":694,"x_min":0,"x_max":0,"o":"m 511 -169 l 318 -169 b 283 -140 294 -169 283 -156 b 303 -111 283 -129 290 -119 l 531 35 b 639 256 597 78 639 157 l 639 692 l 475 692 l 475 268 b 349 142 475 176 410 142 b 225 268 288 142 225 176 l 225 692 l 56 692 l 56 256 b 301 -11 56 103 156 6 l 186 -87 b 117 -207 144 -115 117 -158 b 264 -333 117 -269 161 -333 l 511 -333 z "},"Ŵ":{"ha":694,"x_min":0,"x_max":0,"o":"m 81 1089 l 225 1089 l 344 1239 l 467 1089 l 613 1089 l 460 1333 l 233 1333 z m 507 1007 l 453 454 l 349 846 l 243 454 l 190 1007 l 10 1007 l 118 0 l 256 0 l 349 414 l 439 0 l 572 0 l 686 1007 z "},"ŵ":{"ha":694,"x_min":0,"x_max":0,"o":"m 514 692 l 439 313 l 353 692 l 265 313 l 190 692 l 14 692 l 150 0 l 281 0 l 347 265 l 413 0 l 544 0 l 682 692 z m 81 774 l 225 774 l 344 944 l 467 774 l 613 774 l 460 1042 l 233 1042 z "},"Ŷ":{"ha":694,"x_min":0,"x_max":0,"o":"m 81 1089 l 225 1089 l 344 1239 l 467 1089 l 613 1089 l 460 1333 l 233 1333 z m 475 1007 l 351 643 l 226 1007 l 17 1007 l 258 401 l 258 0 l 436 0 l 436 401 l 679 1007 z "},"ŷ":{"ha":694,"x_min":0,"x_max":0,"o":"m 493 692 l 356 210 l 217 692 l 35 692 l 265 -35 l 190 -276 l 369 -276 l 660 692 z m 81 774 l 225 774 l 344 944 l 467 774 l 613 774 l 460 1042 l 233 1042 z "},"Ÿ":{"ha":694,"x_min":0,"x_max":0,"o":"m 181 1114 b 282 1219 247 1114 282 1161 b 181 1328 282 1278 247 1328 b 79 1219 114 1328 79 1278 b 181 1114 79 1161 114 1114 z m 514 1114 b 615 1219 581 1114 615 1161 b 514 1328 615 1278 581 1328 b 413 1219 447 1328 413 1278 b 514 1114 413 1161 447 1114 z m 475 1007 l 351 643 l 226 1007 l 17 1007 l 258 401 l 258 0 l 436 0 l 436 401 l 679 1007 z "},"Ϋ":{"ha":694,"x_min":0,"x_max":0,"o":"m 181 1114 b 282 1219 247 1114 282 1161 b 181 1328 282 1278 247 1328 b 79 1219 114 1328 79 1278 b 181 1114 79 1161 114 1114 z m 514 1114 b 615 1219 581 1114 615 1161 b 514 1328 615 1278 581 1328 b 413 1219 447 1328 413 1278 b 514 1114 413 1161 447 1114 z m 475 1007 l 351 643 l 226 1007 l 17 1007 l 258 401 l 258 0 l 436 0 l 436 401 l 679 1007 z "},"Ź":{"ha":694,"x_min":0,"x_max":0,"o":"m 551 1333 l 358 1333 l 225 1089 l 371 1089 z m 56 1007 l 56 838 l 390 838 l 31 0 l 640 0 l 640 169 l 303 169 l 654 1007 z "},"ź":{"ha":694,"x_min":0,"x_max":0,"o":"m 83 692 l 83 532 l 358 532 l 56 0 l 617 0 l 617 160 l 328 160 l 626 692 z m 551 1042 l 358 1042 l 225 774 l 371 774 z "},"Ż":{"ha":694,"x_min":0,"x_max":0,"o":"m 347 1114 b 449 1219 414 1114 449 1161 b 347 1328 449 1278 414 1328 b 246 1219 281 1328 246 1278 b 347 1114 246 1161 281 1114 z m 56 1007 l 56 838 l 390 838 l 31 0 l 640 0 l 640 169 l 303 169 l 654 1007 z "},"ż":{"ha":694,"x_min":0,"x_max":0,"o":"m 83 692 l 83 532 l 358 532 l 56 0 l 617 0 l 617 160 l 328 160 l 626 692 z m 347 799 b 449 904 414 799 449 846 b 347 1013 449 963 414 1013 b 246 904 281 1013 246 963 b 347 799 246 846 281 799 z "},"Ž":{"ha":694,"x_min":0,"x_max":0,"o":"m 613 1333 l 468 1333 l 349 1183 l 226 1333 l 81 1333 l 233 1089 l 460 1089 z m 56 1007 l 56 838 l 390 838 l 31 0 l 640 0 l 640 169 l 303 169 l 654 1007 z "},"ž":{"ha":694,"x_min":0,"x_max":0,"o":"m 83 692 l 83 532 l 358 532 l 56 0 l 617 0 l 617 160 l 328 160 l 626 692 z m 613 1042 l 468 1042 l 349 871 l 226 1042 l 81 1042 l 233 774 l 460 774 z "},"Ɔ":{"ha":694,"x_min":0,"x_max":0,"o":"m 340 -14 b 635 308 544 -14 635 115 l 635 699 b 340 1021 635 892 544 1021 b 60 754 171 1021 75 932 l 229 754 b 340 868 229 817 265 868 b 457 699 411 868 457 824 l 457 308 b 340 139 457 183 411 139 b 229 253 265 139 229 190 l 60 253 b 340 -14 75 75 171 -14 z "},"Ǝ":{"ha":694,"x_min":0,"x_max":0,"o":"m 114 838 l 447 838 l 447 579 l 142 579 l 142 417 l 447 417 l 447 169 l 114 169 l 114 0 l 625 0 l 625 1007 l 114 1007 z "},"Ə":{"ha":694,"x_min":0,"x_max":0,"o":"m 639 699 b 344 1021 639 892 549 1021 b 64 754 175 1021 79 932 l 233 754 b 344 868 233 817 269 868 b 461 699 415 868 461 824 l 461 551 l 56 551 l 56 308 b 347 -14 56 113 154 -14 b 639 308 540 -14 639 113 z m 461 308 b 347 139 461 185 415 139 b 233 308 279 139 233 185 l 233 403 l 461 403 z "},"Ә":{"ha":694,"x_min":0,"x_max":0,"o":"m 639 699 b 344 1021 639 892 549 1021 b 64 754 175 1021 79 932 l 233 754 b 344 868 233 817 269 868 b 461 699 415 868 461 824 l 461 551 l 56 551 l 56 308 b 347 -14 56 113 154 -14 b 639 308 540 -14 639 113 z m 461 308 b 347 139 461 185 415 139 b 233 308 279 139 233 185 l 233 403 l 461 403 z "},"Ɛ":{"ha":694,"x_min":0,"x_max":0,"o":"m 57 301 b 361 -14 57 108 169 -14 b 643 253 519 -14 629 71 l 474 253 b 360 139 474 189 436 139 b 233 300 278 139 233 196 b 361 456 233 408 281 456 l 442 456 l 442 585 l 365 585 b 239 725 279 585 239 628 b 361 868 239 828 285 868 b 472 754 446 868 472 819 l 643 754 b 361 1021 632 926 522 1021 b 72 736 168 1021 72 885 b 179 526 72 646 108 572 b 57 301 99 489 57 418 z "},"ƒ":{"ha":694,"x_min":0,"x_max":0,"o":"m 644 1007 l 425 1007 b 210 771 281 1007 210 942 l 210 692 l 63 692 l 63 532 l 210 532 l 210 -11 b 144 -108 210 -76 189 -108 l 25 -108 l 25 -276 l 164 -276 b 379 -11 301 -276 378 -187 l 379 532 l 536 532 l 536 692 l 379 692 l 379 763 b 464 847 379 821 400 847 l 644 847 z "},"Ɣ":{"ha":694,"x_min":0,"x_max":0,"o":"m 351 332 l 214 1007 l 25 1007 l 228 131 b 96 -86 142 97 96 25 b 347 -322 96 -242 188 -322 b 599 -86 506 -322 599 -242 b 467 129 599 24 551 97 l 669 1007 l 492 1007 z m 232 -86 b 347 29 232 -4 276 29 b 463 -86 418 29 463 -4 b 347 -203 463 -168 418 -203 b 232 -86 276 -203 232 -168 z "},"Ɲ":{"ha":694,"x_min":0,"x_max":0,"o":"m 625 1007 l 465 1007 l 465 457 l 275 1008 l 69 1007 l 69 -11 b 4 -108 69 -76 49 -108 l -26 -108 l -26 -276 l 32 -276 b 229 -11 169 -276 229 -187 l 229 589 l 454 0 l 625 0 z "},"Ơ":{"ha":694,"x_min":0,"x_max":0,"o":"m 347 -14 b 639 308 540 -14 639 113 l 639 699 b 560 939 639 800 613 882 b 772 1100 704 939 772 994 b 740 1204 772 1143 760 1181 l 563 1204 b 603 1097 597 1164 603 1135 b 518 1007 603 1029 585 1007 l 449 1007 b 347 1021 418 1015 385 1021 b 56 699 154 1021 56 894 l 56 308 b 347 -14 56 113 154 -14 z m 347 139 b 233 308 279 139 233 185 l 233 699 b 347 868 233 822 279 868 b 461 699 415 868 461 822 l 461 308 b 347 139 461 185 415 139 z "},"ơ":{"ha":694,"x_min":0,"x_max":0,"o":"m 319 707 b 21 346 138 707 21 550 b 319 -14 21 142 138 -14 b 618 346 501 -14 618 142 b 533 607 618 450 588 542 b 718 808 658 617 718 686 b 686 940 718 864 706 910 l 508 940 b 549 806 543 890 549 853 b 464 692 549 719 531 692 l 413 692 b 319 707 383 701 353 707 z m 319 554 b 454 346 399 554 454 464 b 319 138 454 228 399 138 b 185 346 240 138 185 228 b 319 554 185 464 240 554 z "},"Ư":{"ha":694,"x_min":0,"x_max":0,"o":"m 776 1100 b 744 1204 776 1143 764 1181 l 567 1204 b 607 1097 601 1164 607 1135 b 522 1007 607 1029 589 1007 l 474 1007 l 474 296 b 349 147 474 186 415 147 b 226 296 281 147 226 186 l 226 1007 l 49 1007 l 49 286 b 349 -14 49 83 163 -14 b 646 286 529 -14 646 79 l 646 946 b 776 1100 733 965 776 1017 z "},"ư":{"ha":694,"x_min":0,"x_max":0,"o":"m 461 268 b 335 142 461 176 396 142 b 211 268 274 142 211 176 l 211 692 l 42 692 l 42 256 b 336 -14 42 86 165 -14 b 625 256 506 -14 625 86 l 625 629 b 718 808 688 661 718 721 b 686 940 718 864 706 910 l 508 940 b 549 806 543 890 549 853 b 479 692 549 719 531 692 l 461 692 z "},"Ʒ":{"ha":694,"x_min":0,"x_max":0,"o":"m 56 1007 l 56 838 l 390 838 l 235 481 b 478 308 439 468 478 406 b 342 139 478 193 422 139 b 226 253 264 139 226 189 l 57 253 b 340 -14 71 71 181 -14 b 654 304 531 -14 654 107 b 474 579 654 457 579 540 l 654 1007 z "},"Ǧ":{"ha":694,"x_min":0,"x_max":0,"o":"m 613 1333 l 468 1333 l 349 1183 l 226 1333 l 81 1333 l 233 1089 l 460 1089 z m 614 569 l 354 569 l 354 425 l 436 425 l 436 285 b 342 139 436 182 403 139 b 233 308 281 139 233 182 l 233 699 b 350 868 233 824 279 868 b 461 754 425 868 461 817 l 631 754 b 350 1021 615 932 519 1021 b 56 699 146 1021 56 892 l 56 308 b 300 -14 56 114 147 -14 b 464 57 371 -14 438 14 l 464 0 l 614 0 z "},"ǧ":{"ha":694,"x_min":0,"x_max":0,"o":"m 283 707 b 46 351 106 707 46 561 b 283 -4 46 140 106 -4 b 456 65 349 -4 410 15 l 456 19 b 313 -139 456 -111 406 -139 b 114 -58 226 -139 175 -115 l 46 -183 b 311 -290 103 -250 186 -290 b 626 13 522 -290 626 -174 l 626 692 l 461 692 l 461 636 b 283 707 426 681 360 707 z m 456 231 b 322 136 415 171 376 136 b 214 351 251 136 214 197 b 321 567 214 504 251 567 b 456 475 378 567 431 524 z m 613 1042 l 468 1042 l 349 871 l 226 1042 l 81 1042 l 233 774 l 460 774 z "},"Ǯ":{"ha":694,"x_min":0,"x_max":0,"o":"m 626 1333 l 482 1333 l 363 1183 l 240 1333 l 94 1333 l 247 1089 l 474 1089 z m 56 1007 l 56 838 l 390 838 l 235 481 b 478 308 439 468 478 406 b 342 139 478 193 422 139 b 226 253 264 139 226 189 l 57 253 b 340 -14 71 71 181 -14 b 654 304 531 -14 654 107 b 474 579 654 457 579 540 l 654 1007 z "},"ǯ":{"ha":694,"x_min":0,"x_max":0,"o":"m 56 692 l 56 532 l 400 532 l 244 188 b 482 26 444 182 482 119 b 342 -140 482 -90 422 -140 b 226 -31 264 -140 226 -92 l 57 -31 b 340 -286 71 -206 181 -286 b 654 21 531 -286 654 -172 b 468 292 654 183 565 269 l 654 692 z m 626 1042 l 482 1042 l 363 871 l 240 1042 l 94 1042 l 247 774 l 474 774 z "},"Ǵ":{"ha":694,"x_min":0,"x_max":0,"o":"m 551 1333 l 358 1333 l 225 1089 l 371 1089 z m 614 569 l 354 569 l 354 425 l 436 425 l 436 285 b 342 139 436 182 403 139 b 233 308 281 139 233 182 l 233 699 b 350 868 233 824 279 868 b 461 754 425 868 461 817 l 631 754 b 350 1021 615 932 519 1021 b 56 699 146 1021 56 892 l 56 308 b 300 -14 56 114 147 -14 b 464 57 371 -14 438 14 l 464 0 l 614 0 z "},"ǵ":{"ha":694,"x_min":0,"x_max":0,"o":"m 283 707 b 46 351 106 707 46 561 b 283 -4 46 140 106 -4 b 456 65 349 -4 410 15 l 456 19 b 313 -139 456 -111 406 -139 b 114 -58 226 -139 175 -115 l 46 -183 b 311 -290 103 -250 186 -290 b 626 13 522 -290 626 -174 l 626 692 l 461 692 l 461 636 b 283 707 426 681 360 707 z m 456 231 b 322 136 415 171 376 136 b 214 351 251 136 214 197 b 321 567 214 504 251 567 b 456 475 378 567 431 524 z m 551 1042 l 358 1042 l 225 774 l 371 774 z "},"Ǹ":{"ha":694,"x_min":0,"x_max":0,"o":"m 322 1089 l 468 1089 l 335 1333 l 142 1333 z m 625 1007 l 465 1007 l 465 457 l 275 1007 l 69 1007 l 69 0 l 229 0 l 229 589 l 454 0 l 625 0 z "},"ǹ":{"ha":694,"x_min":0,"x_max":0,"o":"m 642 464 b 421 707 642 632 572 707 b 233 636 333 707 272 682 l 233 692 l 69 692 l 69 0 l 239 0 l 239 475 b 378 567 268 521 307 567 b 472 443 436 567 472 536 l 472 0 l 642 0 z m 336 774 l 482 774 l 349 1042 l 156 1042 z "},"Ɂ":{"ha":694,"x_min":0,"x_max":0,"o":"m 408 382 b 503 533 408 449 426 465 b 631 769 586 608 631 668 b 363 1021 631 910 543 1021 b 90 731 206 1021 96 938 l 253 731 b 356 869 257 832 289 869 b 453 761 424 869 453 831 b 343 603 453 692 424 667 b 231 354 274 547 231 483 l 231 0 l 408 0 z "},"ɂ":{"ha":694,"x_min":0,"x_max":0,"o":"m 404 42 b 503 219 404 124 432 151 b 631 453 579 293 631 343 b 363 707 631 597 543 707 b 90 417 206 707 96 624 l 244 417 b 356 556 249 518 289 556 b 461 451 424 556 461 515 b 343 289 461 388 424 354 b 235 40 271 231 235 172 l 235 0 l 404 0 z "},"Ɍ":{"ha":694,"x_min":0,"x_max":0,"o":"m 97 1007 l 97 513 l 0 513 l 0 374 l 97 374 l 97 0 l 278 0 l 278 404 l 488 0 l 694 0 l 483 403 b 674 700 603 435 674 543 b 376 1007 674 899 561 1007 z m 278 838 l 340 838 b 490 683 439 838 490 803 b 361 513 490 568 442 513 l 278 513 z "},"ɍ":{"ha":694,"x_min":0,"x_max":0,"o":"m 563 233 l 563 372 l 265 372 l 265 444 b 401 567 283 514 333 567 b 499 472 465 567 488 521 l 649 546 b 460 707 640 642 569 707 b 260 599 382 707 314 675 l 260 692 l 106 692 l 106 372 l 0 372 l 0 233 l 106 233 l 106 0 l 265 0 l 265 233 z "},"ɔ":{"ha":694,"x_min":0,"x_max":0,"o":"m 315 -14 b 640 344 524 -14 640 139 b 314 707 640 550 524 707 b 49 538 196 707 94 657 l 189 485 b 321 554 206 522 258 554 b 471 344 419 554 471 474 b 322 139 471 215 419 139 b 189 208 258 139 206 171 l 49 156 b 315 -14 94 36 196 -14 z "},"ɛ":{"ha":694,"x_min":0,"x_max":0,"o":"m 368 707 b 74 503 171 707 74 617 b 156 363 74 456 90 399 b 58 207 99 333 58 286 b 342 -14 58 83 157 -14 b 643 147 525 -14 606 50 l 503 200 b 347 126 483 164 435 126 b 236 208 272 126 236 154 b 350 281 236 260 269 281 l 446 281 l 446 424 l 350 424 b 242 490 282 424 242 440 b 351 565 242 538 278 565 b 504 492 432 565 482 533 l 644 544 b 368 707 596 656 517 707 z "},"ɣ":{"ha":694,"x_min":0,"x_max":0,"o":"m 493 692 l 357 228 l 217 692 l 33 692 l 221 103 b 104 -99 146 71 104 3 b 347 -322 104 -246 193 -322 b 590 -99 501 -322 590 -246 b 474 103 590 3 549 69 l 661 692 z m 236 -99 b 347 13 236 -19 279 13 b 458 -99 415 13 458 -19 b 347 -208 458 -176 415 -208 b 236 -99 279 -208 236 -176 z "},"ɲ":{"ha":694,"x_min":0,"x_max":0,"o":"m 642 464 b 421 707 642 632 572 707 b 233 636 333 707 272 682 l 233 692 l 69 692 l 69 -11 b 4 -108 69 -76 49 -108 l -87 -108 l -87 -276 l 32 -276 b 239 -11 169 -276 239 -187 l 239 475 b 378 567 268 521 307 567 b 472 443 436 567 472 536 l 472 0 l 642 0 z "},"ʒ":{"ha":694,"x_min":0,"x_max":0,"o":"m 56 692 l 56 532 l 400 532 l 244 188 b 482 26 444 182 482 119 b 342 -140 482 -90 422 -140 b 226 -31 264 -140 226 -92 l 57 -31 b 340 -286 71 -206 181 -286 b 654 21 531 -286 654 -172 b 468 292 654 183 565 269 l 654 692 z "},"ˆ":{"ha":694,"x_min":0,"x_max":0,"o":"m 81 774 l 225 774 l 344 944 l 467 774 l 613 774 l 460 1042 l 233 1042 z "},"ˇ":{"ha":694,"x_min":0,"x_max":0,"o":"m 613 1042 l 468 1042 l 349 871 l 226 1042 l 81 1042 l 233 774 l 460 774 z "},"˘":{"ha":694,"x_min":0,"x_max":0,"o":"m 347 757 b 615 1042 543 757 615 843 l 461 1042 b 347 853 461 894 415 853 b 233 1042 279 853 233 894 l 79 1042 b 347 757 79 843 151 757 z "},"˙":{"ha":694,"x_min":0,"x_max":0,"o":"m 347 799 b 449 904 414 799 449 846 b 347 1013 449 963 414 1013 b 246 904 281 1013 246 963 b 347 799 246 846 281 799 z "},"˚":{"ha":694,"x_min":0,"x_max":0,"o":"m 257 878 b 347 958 257 935 292 958 b 438 878 403 958 438 935 b 347 797 438 821 403 797 b 257 878 292 797 257 821 z m 544 878 b 347 1042 544 986 472 1042 b 150 878 222 1042 150 986 b 347 714 150 769 222 714 b 544 878 472 714 544 769 z "},"˛":{"ha":694,"x_min":0,"x_max":0,"o":"m 536 -169 l 343 -169 b 308 -140 319 -169 308 -156 b 328 -111 308 -129 314 -118 l 536 0 l 376 0 l 211 -87 b 142 -207 167 -111 142 -158 b 289 -333 142 -269 186 -333 l 536 -333 z "},"˜":{"ha":694,"x_min":0,"x_max":0,"o":"m 492 797 b 646 875 553 797 607 821 l 646 1015 b 489 935 589 957 546 935 b 201 1028 371 935 322 1028 b 47 950 140 1028 86 1004 l 47 810 b 204 890 104 868 147 890 b 492 797 322 890 371 797 z "},"˝":{"ha":694,"x_min":0,"x_max":0,"o":"m 663 1042 l 469 1042 l 336 774 l 482 774 z m 357 1042 l 164 1042 l 31 774 l 176 774 z "},"̀":{"ha":694,"x_min":0,"x_max":0,"o":"m 364 774 l 510 774 l 376 1042 l 183 1042 z "},"́":{"ha":694,"x_min":0,"x_max":0,"o":"m 510 1042 l 317 1042 l 183 774 l 329 774 z "},"̂":{"ha":694,"x_min":0,"x_max":0,"o":"m 81 774 l 225 774 l 344 944 l 467 774 l 613 774 l 460 1042 l 233 1042 z "},"̃":{"ha":694,"x_min":0,"x_max":0,"o":"m 492 797 b 646 875 553 797 607 821 l 646 1015 b 489 935 589 957 546 935 b 201 1028 371 935 322 1028 b 47 950 140 1028 86 1004 l 47 810 b 204 890 104 868 147 890 b 492 797 322 890 371 797 z "},"̄":{"ha":694,"x_min":0,"x_max":0,"o":"m 628 849 l 628 988 l 65 988 l 65 849 z "},"̆":{"ha":694,"x_min":0,"x_max":0,"o":"m 347 757 b 615 1042 543 757 615 843 l 461 1042 b 347 853 461 894 415 853 b 233 1042 279 853 233 894 l 79 1042 b 347 757 79 843 151 757 z "},"̇":{"ha":694,"x_min":0,"x_max":0,"o":"m 347 799 b 449 904 414 799 449 846 b 347 1013 449 963 414 1013 b 246 904 281 1013 246 963 b 347 799 246 846 281 799 z "},"̈":{"ha":694,"x_min":0,"x_max":0,"o":"m 181 799 b 282 904 247 799 282 846 b 181 1013 282 963 247 1013 b 79 904 114 1013 79 963 b 181 799 79 846 114 799 z m 514 799 b 615 904 581 799 615 846 b 514 1013 615 963 581 1013 b 413 904 447 1013 413 963 b 514 799 413 846 447 799 z "},"̉":{"ha":694,"x_min":0,"x_max":0,"o":"m 349 1018 b 160 856 246 1018 176 978 l 274 856 b 338 907 281 890 296 907 b 388 872 374 907 388 896 b 289 726 388 807 289 814 l 399 726 b 533 889 399 794 533 778 b 349 1018 533 965 467 1018 z "},"̊":{"ha":694,"x_min":0,"x_max":0,"o":"m 257 878 b 347 958 257 935 292 958 b 438 878 403 958 438 935 b 347 797 438 821 403 797 b 257 878 292 797 257 821 z m 544 878 b 347 1042 544 986 472 1042 b 150 878 222 1042 150 986 b 347 714 150 769 222 714 b 544 878 472 714 544 769 z "},"̋":{"ha":694,"x_min":0,"x_max":0,"o":"m 663 1042 l 469 1042 l 336 774 l 482 774 z m 357 1042 l 164 1042 l 31 774 l 176 774 z "},"̌":{"ha":694,"x_min":0,"x_max":0,"o":"m 613 1042 l 468 1042 l 349 871 l 226 1042 l 81 1042 l 233 774 l 460 774 z "},"̓":{"ha":694,"x_min":0,"x_max":0,"o":"m 299 1165 l 253 786 l 360 761 l 463 1128 z "},"̛":{"ha":694,"x_min":0,"x_max":0,"o":"m 524 606 l 576 606 b 792 808 722 606 792 676 b 760 940 792 864 779 910 l 582 940 b 622 806 617 890 622 853 b 538 692 622 719 604 692 l 524 692 z "},"̣":{"ha":694,"x_min":0,"x_max":0,"o":"m 347 -333 b 449 -228 414 -333 449 -286 b 347 -119 449 -169 414 -119 b 246 -228 281 -119 246 -169 b 347 -333 246 -286 281 -333 z "},"̦":{"ha":694,"x_min":0,"x_max":0,"o":"m 290 -24 l 238 -304 l 356 -333 l 435 -60 z "},"̧":{"ha":694,"x_min":0,"x_max":0,"o":"m 290 -24 l 238 -304 l 356 -333 l 435 -60 z "},"̨":{"ha":694,"x_min":0,"x_max":0,"o":"m 536 -169 l 343 -169 b 308 -140 319 -169 308 -156 b 328 -111 308 -129 314 -118 l 536 0 l 376 0 l 211 -87 b 142 -207 167 -111 142 -158 b 289 -333 142 -269 186 -333 l 536 -333 z "},"̭":{"ha":694,"x_min":0,"x_max":0,"o":"m 81 -333 l 225 -333 l 344 -162 l 467 -333 l 613 -333 l 460 -65 l 233 -65 z "},"΄":{"ha":694,"x_min":0,"x_max":0,"o":"m 310 774 l 444 774 l 418 1042 l 246 1042 z "},"΅":{"ha":694,"x_min":0,"x_max":0,"o":"m 310 774 l 444 774 l 418 1042 l 246 1042 z m 101 799 b 203 904 168 799 203 846 b 101 1013 203 963 168 1013 b 0 904 35 1013 0 963 b 101 799 0 846 35 799 z m 593 799 b 694 904 660 799 694 846 b 593 1013 694 963 660 1013 b 492 904 526 1013 492 963 b 593 799 492 846 526 799 z "},"Ά":{"ha":694,"x_min":0,"x_max":0,"o":"m 64 774 l 199 774 l 172 1042 l 0 1042 z m 506 0 l 694 0 l 461 1007 l 282 1007 l 50 0 l 228 0 l 258 151 l 474 151 z m 368 675 l 440 319 l 293 319 z "},"·":{"ha":694,"x_min":0,"x_max":0,"o":"m 450 596 b 349 707 450 656 417 707 b 244 596 281 707 244 656 b 349 488 244 536 281 488 b 450 596 417 488 450 536 z "},"Έ":{"ha":694,"x_min":0,"x_max":0,"o":"m 35 774 l 169 774 l 143 1042 l -29 1042 z m 694 169 l 361 169 l 361 428 l 667 428 l 667 590 l 361 590 l 361 838 l 694 838 l 694 1007 l 183 1007 l 183 0 l 694 0 z "},"Ή":{"ha":694,"x_min":0,"x_max":0,"o":"m -4 774 l 131 774 l 104 1042 l -68 1042 z m 694 1007 l 517 1007 l 517 604 l 322 604 l 322 1007 l 144 1007 l 144 0 l 322 0 l 322 435 l 517 435 l 517 0 l 694 0 z "},"Ί":{"ha":694,"x_min":0,"x_max":0,"o":"m 64 774 l 199 774 l 172 1042 l 0 1042 z m 213 838 l 360 838 l 360 169 l 213 169 l 213 0 l 685 0 l 685 169 l 538 169 l 538 838 l 685 838 l 685 1007 l 213 1007 z "},"Ό":{"ha":694,"x_min":0,"x_max":0,"o":"m -32 774 l 103 774 l 76 1042 l -96 1042 z m 403 139 b 289 308 335 139 289 185 l 289 699 b 403 868 289 822 335 868 b 517 699 471 868 517 822 l 517 308 b 403 139 517 185 471 139 z m 403 -14 b 694 308 596 -14 694 113 l 694 699 b 403 1021 694 894 596 1021 b 111 699 210 1021 111 894 l 111 308 b 403 -14 111 113 210 -14 z "},"Ύ":{"ha":694,"x_min":0,"x_max":0,"o":"m -94 774 l 40 774 l 14 1042 l -158 1042 z m 490 1007 l 367 643 l 242 1007 l 32 1007 l 274 401 l 274 0 l 451 0 l 451 401 l 694 1007 z "},"Ώ":{"ha":694,"x_min":0,"x_max":0,"o":"m -51 774 l 83 774 l 57 1042 l -115 1042 z m 385 868 b 500 699 454 868 500 822 l 500 492 b 419 326 500 406 475 360 l 419 0 l 694 0 l 694 178 l 521 178 l 521 224 b 678 546 618 275 678 394 l 678 699 b 385 1021 678 894 579 1021 b 92 699 190 1021 92 894 l 92 546 b 249 224 92 394 151 275 l 249 178 l 75 178 l 75 0 l 350 0 l 350 326 b 269 492 294 360 269 406 l 269 699 b 385 868 269 822 315 868 z "},"ΐ":{"ha":694,"x_min":0,"x_max":0,"o":"m 599 163 l 500 163 b 444 226 458 163 444 186 l 444 692 l 119 692 l 119 543 l 275 543 l 275 186 b 453 0 275 61 325 0 l 599 0 z m 310 774 l 444 774 l 418 1042 l 246 1042 z m 101 799 b 203 904 168 799 203 846 b 101 1013 203 963 168 1013 b 0 904 35 1013 0 963 b 101 799 0 846 35 799 z m 593 799 b 694 904 660 799 694 846 b 593 1013 694 963 660 1013 b 492 904 526 1013 492 963 b 593 799 492 846 526 799 z "},"Δ":{"ha":694,"x_min":0,"x_max":0,"o":"m 669 0 l 436 1007 l 257 1007 l 25 0 z m 335 721 l 446 169 l 221 169 z "},"Θ":{"ha":694,"x_min":0,"x_max":0,"o":"m 347 139 b 215 308 279 139 215 185 l 215 699 b 347 868 215 822 279 868 b 479 699 415 868 479 822 l 479 308 b 347 139 479 185 415 139 z m 347 -14 b 639 308 540 -14 639 113 l 639 699 b 347 1021 639 894 540 1021 b 56 699 154 1021 56 894 l 56 308 b 347 -14 56 113 154 -14 z m 433 594 l 261 594 l 261 436 l 433 436 z "},"Λ":{"ha":694,"x_min":0,"x_max":0,"o":"m 343 675 l 481 0 l 669 0 l 436 1007 l 257 1007 l 25 0 l 203 0 z "},"Ξ":{"ha":694,"x_min":0,"x_max":0,"o":"m 576 428 l 576 590 l 118 590 l 118 428 z m 604 838 l 604 1007 l 90 1007 l 90 838 z m 604 0 l 604 169 l 90 169 l 90 0 z "},"Π":{"ha":694,"x_min":0,"x_max":0,"o":"m 622 1007 l 72 1007 l 72 0 l 250 0 l 250 838 l 444 838 l 444 0 l 622 0 z "},"П":{"ha":694,"x_min":0,"x_max":0,"o":"m 622 1007 l 72 1007 l 72 0 l 250 0 l 250 838 l 444 838 l 444 0 l 622 0 z "},"Σ":{"ha":694,"x_min":0,"x_max":0,"o":"m 440 513 l 301 838 l 603 838 l 603 1007 l 35 1007 l 253 494 l 35 0 l 603 0 l 603 169 l 297 169 z "},"Φ":{"ha":694,"x_min":0,"x_max":0,"o":"m 261 1007 l 261 871 b 14 554 69 846 14 726 l 14 449 b 261 131 14 276 69 157 l 261 0 l 433 0 l 433 131 b 681 449 625 157 681 276 l 681 554 b 433 871 681 726 625 846 l 433 1007 z m 428 714 b 511 554 492 696 511 646 l 511 449 b 428 288 511 356 492 307 z m 267 714 l 267 288 b 183 449 201 307 183 356 l 183 554 b 267 714 183 646 201 696 z "},"Ф":{"ha":694,"x_min":0,"x_max":0,"o":"m 261 1007 l 261 871 b 14 554 69 846 14 726 l 14 449 b 261 131 14 276 69 157 l 261 0 l 433 0 l 433 131 b 681 449 625 157 681 276 l 681 554 b 433 871 681 726 625 846 l 433 1007 z m 428 714 b 511 554 492 696 511 646 l 511 449 b 428 288 511 356 492 307 z m 267 714 l 267 288 b 183 449 201 307 183 356 l 183 554 b 267 714 183 646 201 696 z "},"Ψ":{"ha":694,"x_min":0,"x_max":0,"o":"m 261 269 l 261 0 l 433 0 l 433 269 b 681 588 625 296 681 415 l 681 879 l 511 879 l 511 588 b 428 426 511 494 492 446 l 428 1007 l 267 1007 l 267 426 b 183 588 201 446 183 494 l 183 879 l 14 879 l 14 588 b 261 269 14 415 69 296 z "},"Ȗ":{"ha":694,"x_min":0,"x_max":0,"o":"m 347 868 b 463 699 417 868 463 822 l 463 492 b 382 326 463 406 438 360 l 382 0 l 657 0 l 657 178 l 483 178 l 483 224 b 640 546 581 275 640 394 l 640 699 b 347 1021 640 894 542 1021 b 54 699 153 1021 54 894 l 54 546 b 211 224 54 394 114 275 l 211 178 l 38 178 l 38 0 l 313 0 l 313 326 b 232 492 257 360 232 406 l 232 699 b 347 868 232 822 278 868 z "},"Ω":{"ha":694,"x_min":0,"x_max":0,"o":"m 347 868 b 463 699 417 868 463 822 l 463 492 b 382 326 463 406 438 360 l 382 0 l 657 0 l 657 178 l 483 178 l 483 224 b 640 546 581 275 640 394 l 640 699 b 347 1021 640 894 542 1021 b 54 699 153 1021 54 894 l 54 546 b 211 224 54 394 114 275 l 211 178 l 38 178 l 38 0 l 313 0 l 313 326 b 232 492 257 360 232 406 l 232 699 b 347 868 232 822 278 868 z "},"ά":{"ha":694,"x_min":0,"x_max":0,"o":"m 269 707 b 31 347 90 707 31 554 b 265 -14 31 139 90 -14 b 472 78 343 -14 426 17 b 618 0 504 26 553 0 l 679 0 l 679 163 l 657 163 b 610 226 625 163 610 183 l 610 692 l 446 692 l 446 636 b 269 707 411 681 346 707 z m 440 215 b 307 125 408 164 363 125 b 200 346 236 125 200 186 b 306 567 200 503 235 567 b 440 475 363 567 414 524 z m 292 774 l 426 774 l 400 1042 l 228 1042 z "},"έ":{"ha":694,"x_min":0,"x_max":0,"o":"m 364 707 b 69 503 167 707 69 617 b 151 363 69 456 86 399 b 54 206 94 333 54 286 b 349 -14 54 83 147 -14 b 646 147 519 -14 613 56 l 506 200 b 343 126 486 164 431 126 b 232 208 268 126 232 154 b 346 281 232 260 265 281 l 392 281 l 392 424 l 346 424 b 238 490 278 424 238 440 b 347 565 238 538 274 565 b 492 492 428 565 469 533 l 632 544 b 364 707 583 656 513 707 z m 300 774 l 435 774 l 408 1042 l 236 1042 z "},"ή":{"ha":694,"x_min":0,"x_max":0,"o":"m 642 464 b 421 707 642 632 572 707 b 233 636 333 707 272 682 l 233 692 l 69 692 l 69 0 l 239 0 l 239 475 b 378 567 268 521 307 567 b 472 443 436 567 472 536 l 472 -276 l 642 -276 z m 306 774 l 440 774 l 414 1042 l 242 1042 z "},"ί":{"ha":694,"x_min":0,"x_max":0,"o":"m 586 163 l 488 163 b 432 226 446 163 432 186 l 432 692 l 107 692 l 107 543 l 263 543 l 263 186 b 440 0 263 61 313 0 l 586 0 z m 306 774 l 440 774 l 414 1042 l 242 1042 z "},"ΰ":{"ha":694,"x_min":0,"x_max":0,"o":"m 657 692 l 493 692 l 493 268 b 367 142 493 176 428 142 b 243 268 306 142 243 176 l 243 560 b 101 692 243 647 196 692 l 8 692 l 8 532 l 46 532 b 74 504 64 532 74 522 l 74 256 b 368 -14 74 85 197 -14 b 657 256 538 -14 657 85 z m 310 774 l 444 774 l 418 1042 l 246 1042 z m 101 799 b 203 904 168 799 203 846 b 101 1013 203 963 168 1013 b 0 904 35 1013 0 963 b 101 799 0 846 35 799 z m 593 799 b 694 904 660 799 694 846 b 593 1013 694 963 660 1013 b 492 904 526 1013 492 963 b 593 799 492 846 526 799 z "},"α":{"ha":694,"x_min":0,"x_max":0,"o":"m 269 707 b 31 347 90 707 31 554 b 265 -14 31 139 90 -14 b 472 78 343 -14 426 17 b 618 0 504 26 553 0 l 679 0 l 679 163 l 657 163 b 610 226 625 163 610 183 l 610 692 l 446 692 l 446 636 b 269 707 411 681 346 707 z m 440 215 b 307 125 408 164 363 125 b 200 346 236 125 200 186 b 306 567 200 503 235 567 b 440 475 363 567 414 524 z "},"β":{"ha":694,"x_min":0,"x_max":0,"o":"m 333 0 b 651 289 578 0 651 129 b 515 531 651 431 593 504 b 619 740 578 556 619 624 b 342 1021 619 918 522 1021 b 69 764 160 1021 69 915 l 69 -276 l 239 -276 l 239 0 z m 239 740 b 347 869 239 821 269 869 b 456 733 426 869 456 819 b 347 589 456 642 424 589 l 324 589 l 324 464 l 347 464 b 482 311 425 464 482 424 b 333 161 482 206 432 161 l 239 161 z "},"γ":{"ha":694,"x_min":0,"x_max":0,"o":"m 493 692 l 357 228 l 217 692 l 33 692 l 263 -14 l 263 -276 l 432 -276 l 432 -14 l 661 692 z "},"δ":{"ha":694,"x_min":0,"x_max":0,"o":"m 335 1021 b 81 825 167 1021 81 940 b 229 647 81 746 121 690 b 49 338 103 607 49 475 b 347 -14 49 136 165 -14 b 646 336 529 -14 646 138 b 524 625 646 464 597 563 b 240 835 414 718 240 744 b 338 897 240 867 263 897 b 436 829 399 897 433 876 l 600 829 b 335 1021 586 950 492 1021 z m 347 542 b 482 339 426 542 482 454 b 347 138 482 225 426 138 b 213 339 268 138 213 225 b 347 542 213 454 268 542 z "},"ε":{"ha":694,"x_min":0,"x_max":0,"o":"m 364 707 b 69 503 167 707 69 617 b 151 363 69 456 86 399 b 54 206 94 333 54 286 b 349 -14 54 83 147 -14 b 646 147 519 -14 613 56 l 506 200 b 343 126 486 164 431 126 b 232 208 268 126 232 154 b 346 281 232 260 265 281 l 392 281 l 392 424 l 346 424 b 238 490 278 424 238 440 b 347 565 238 538 274 565 b 492 492 428 565 469 533 l 632 544 b 364 707 583 656 513 707 z "},"ζ":{"ha":694,"x_min":0,"x_max":0,"o":"m 58 1007 l 58 847 l 314 847 l 181 651 b 49 314 86 513 49 428 b 375 -14 49 156 117 13 b 460 -60 443 -21 460 -32 b 404 -108 460 -92 444 -108 l 249 -108 l 249 -276 l 418 -276 b 618 -67 556 -276 618 -199 b 404 131 618 88 533 104 b 218 297 265 158 218 197 b 335 601 218 408 254 478 l 601 1007 z "},"η":{"ha":694,"x_min":0,"x_max":0,"o":"m 642 464 b 421 707 642 632 572 707 b 233 636 333 707 272 682 l 233 692 l 69 692 l 69 0 l 239 0 l 239 475 b 378 567 268 521 307 567 b 472 443 436 567 472 536 l 472 -276 l 642 -276 z "},"θ":{"ha":694,"x_min":0,"x_max":0,"o":"m 347 -14 b 639 308 540 -14 639 113 l 639 699 b 347 1021 639 894 540 1021 b 56 699 154 1021 56 894 l 56 308 b 347 -14 56 113 154 -14 z m 347 146 b 221 315 279 146 221 192 l 221 435 l 474 435 l 474 315 b 347 146 474 192 415 146 z m 221 692 b 347 861 221 815 279 861 b 474 692 415 861 474 815 l 474 594 l 221 594 z "},"ι":{"ha":694,"x_min":0,"x_max":0,"o":"m 586 163 l 488 163 b 432 226 446 163 432 186 l 432 692 l 107 692 l 107 543 l 263 543 l 263 186 b 440 0 263 61 313 0 l 586 0 z "},"λ":{"ha":694,"x_min":0,"x_max":0,"o":"m 660 0 l 358 1007 l 175 1007 l 263 718 l 35 0 l 213 0 l 351 482 l 489 0 z "},"μ":{"ha":694,"x_min":0,"x_max":0,"o":"m 672 146 l 651 146 b 608 190 622 146 608 161 l 608 692 l 439 692 l 439 249 b 358 125 439 160 413 125 b 222 222 297 125 250 168 l 222 692 l 53 692 l 53 -276 l 229 -276 l 201 63 b 388 -14 244 14 313 -14 b 531 51 468 -14 503 18 b 628 0 550 18 585 0 l 672 0 z "},"ν":{"ha":694,"x_min":0,"x_max":0,"o":"m 503 692 l 367 228 l 269 551 b 86 692 238 654 199 692 l 19 692 l 19 532 l 69 532 b 103 504 85 532 99 518 l 264 0 l 451 0 l 671 692 z "},"ξ":{"ha":694,"x_min":0,"x_max":0,"o":"m 371 1021 b 89 739 193 1021 89 918 b 193 531 89 625 131 556 b 57 292 117 504 57 413 b 383 -14 57 132 161 7 b 468 -60 447 -19 468 -22 b 413 -108 468 -92 453 -108 l 257 -108 l 257 -276 l 426 -276 b 626 -65 564 -276 626 -199 b 413 131 626 89 542 106 b 226 307 268 158 226 213 b 361 464 226 417 283 464 l 385 464 l 385 589 l 361 589 b 253 729 285 589 253 643 b 372 869 253 818 288 869 b 494 799 442 869 478 836 l 635 851 b 371 1021 589 971 494 1021 z "},"π":{"ha":694,"x_min":0,"x_max":0,"o":"m 671 146 l 639 146 b 596 190 610 146 596 161 l 596 532 l 671 532 l 671 692 l 24 692 l 24 532 l 92 532 l 92 0 l 261 0 l 261 532 l 428 532 l 428 142 b 586 0 428 53 481 0 l 671 0 z "},"ρ":{"ha":694,"x_min":0,"x_max":0,"o":"m 239 344 b 358 554 239 461 276 554 b 485 329 433 554 485 476 b 371 125 485 196 443 125 b 239 215 317 125 271 164 z m 360 707 b 69 346 175 707 69 551 l 69 -276 l 239 -276 l 239 49 b 408 -14 283 4 347 -14 b 649 322 589 -14 649 144 b 360 707 649 572 531 707 z "},"ς":{"ha":694,"x_min":0,"x_max":0,"o":"m 372 707 b 49 338 165 707 49 560 b 375 -14 49 158 139 8 b 460 -60 439 -19 460 -22 b 404 -108 460 -92 444 -108 l 249 -108 l 249 -276 l 418 -276 b 618 -67 556 -276 618 -199 b 404 131 618 88 533 107 b 218 343 261 157 218 215 b 367 554 218 481 269 554 b 500 485 431 554 483 522 l 640 538 b 372 707 594 657 493 707 z "},"σ":{"ha":694,"x_min":0,"x_max":0,"o":"m 694 532 l 694 692 l 329 692 b 31 339 147 692 31 538 b 329 -14 31 139 147 -14 b 628 339 511 -14 628 139 b 583 532 628 411 613 476 z m 332 532 b 469 335 413 532 469 446 b 332 138 469 224 413 138 b 194 335 251 138 194 224 b 332 532 194 446 251 532 z "},"τ":{"ha":694,"x_min":0,"x_max":0,"o":"m 61 692 l 61 532 l 263 532 l 263 186 b 440 0 263 61 313 0 l 586 0 l 586 163 l 486 163 b 431 226 444 163 431 186 l 431 532 l 632 532 l 632 692 z "},"υ":{"ha":694,"x_min":0,"x_max":0,"o":"m 657 692 l 493 692 l 493 268 b 367 142 493 176 428 142 b 243 268 306 142 243 176 l 243 560 b 101 692 243 647 196 692 l 8 692 l 8 532 l 46 532 b 74 504 64 532 74 522 l 74 256 b 368 -14 74 85 197 -14 b 657 256 538 -14 657 85 z "},"φ":{"ha":694,"x_min":0,"x_max":0,"o":"m 264 1007 l 264 692 b 14 375 72 667 14 547 l 14 318 b 264 0 14 146 72 26 l 264 -276 l 431 -276 l 431 0 b 681 318 622 26 681 146 l 681 375 b 431 692 681 547 622 667 l 431 1007 z m 425 535 b 514 375 489 517 514 467 l 514 318 b 425 157 514 225 489 176 z m 269 535 l 269 157 b 181 318 204 176 181 225 l 181 375 b 269 535 181 467 204 517 z "},"ф":{"ha":694,"x_min":0,"x_max":0,"o":"m 264 1007 l 264 692 b 14 375 72 667 14 547 l 14 318 b 264 0 14 146 72 26 l 264 -276 l 431 -276 l 431 0 b 681 318 622 26 681 146 l 681 375 b 431 692 681 547 622 667 l 431 1007 z m 425 535 b 514 375 489 517 514 467 l 514 318 b 425 157 514 225 489 176 z m 269 535 l 269 157 b 181 318 204 176 181 225 l 181 375 b 269 535 181 467 204 517 z "},"χ":{"ha":694,"x_min":0,"x_max":0,"o":"m 446 226 l 632 692 l 465 692 l 346 376 l 233 692 l 67 692 l 246 221 l 56 -276 l 228 -276 l 351 76 l 469 -276 l 639 -276 z "},"ψ":{"ha":694,"x_min":0,"x_max":0,"o":"m 14 692 l 14 318 b 264 0 14 146 72 26 l 264 -276 l 431 -276 l 431 0 b 681 318 622 26 681 146 l 681 692 l 514 692 l 514 318 b 431 157 514 225 494 176 l 431 839 l 264 839 l 264 157 b 181 318 199 176 181 225 l 181 692 z "},"ω":{"ha":694,"x_min":0,"x_max":0,"o":"m 15 197 b 217 -14 15 56 117 -14 b 346 54 263 -14 310 8 b 476 -14 383 8 429 -14 b 678 197 576 -14 678 56 l 678 692 l 514 692 l 514 197 b 468 142 514 161 490 142 b 422 197 444 142 422 160 l 422 526 l 271 526 l 271 197 b 225 142 271 160 249 142 b 179 197 203 142 179 161 l 179 692 l 15 692 z "},"ϊ":{"ha":694,"x_min":0,"x_max":0,"o":"m 586 163 l 488 163 b 432 226 446 163 432 186 l 432 692 l 107 692 l 107 543 l 263 543 l 263 186 b 440 0 263 61 313 0 l 586 0 z m 175 799 b 276 904 242 799 276 846 b 175 1013 276 963 242 1013 b 74 904 108 1013 74 963 b 175 799 74 846 108 799 z m 508 799 b 610 904 575 799 610 846 b 508 1013 610 963 575 1013 b 407 904 442 1013 407 963 b 508 799 407 846 442 799 z "},"ϋ":{"ha":694,"x_min":0,"x_max":0,"o":"m 657 692 l 493 692 l 493 268 b 367 142 493 176 428 142 b 243 268 306 142 243 176 l 243 560 b 101 692 243 647 196 692 l 8 692 l 8 532 l 46 532 b 74 504 64 532 74 522 l 74 256 b 368 -14 74 85 197 -14 b 657 256 538 -14 657 85 z m 181 799 b 282 904 247 799 282 846 b 181 1013 282 963 247 1013 b 79 904 114 1013 79 963 b 181 799 79 846 114 799 z m 514 799 b 615 904 581 799 615 846 b 514 1013 615 963 581 1013 b 413 904 447 1013 413 963 b 514 799 413 846 447 799 z "},"ό":{"ha":694,"x_min":0,"x_max":0,"o":"m 347 554 b 482 346 426 554 482 464 b 347 138 482 228 426 138 b 213 346 268 138 213 228 b 347 554 213 464 268 554 z m 347 707 b 49 346 165 707 49 550 b 347 -14 49 142 165 -14 b 646 346 529 -14 646 142 b 347 707 646 550 529 707 z m 306 774 l 440 774 l 414 1042 l 242 1042 z "},"ύ":{"ha":694,"x_min":0,"x_max":0,"o":"m 657 692 l 493 692 l 493 268 b 367 142 493 176 428 142 b 243 268 306 142 243 176 l 243 560 b 101 692 243 647 196 692 l 8 692 l 8 532 l 46 532 b 74 504 64 532 74 522 l 74 256 b 368 -14 74 85 197 -14 b 657 256 538 -14 657 85 z m 306 774 l 440 774 l 414 1042 l 242 1042 z "},"ώ":{"ha":694,"x_min":0,"x_max":0,"o":"m 15 197 b 217 -14 15 56 117 -14 b 346 54 263 -14 310 8 b 476 -14 383 8 429 -14 b 678 197 576 -14 678 56 l 678 692 l 514 692 l 514 197 b 468 142 514 161 490 142 b 422 197 444 142 422 160 l 422 526 l 271 526 l 271 197 b 225 142 271 160 249 142 b 179 197 203 142 179 161 l 179 692 l 15 692 z m 288 774 l 422 774 l 396 1042 l 224 1042 z "},"Ђ":{"ha":694,"x_min":0,"x_max":0,"o":"m 297 0 l 297 453 b 401 486 335 475 368 486 b 493 338 463 486 493 450 l 493 -11 b 428 -108 493 -76 472 -108 l 257 -108 l 257 -276 l 464 -276 b 671 -11 601 -276 671 -187 l 671 347 b 415 649 671 567 556 649 b 297 619 371 649 338 640 l 297 838 l 653 838 l 653 1007 l 0 1007 l 0 838 l 119 838 l 119 0 z "},"Ѓ":{"ha":694,"x_min":0,"x_max":0,"o":"m 565 1333 l 372 1333 l 239 1089 l 385 1089 z m 69 1007 l 69 0 l 247 0 l 247 838 l 626 838 l 626 1007 z "},"Є":{"ha":694,"x_min":0,"x_max":0,"o":"m 350 1021 b 56 699 146 1021 56 892 l 56 308 b 350 -14 56 115 146 -14 b 631 253 519 -14 615 75 l 461 253 b 350 139 461 190 425 139 b 233 308 279 139 233 183 l 233 428 l 446 428 l 446 590 l 233 590 l 233 699 b 350 868 233 824 279 868 b 461 754 425 868 461 817 l 631 754 b 350 1021 615 932 519 1021 z "},"Љ":{"ha":694,"x_min":0,"x_max":0,"o":"m 136 1007 b 74 289 115 600 93 413 b 4 169 61 207 42 169 l 0 169 l 0 0 l 4 0 b 199 244 135 0 174 85 b 254 838 226 424 251 718 l 281 838 l 281 0 l 440 0 b 694 354 606 0 694 131 b 438 692 694 568 613 692 l 424 692 l 424 1007 z m 424 522 l 438 522 b 549 343 511 522 549 463 b 438 176 549 229 515 176 l 424 176 z "},"Њ":{"ha":694,"x_min":0,"x_max":0,"o":"m 414 1007 l 271 1007 l 271 692 l 158 692 l 158 1007 l 14 1007 l 14 0 l 158 0 l 158 522 l 271 522 l 271 0 l 436 0 b 694 354 604 0 694 131 b 435 692 694 568 611 692 l 414 692 z m 414 532 l 435 532 b 546 343 508 532 546 469 b 435 167 546 222 513 167 l 414 167 z "},"Ћ":{"ha":694,"x_min":0,"x_max":0,"o":"m 297 0 l 297 453 b 401 486 335 475 368 486 b 493 338 463 486 493 450 l 493 0 l 671 0 l 671 347 b 415 649 671 567 556 649 b 297 619 371 649 338 640 l 297 838 l 653 838 l 653 1007 l 0 1007 l 0 838 l 119 838 l 119 0 z "},"Ќ":{"ha":694,"x_min":0,"x_max":0,"o":"m 551 1333 l 358 1333 l 225 1089 l 371 1089 z m 400 538 l 643 1007 l 463 1007 l 247 560 l 247 1007 l 69 1007 l 69 0 l 247 0 l 247 472 l 467 0 l 663 0 z "},"Ѝ":{"ha":694,"x_min":0,"x_max":0,"o":"m 322 1089 l 468 1089 l 335 1333 l 142 1333 z m 622 1007 l 444 1007 l 250 419 l 250 1007 l 72 1007 l 72 0 l 250 0 l 444 588 l 444 0 l 622 0 z "},"Ў":{"ha":694,"x_min":0,"x_max":0,"o":"m 347 1072 b 618 1333 543 1072 618 1140 l 464 1333 b 347 1165 464 1190 415 1165 b 231 1333 279 1165 231 1190 l 76 1333 b 347 1072 76 1140 151 1072 z m 689 1007 l 506 1007 l 350 579 l 197 1007 l 6 1007 l 256 317 l 140 0 l 329 0 z "},"Џ":{"ha":694,"x_min":0,"x_max":0,"o":"m 422 -193 l 422 0 l 622 0 l 622 1007 l 444 1007 l 444 169 l 250 169 l 250 1007 l 72 1007 l 72 0 l 272 0 l 272 -193 z "},"Б":{"ha":694,"x_min":0,"x_max":0,"o":"m 69 1007 l 69 0 l 335 0 b 651 354 540 0 651 131 b 332 692 651 568 549 692 l 247 692 l 247 838 l 626 838 l 626 1007 z m 247 522 l 332 522 b 469 343 424 522 469 463 b 332 176 469 229 428 176 l 247 176 z "},"Γ":{"ha":694,"x_min":0,"x_max":0,"o":"m 69 1007 l 69 0 l 247 0 l 247 838 l 626 838 l 626 1007 z "},"Г":{"ha":694,"x_min":0,"x_max":0,"o":"m 69 1007 l 69 0 l 247 0 l 247 838 l 626 838 l 626 1007 z "},"Д":{"ha":694,"x_min":0,"x_max":0,"o":"m 150 -193 l 150 0 l 544 0 l 544 -193 l 694 -193 l 694 169 l 636 169 l 636 1007 l 185 1007 b 107 289 158 600 131 413 b 47 169 92 211 71 182 l 0 169 l 0 -193 z m 263 244 b 332 838 297 424 328 718 l 458 838 l 458 169 l 244 169 b 263 244 251 192 257 217 z "},"Ж":{"ha":694,"x_min":0,"x_max":0,"o":"m 0 0 l 163 0 l 285 458 l 285 0 l 410 0 l 410 458 l 532 0 l 694 0 l 542 538 l 681 1007 l 533 1007 l 410 574 l 410 1007 l 285 1007 l 285 574 l 161 1007 l 14 1007 l 153 538 z "},"З":{"ha":694,"x_min":0,"x_max":0,"o":"m 643 301 b 521 526 643 418 601 489 b 628 736 592 572 628 646 b 339 1021 628 885 532 1021 b 57 754 178 1021 68 926 l 228 754 b 339 868 228 819 254 868 b 461 725 415 868 461 828 b 335 585 461 628 421 585 l 258 585 l 258 456 l 339 456 b 467 300 419 456 467 408 b 340 139 467 196 422 139 b 226 253 264 139 226 189 l 57 253 b 339 -14 71 71 181 -14 b 643 301 531 -14 643 108 z "},"И":{"ha":694,"x_min":0,"x_max":0,"o":"m 622 1007 l 444 1007 l 250 419 l 250 1007 l 72 1007 l 72 0 l 250 0 l 444 588 l 444 0 l 622 0 z "},"Й":{"ha":694,"x_min":0,"x_max":0,"o":"m 347 1072 b 618 1333 543 1072 618 1140 l 464 1333 b 347 1165 464 1190 415 1165 b 231 1333 279 1165 231 1190 l 76 1333 b 347 1072 76 1140 151 1072 z m 622 1007 l 444 1007 l 250 419 l 250 1007 l 72 1007 l 72 0 l 250 0 l 444 588 l 444 0 l 622 0 z "},"Л":{"ha":694,"x_min":0,"x_max":0,"o":"m 636 1007 l 185 1007 b 107 289 158 600 131 413 b 21 169 92 207 67 169 l 0 169 l 0 0 l 21 0 b 263 244 183 0 232 85 b 332 838 297 424 328 718 l 458 838 l 458 0 l 636 0 z "},"У":{"ha":694,"x_min":0,"x_max":0,"o":"m 689 1007 l 506 1007 l 350 579 l 197 1007 l 6 1007 l 256 317 l 140 0 l 329 0 z "},"Ц":{"ha":694,"x_min":0,"x_max":0,"o":"m 694 -193 l 694 169 l 578 169 l 578 1007 l 400 1007 l 400 169 l 206 169 l 206 1007 l 28 1007 l 28 0 l 544 0 l 544 -193 z "},"Ч":{"ha":694,"x_min":0,"x_max":0,"o":"m 447 1007 l 447 539 b 339 521 407 528 371 521 b 226 669 271 521 226 556 l 226 1007 l 49 1007 l 49 660 b 326 358 49 440 169 358 b 447 372 367 358 406 364 l 447 0 l 625 0 l 625 1007 z "},"Ш":{"ha":694,"x_min":0,"x_max":0,"o":"m 28 0 l 667 0 l 667 1007 l 507 1007 l 507 169 l 400 169 l 400 1007 l 294 1007 l 294 169 l 188 169 l 188 1007 l 28 1007 z "},"Щ":{"ha":694,"x_min":0,"x_max":0,"o":"m 0 0 l 544 0 l 544 -193 l 694 -193 l 694 169 l 639 169 l 639 1007 l 479 1007 l 479 169 l 372 169 l 372 1007 l 267 1007 l 267 169 l 160 169 l 160 1007 l 0 1007 z "},"Ъ":{"ha":694,"x_min":0,"x_max":0,"o":"m 0 1007 l 0 838 l 111 838 l 111 0 l 376 0 b 693 354 582 0 693 131 b 374 692 693 568 590 692 l 289 692 l 289 1007 z m 289 522 l 374 522 b 511 343 465 522 511 463 b 374 176 511 229 469 176 l 289 176 z "},"Ы":{"ha":694,"x_min":0,"x_max":0,"o":"m 531 1007 l 531 0 l 694 0 l 694 1007 z m 164 522 l 190 522 b 318 343 275 522 318 463 b 190 176 318 229 279 176 l 164 176 z m 0 1007 l 0 0 l 193 0 b 488 354 385 0 488 131 b 190 692 488 568 392 692 l 164 692 l 164 1007 z "},"Ь":{"ha":694,"x_min":0,"x_max":0,"o":"m 247 522 l 332 522 b 469 343 424 522 469 463 b 332 176 469 229 428 176 l 247 176 z m 69 1007 l 69 0 l 335 0 b 651 354 540 0 651 131 b 332 692 651 568 549 692 l 247 692 l 247 1007 z "},"Э":{"ha":694,"x_min":0,"x_max":0,"o":"m 344 1021 b 64 754 175 1021 79 932 l 233 754 b 344 868 233 817 269 868 b 461 699 415 868 461 824 l 461 590 l 249 590 l 249 428 l 461 428 l 461 308 b 344 139 461 183 415 139 b 233 253 269 139 233 190 l 64 253 b 344 -14 79 75 175 -14 b 639 308 549 -14 639 115 l 639 699 b 344 1021 639 892 549 1021 z "},"Ю":{"ha":694,"x_min":0,"x_max":0,"o":"m 450 -14 b 693 308 611 -14 693 113 l 693 699 b 450 1021 693 894 611 1021 b 218 699 289 1021 218 894 l 218 604 l 149 604 l 149 1007 l 0 1007 l 0 0 l 149 0 l 149 435 l 218 435 l 218 308 b 450 -14 218 113 289 -14 z m 450 139 b 354 308 393 139 354 185 l 354 699 b 450 868 354 822 393 868 b 544 699 507 868 544 822 l 544 308 b 450 139 544 185 507 139 z "},"Я":{"ha":694,"x_min":0,"x_max":0,"o":"m 346 1007 b 39 692 161 1007 39 888 b 239 389 39 531 121 421 l 36 0 l 235 0 l 444 399 l 444 0 l 625 0 l 625 1007 z m 444 499 l 361 499 b 222 674 272 499 222 558 b 382 838 222 793 278 838 l 444 838 z "},"б":{"ha":694,"x_min":0,"x_max":0,"o":"m 354 692 b 183 610 274 692 224 658 b 221 731 183 674 190 703 b 475 803 282 786 369 779 b 604 858 525 814 567 825 l 583 1049 b 433 969 542 1003 503 986 b 260 936 372 956 321 953 b 49 388 57 882 49 758 b 342 -14 49 139 150 -14 b 646 336 532 -14 646 139 b 354 692 646 539 526 692 z m 344 549 b 482 343 425 549 482 460 b 344 138 482 226 425 138 b 208 343 265 138 208 226 b 344 549 208 460 265 549 z "},"в":{"ha":694,"x_min":0,"x_max":0,"o":"m 69 692 l 69 0 l 346 0 b 642 199 551 0 642 63 b 543 356 642 271 617 325 b 622 500 600 386 622 435 b 368 692 622 625 539 692 z m 239 554 l 354 554 b 444 489 411 554 444 543 b 363 417 444 433 411 417 l 239 417 z m 239 290 l 371 290 b 463 217 436 290 463 261 b 375 142 463 169 433 142 l 239 142 z "},"г":{"ha":694,"x_min":0,"x_max":0,"o":"m 238 0 l 238 532 l 631 532 l 631 692 l 69 692 l 69 0 z "},"д":{"ha":694,"x_min":0,"x_max":0,"o":"m 136 -181 l 136 0 l 558 0 l 558 -181 l 694 -181 l 694 160 l 621 160 l 621 692 l 185 692 b 110 236 160 433 132 314 b 40 160 94 183 75 168 l 0 160 l 0 -181 z m 263 168 b 326 532 292 274 317 436 l 451 532 l 451 160 l 260 160 z "},"ж":{"ha":694,"x_min":0,"x_max":0,"o":"m 0 0 l 163 0 l 285 315 l 285 0 l 410 0 l 410 315 l 532 0 l 694 0 l 542 369 l 681 692 l 533 692 l 410 394 l 410 692 l 285 692 l 285 394 l 161 692 l 14 692 l 153 369 z "},"з":{"ha":694,"x_min":0,"x_max":0,"o":"m 335 707 b 58 544 186 707 107 656 l 199 492 b 351 565 221 533 271 565 b 461 490 425 565 461 538 b 353 424 461 440 421 424 l 257 424 l 257 281 l 353 281 b 467 208 433 281 467 260 b 356 126 467 154 431 126 b 200 200 268 126 219 164 l 60 147 b 361 -14 97 50 178 -14 b 644 207 546 -14 644 83 b 547 363 644 286 604 333 b 629 503 613 399 629 456 b 335 707 629 617 532 707 z "},"и":{"ha":694,"x_min":0,"x_max":0,"o":"m 622 692 l 453 692 l 242 288 l 242 692 l 72 692 l 72 0 l 242 0 l 453 404 l 453 0 l 622 0 z "},"й":{"ha":694,"x_min":0,"x_max":0,"o":"m 622 692 l 453 692 l 242 288 l 242 692 l 72 692 l 72 0 l 242 0 l 453 404 l 453 0 l 622 0 z m 347 757 b 615 1042 543 757 615 843 l 461 1042 b 347 853 461 894 415 853 b 233 1042 279 853 233 894 l 79 1042 b 347 757 79 843 151 757 z "},"κ":{"ha":694,"x_min":0,"x_max":0,"o":"m 239 692 l 69 692 l 69 0 l 239 0 l 239 322 l 444 0 l 635 0 l 401 376 l 608 692 l 426 692 l 239 389 z "},"к":{"ha":694,"x_min":0,"x_max":0,"o":"m 239 692 l 69 692 l 69 0 l 239 0 l 239 322 l 444 0 l 635 0 l 401 376 l 608 692 l 426 692 l 239 389 z "},"л":{"ha":694,"x_min":0,"x_max":0,"o":"m 622 692 l 186 692 b 111 236 161 433 133 314 b 28 160 96 183 72 160 l 8 160 l 8 0 l 28 0 b 264 168 185 0 235 58 b 328 532 293 274 318 436 l 453 532 l 453 0 l 622 0 z "},"м":{"ha":694,"x_min":0,"x_max":0,"o":"m 644 692 l 475 692 l 349 425 l 232 692 l 50 692 l 50 0 l 200 0 l 200 425 l 349 121 l 497 425 l 497 0 l 644 0 z "},"н":{"ha":694,"x_min":0,"x_max":0,"o":"m 622 692 l 453 692 l 453 433 l 242 433 l 242 692 l 72 692 l 72 0 l 242 0 l 242 274 l 453 274 l 453 0 l 622 0 z "},"п":{"ha":694,"x_min":0,"x_max":0,"o":"m 622 692 l 72 692 l 72 0 l 242 0 l 242 532 l 453 532 l 453 0 l 622 0 z "},"т":{"ha":694,"x_min":0,"x_max":0,"o":"m 431 0 l 431 532 l 632 532 l 632 692 l 61 692 l 61 532 l 263 532 l 263 0 z "},"ц":{"ha":694,"x_min":0,"x_max":0,"o":"m 694 -181 l 694 160 l 594 160 l 594 692 l 425 692 l 425 160 l 214 160 l 214 692 l 44 692 l 44 0 l 558 0 l 558 -181 z "},"ч":{"ha":694,"x_min":0,"x_max":0,"o":"m 453 692 l 453 418 b 351 404 415 410 381 404 b 238 522 286 404 238 432 l 238 692 l 68 692 l 68 494 b 339 256 68 321 189 256 b 453 267 376 256 414 260 l 453 0 l 622 0 l 622 692 z "},"ш":{"ha":694,"x_min":0,"x_max":0,"o":"m 28 0 l 667 0 l 667 692 l 507 692 l 507 169 l 400 169 l 400 692 l 294 692 l 294 169 l 188 169 l 188 692 l 28 692 z "},"щ":{"ha":694,"x_min":0,"x_max":0,"o":"m 0 0 l 558 0 l 558 -181 l 694 -181 l 694 160 l 639 160 l 639 692 l 479 692 l 479 169 l 372 169 l 372 692 l 267 692 l 267 169 l 160 169 l 160 692 l 0 692 z "},"ъ":{"ha":694,"x_min":0,"x_max":0,"o":"m 0 692 l 0 532 l 121 532 l 121 0 l 418 0 b 693 246 596 0 693 89 b 415 485 693 397 604 485 l 290 485 l 290 692 z m 290 332 l 415 332 b 524 244 486 332 524 308 b 415 160 524 183 489 160 l 290 160 z "},"ы":{"ha":694,"x_min":0,"x_max":0,"o":"m 685 0 l 685 692 l 517 692 l 517 0 z m 179 332 l 194 332 b 303 244 265 332 303 308 b 194 160 303 183 268 160 l 179 160 z m 10 692 l 10 0 l 197 0 b 472 246 375 0 472 89 b 194 485 472 397 383 485 l 179 485 l 179 692 z "},"ь":{"ha":694,"x_min":0,"x_max":0,"o":"m 239 332 l 364 332 b 472 244 435 332 472 308 b 364 160 472 183 438 160 l 239 160 z m 69 692 l 69 0 l 367 0 b 642 246 544 0 642 89 b 364 485 642 397 553 485 l 239 485 l 239 692 z "},"э":{"ha":694,"x_min":0,"x_max":0,"o":"m 217 281 l 479 281 b 326 139 461 192 406 139 b 200 200 264 139 218 169 l 60 147 b 318 -14 108 28 208 -14 b 646 349 531 -14 646 143 b 319 707 646 554 531 707 b 58 544 203 707 104 661 l 199 492 b 326 554 219 525 265 554 b 478 424 404 554 458 507 l 217 424 z "},"ю":{"ha":694,"x_min":0,"x_max":0,"o":"m 428 707 b 190 435 289 707 213 594 l 151 435 l 151 692 l 0 692 l 0 0 l 151 0 l 151 275 l 189 275 b 428 -14 207 107 285 -14 b 694 347 590 -14 694 143 b 428 707 694 551 590 707 z m 428 556 b 547 347 499 556 547 465 b 428 139 547 229 499 139 b 307 347 357 139 307 229 b 428 556 307 465 357 556 z "},"я":{"ha":694,"x_min":0,"x_max":0,"o":"m 339 692 b 56 465 165 692 56 607 b 236 249 56 354 122 272 l 53 0 l 247 0 l 454 292 l 454 0 l 624 0 l 624 692 z m 454 363 l 339 363 b 225 449 274 363 225 389 b 339 532 225 508 274 532 l 454 532 z "},"ђ":{"ha":694,"x_min":0,"x_max":0,"o":"m 563 779 l 563 918 l 239 918 l 239 1007 l 69 1007 l 69 918 l 0 918 l 0 779 l 69 779 l 69 0 l 239 0 l 239 475 b 378 567 268 521 307 567 b 472 443 436 567 472 536 l 472 -11 b 407 -108 472 -76 451 -108 l 228 -108 l 228 -276 l 435 -276 b 642 -11 572 -276 642 -187 l 642 464 b 422 707 642 631 572 707 b 239 643 332 707 275 679 l 239 779 z "},"ѓ":{"ha":694,"x_min":0,"x_max":0,"o":"m 238 0 l 238 532 l 631 532 l 631 692 l 69 692 l 69 0 z m 565 1042 l 372 1042 l 239 774 l 385 774 z "},"є":{"ha":694,"x_min":0,"x_max":0,"o":"m 478 424 l 215 424 b 368 554 235 507 290 554 b 496 492 429 554 475 525 l 636 544 b 375 707 590 661 492 707 b 49 349 164 707 49 554 b 376 -14 49 143 164 -14 b 635 147 486 -14 586 28 l 494 200 b 368 139 476 169 431 139 b 214 281 288 139 232 192 l 478 281 z "},"љ":{"ha":694,"x_min":0,"x_max":0,"o":"m 440 692 l 144 692 b 79 236 124 433 99 314 b 0 160 67 183 46 160 l 0 0 b 213 168 143 0 188 58 b 268 532 238 274 260 436 l 292 532 l 292 0 l 456 0 b 694 246 610 0 694 89 b 453 485 694 397 617 485 l 440 485 z m 440 332 l 453 332 b 547 244 514 332 547 308 b 453 160 547 183 517 160 l 440 160 z "},"њ":{"ha":694,"x_min":0,"x_max":0,"o":"m 414 692 l 271 692 l 271 496 l 158 496 l 158 692 l 14 692 l 14 0 l 158 0 l 158 344 l 271 344 l 271 0 l 436 0 b 694 251 628 0 694 93 b 435 496 694 407 631 496 l 414 496 z m 414 344 l 446 344 b 546 251 517 344 546 311 b 446 160 546 188 514 160 l 414 160 z "},"ќ":{"ha":694,"x_min":0,"x_max":0,"o":"m 239 692 l 69 692 l 69 0 l 239 0 l 239 322 l 444 0 l 635 0 l 401 376 l 608 692 l 426 692 l 239 389 z m 551 1042 l 358 1042 l 225 774 l 371 774 z "},"ѝ":{"ha":694,"x_min":0,"x_max":0,"o":"m 622 692 l 453 692 l 242 288 l 242 692 l 72 692 l 72 0 l 242 0 l 453 404 l 453 0 l 622 0 z m 322 774 l 468 774 l 335 1042 l 142 1042 z "},"ў":{"ha":694,"x_min":0,"x_max":0,"o":"m 493 692 l 356 210 l 217 692 l 35 692 l 265 -35 l 190 -276 l 369 -276 l 660 692 z m 347 757 b 615 1042 543 757 615 843 l 461 1042 b 347 853 461 894 415 853 b 233 1042 279 853 233 894 l 79 1042 b 347 757 79 843 151 757 z "},"џ":{"ha":694,"x_min":0,"x_max":0,"o":"m 415 -181 l 415 0 l 622 0 l 622 692 l 453 692 l 453 160 l 242 160 l 242 692 l 72 692 l 72 0 l 279 0 l 279 -181 z "},"Ґ":{"ha":694,"x_min":0,"x_max":0,"o":"m 69 1007 l 69 0 l 247 0 l 247 838 l 626 838 l 626 1213 l 476 1213 l 476 1007 z "},"ґ":{"ha":694,"x_min":0,"x_max":0,"o":"m 238 0 l 238 532 l 631 532 l 631 894 l 494 894 l 494 692 l 69 692 l 69 0 z "},"Ғ":{"ha":694,"x_min":0,"x_max":0,"o":"m 563 422 l 563 561 l 247 561 l 247 838 l 626 838 l 626 1007 l 69 1007 l 69 561 l 0 561 l 0 422 l 69 422 l 69 0 l 247 0 l 247 422 z "},"ғ":{"ha":694,"x_min":0,"x_max":0,"o":"m 265 0 l 265 238 l 563 238 l 563 376 l 265 376 l 265 532 l 658 532 l 658 692 l 97 692 l 97 376 l 0 376 l 0 238 l 97 238 l 97 0 z "},"Җ":{"ha":694,"x_min":0,"x_max":0,"o":"m 694 -193 l 694 169 l 646 169 l 542 538 l 681 1007 l 533 1007 l 410 574 l 410 1007 l 285 1007 l 285 574 l 161 1007 l 14 1007 l 153 538 l 0 0 l 163 0 l 285 458 l 285 0 l 410 0 l 410 458 l 532 0 l 544 0 l 544 -193 z "},"җ":{"ha":694,"x_min":0,"x_max":0,"o":"m 694 -181 l 694 160 l 628 160 l 542 369 l 681 692 l 533 692 l 410 394 l 410 692 l 285 692 l 285 394 l 161 692 l 14 692 l 153 369 l 0 0 l 163 0 l 285 315 l 285 0 l 410 0 l 410 315 l 532 0 l 558 0 l 558 -181 z "},"Ҙ":{"ha":694,"x_min":0,"x_max":0,"o":"m 643 301 b 521 526 643 418 601 489 b 628 736 592 572 628 646 b 339 1021 628 885 532 1021 b 57 754 178 1021 68 926 l 228 754 b 339 868 228 819 254 868 b 461 725 415 868 461 828 b 335 585 461 628 421 585 l 258 585 l 258 456 l 339 456 b 467 300 419 456 467 408 b 340 139 467 196 422 139 b 226 253 264 139 226 189 l 57 253 b 325 -14 69 75 174 -8 b 358 -86 356 -54 358 -72 b 296 -144 358 -126 339 -144 b 183 -106 261 -144 221 -132 l 183 -257 b 344 -292 218 -282 290 -292 b 504 -158 456 -292 504 -250 b 435 -1 504 -101 485 -68 b 643 301 567 32 643 143 z "},"ҙ":{"ha":694,"x_min":0,"x_max":0,"o":"m 335 707 b 58 544 186 707 107 656 l 199 492 b 351 565 221 533 271 565 b 461 490 425 565 461 538 b 353 424 461 440 421 424 l 257 424 l 257 281 l 353 281 b 467 208 433 281 467 260 b 356 126 467 154 431 126 b 200 200 268 126 219 164 l 60 147 b 328 -12 94 56 168 -6 b 361 -86 358 -54 361 -72 b 299 -144 361 -126 342 -144 b 186 -106 264 -144 224 -132 l 186 -257 b 347 -292 221 -282 293 -292 b 507 -158 458 -292 507 -250 b 442 -7 507 -103 489 -69 b 644 207 574 17 644 103 b 547 363 644 286 604 333 b 629 503 613 399 629 456 b 335 707 629 617 532 707 z "},"Қ":{"ha":694,"x_min":0,"x_max":0,"o":"m 693 -193 l 693 169 l 551 169 l 372 538 l 615 1007 l 435 1007 l 219 560 l 219 1007 l 42 1007 l 42 0 l 219 0 l 219 472 l 439 0 l 543 0 l 543 -193 z "},"қ":{"ha":694,"x_min":0,"x_max":0,"o":"m 211 692 l 42 692 l 42 0 l 211 0 l 211 322 l 417 0 l 544 0 l 544 -181 l 681 -181 l 681 160 l 507 160 l 374 376 l 581 692 l 399 692 l 211 389 z "},"Ҡ":{"ha":694,"x_min":0,"x_max":0,"o":"m 0 1007 l 0 838 l 101 838 l 101 0 l 279 0 l 279 472 l 499 0 l 694 0 l 432 538 l 675 1007 l 494 1007 l 279 560 l 279 1007 z "},"ҡ":{"ha":694,"x_min":0,"x_max":0,"o":"m 289 692 l 0 692 l 0 532 l 119 532 l 119 0 l 289 0 l 289 322 l 494 0 l 685 0 l 451 376 l 658 692 l 476 692 l 289 389 z "},"Ң":{"ha":694,"x_min":0,"x_max":0,"o":"m 594 1007 l 417 1007 l 417 604 l 222 604 l 222 1007 l 44 1007 l 44 0 l 222 0 l 222 435 l 417 435 l 417 0 l 544 0 l 544 -193 l 694 -193 l 694 169 l 594 169 z "},"ң":{"ha":694,"x_min":0,"x_max":0,"o":"m 594 692 l 425 692 l 425 433 l 214 433 l 214 692 l 44 692 l 44 0 l 214 0 l 214 274 l 425 274 l 425 0 l 558 0 l 558 -181 l 694 -181 l 694 160 l 594 160 z "},"Ҫ":{"ha":694,"x_min":0,"x_max":0,"o":"m 350 1021 b 56 699 146 1021 56 892 l 56 308 b 328 -14 56 122 139 -4 b 361 -86 358 -54 361 -72 b 299 -144 361 -126 342 -144 b 186 -106 264 -144 224 -132 l 186 -257 b 347 -292 221 -282 293 -292 b 507 -158 458 -292 507 -250 b 439 -4 507 -103 488 -69 b 631 253 553 24 618 108 l 461 253 b 350 139 461 190 425 139 b 233 308 279 139 233 183 l 233 699 b 350 868 233 824 279 868 b 461 754 425 868 461 817 l 631 754 b 350 1021 615 932 519 1021 z "},"ҫ":{"ha":694,"x_min":0,"x_max":0,"o":"m 374 707 b 49 349 165 707 49 554 b 326 -10 49 160 147 11 b 361 -86 358 -54 361 -72 b 299 -144 361 -126 342 -144 b 186 -106 264 -144 224 -132 l 186 -257 b 347 -292 221 -282 293 -292 b 507 -158 458 -292 507 -250 b 442 -7 507 -103 489 -69 b 640 156 531 8 603 60 l 500 208 b 368 139 483 171 431 139 b 218 349 269 139 218 219 b 367 554 218 478 269 554 b 500 485 431 554 483 522 l 640 538 b 374 707 594 657 493 707 z "},"ү":{"ha":694,"x_min":0,"x_max":0,"o":"m 493 692 l 357 228 l 217 692 l 33 692 l 263 -14 l 263 -276 l 432 -276 l 432 -14 l 661 692 z "},"Ұ":{"ha":694,"x_min":0,"x_max":0,"o":"m 628 317 l 628 456 l 457 456 l 679 1007 l 475 1007 l 351 643 l 226 1007 l 17 1007 l 236 456 l 65 456 l 65 317 l 258 317 l 258 0 l 436 0 l 436 317 z "},"ұ":{"ha":694,"x_min":0,"x_max":0,"o":"m 628 -68 l 628 71 l 460 71 l 661 692 l 493 692 l 357 228 l 217 692 l 33 692 l 235 71 l 65 71 l 65 -68 l 263 -68 l 263 -276 l 432 -276 l 432 -68 z "},"Ҳ":{"ha":694,"x_min":0,"x_max":0,"o":"m 694 -193 l 694 169 l 550 169 l 422 513 l 614 1007 l 421 1007 l 314 694 l 201 1007 l 0 1007 l 193 507 l 0 0 l 201 0 l 306 322 l 410 0 l 544 0 l 544 -193 z "},"ҳ":{"ha":694,"x_min":0,"x_max":0,"o":"m 694 -181 l 694 160 l 532 160 l 425 360 l 611 692 l 436 692 l 325 478 l 221 692 l 46 692 l 225 356 l 35 0 l 215 0 l 331 239 l 440 0 l 558 0 l 558 -181 z "},"Ҷ":{"ha":694,"x_min":0,"x_max":0,"o":"m 694 -193 l 694 169 l 597 169 l 597 1007 l 419 1007 l 419 539 b 311 521 379 528 343 521 b 199 669 243 521 199 556 l 199 1007 l 21 1007 l 21 660 b 299 358 21 440 142 358 b 419 372 339 358 378 364 l 419 0 l 544 0 l 544 -193 z "},"ҷ":{"ha":694,"x_min":0,"x_max":0,"o":"m 694 -181 l 694 160 l 594 160 l 594 692 l 425 692 l 425 418 b 324 404 388 410 353 404 b 210 522 258 404 210 432 l 210 692 l 40 692 l 40 494 b 311 256 40 321 161 256 b 425 267 349 256 386 260 l 425 0 l 558 0 l 558 -181 z "},"Һ":{"ha":694,"x_min":0,"x_max":0,"o":"m 247 0 l 247 468 b 356 486 288 479 324 486 b 468 338 424 486 468 451 l 468 0 l 646 0 l 646 347 b 368 649 646 567 525 649 b 247 635 328 649 289 643 l 247 1007 l 69 1007 l 69 0 z "},"Ӄ":{"ha":694,"x_min":0,"x_max":0,"o":"m 513 0 b 549 -87 544 -46 549 -71 b 486 -144 549 -126 528 -144 b 374 -106 451 -144 411 -132 l 374 -257 b 535 -292 408 -282 481 -292 b 694 -154 647 -292 694 -250 b 663 0 694 -103 681 -37 l 400 538 l 643 1007 l 463 1007 l 247 560 l 247 1007 l 69 1007 l 69 0 l 247 0 l 247 472 l 467 0 z "},"ӄ":{"ha":694,"x_min":0,"x_max":0,"o":"m 239 692 l 69 692 l 69 0 l 239 0 l 239 322 l 444 0 l 506 0 b 549 -86 546 -51 549 -71 b 486 -144 549 -126 529 -144 b 374 -106 451 -144 411 -132 l 374 -257 b 535 -292 408 -282 481 -292 b 694 -154 649 -292 694 -249 b 635 0 694 -100 679 -72 l 401 376 l 608 692 l 426 692 l 239 389 z "},"Ӈ":{"ha":694,"x_min":0,"x_max":0,"o":"m 622 1007 l 444 1007 l 444 604 l 250 604 l 250 1007 l 72 1007 l 72 0 l 250 0 l 250 435 l 444 435 l 444 0 l 476 0 l 476 -86 b 414 -144 476 -126 457 -144 b 301 -106 379 -144 339 -132 l 301 -257 b 463 -292 336 -282 408 -292 b 622 -158 574 -292 622 -250 z "},"ӈ":{"ha":694,"x_min":0,"x_max":0,"o":"m 622 692 l 453 692 l 453 433 l 242 433 l 242 692 l 72 692 l 72 0 l 242 0 l 242 274 l 453 274 l 453 0 l 476 0 l 476 -86 b 414 -144 476 -126 457 -144 b 301 -106 379 -144 339 -132 l 301 -257 b 463 -292 336 -282 408 -292 b 622 -158 574 -292 622 -250 z "},"ǝ":{"ha":694,"x_min":0,"x_max":0,"o":"m 46 390 b 43 328 43 371 43 351 b 339 -14 43 104 168 -14 b 646 349 524 -14 646 124 b 328 707 646 561 536 707 b 54 538 217 707 103 665 l 194 485 b 329 554 215 529 267 554 b 482 390 421 554 471 500 z m 485 297 b 344 135 468 201 433 135 b 204 297 258 135 213 196 z "},"ә":{"ha":694,"x_min":0,"x_max":0,"o":"m 46 390 b 43 328 43 371 43 351 b 339 -14 43 104 168 -14 b 646 349 524 -14 646 124 b 328 707 646 561 536 707 b 54 538 217 707 103 665 l 194 485 b 329 554 215 529 267 554 b 482 390 421 554 471 500 z m 485 297 b 344 135 468 201 433 135 b 204 297 258 135 213 196 z "},"Ӣ":{"ha":694,"x_min":0,"x_max":0,"o":"m 628 1164 l 628 1303 l 65 1303 l 65 1164 z m 622 1007 l 444 1007 l 250 419 l 250 1007 l 72 1007 l 72 0 l 250 0 l 444 588 l 444 0 l 622 0 z "},"ӣ":{"ha":694,"x_min":0,"x_max":0,"o":"m 622 692 l 453 692 l 242 288 l 242 692 l 72 692 l 72 0 l 242 0 l 453 404 l 453 0 l 622 0 z m 628 849 l 628 988 l 65 988 l 65 849 z "},"Ө":{"ha":694,"x_min":0,"x_max":0,"o":"m 347 -14 b 639 308 540 -14 639 113 l 639 699 b 347 1021 639 894 540 1021 b 56 699 154 1021 56 894 l 56 308 b 347 -14 56 113 154 -14 z m 347 139 b 225 308 274 139 225 185 l 225 428 l 469 428 l 469 308 b 347 139 469 185 421 139 z m 225 699 b 347 868 225 822 274 868 b 469 699 421 868 469 822 l 469 590 l 225 590 z "},"ө":{"ha":694,"x_min":0,"x_max":0,"o":"m 347 707 b 49 346 165 707 49 550 b 347 -14 49 142 165 -14 b 646 346 529 -14 646 142 b 347 707 646 550 529 707 z m 347 138 b 210 278 279 138 228 194 l 485 278 b 347 138 467 194 414 138 z m 347 554 b 483 417 414 554 465 497 l 210 417 b 347 554 229 497 281 554 z "},"Ӯ":{"ha":694,"x_min":0,"x_max":0,"o":"m 628 1164 l 628 1303 l 65 1303 l 65 1164 z m 689 1007 l 506 1007 l 350 579 l 197 1007 l 6 1007 l 256 317 l 140 0 l 329 0 z "},"ӯ":{"ha":694,"x_min":0,"x_max":0,"o":"m 493 692 l 356 210 l 217 692 l 35 692 l 265 -35 l 190 -276 l 369 -276 l 660 692 z m 628 849 l 628 988 l 65 988 l 65 849 z "},"Ԓ":{"ha":694,"x_min":0,"x_max":0,"o":"m 636 1007 l 185 1007 b 107 289 158 600 131 413 b 21 169 92 207 67 169 l 0 169 l 0 0 l 21 0 b 263 244 183 0 232 85 b 332 838 297 424 328 718 l 458 838 l 458 0 l 490 0 l 490 -86 b 428 -144 490 -126 471 -144 b 315 -106 393 -144 353 -132 l 315 -257 b 476 -292 350 -282 422 -292 b 636 -158 588 -292 636 -250 z "},"ԓ":{"ha":694,"x_min":0,"x_max":0,"o":"m 476 0 l 476 -86 b 414 -144 476 -126 457 -144 b 301 -106 379 -144 339 -132 l 301 -257 b 463 -292 336 -282 408 -292 b 622 -158 574 -292 622 -250 l 622 692 l 186 692 b 111 236 161 433 133 314 b 28 160 96 183 72 160 l 8 160 l 8 0 l 28 0 b 264 168 185 0 235 58 b 328 532 293 274 318 436 l 453 532 l 453 0 z "},"֏":{"ha":694,"x_min":0,"x_max":0,"o":"m 118 538 l 118 408 l 424 408 l 424 260 l 118 260 l 118 131 l 424 131 l 424 0 l 601 0 l 601 131 l 681 131 l 681 260 l 601 260 l 601 408 l 681 408 l 681 538 l 601 538 l 601 721 b 301 1021 601 924 488 1021 b 14 721 121 1021 14 928 l 14 650 l 181 650 l 181 711 b 301 860 181 821 211 860 b 424 711 369 860 424 821 l 424 538 z "},"Ḍ":{"ha":694,"x_min":0,"x_max":0,"o":"m 633 699 b 358 1007 633 904 542 1007 l 69 1007 l 69 0 l 358 0 b 633 303 542 0 633 101 z m 456 313 b 347 169 456 221 419 169 l 247 169 l 247 838 l 347 838 b 456 682 419 838 456 782 z m 333 -333 b 435 -228 400 -333 435 -286 b 333 -119 435 -169 400 -119 b 232 -228 267 -119 232 -169 b 333 -333 232 -286 267 -333 z "},"ḍ":{"ha":694,"x_min":0,"x_max":0,"o":"m 46 346 b 285 -14 46 135 106 -14 b 461 56 360 -14 426 11 l 461 0 l 625 0 l 625 1007 l 456 1007 l 456 643 b 285 707 411 688 349 707 b 46 346 106 707 46 557 z m 456 217 b 321 125 431 168 378 125 b 215 346 251 125 215 189 b 322 567 215 504 251 567 b 456 476 378 567 424 528 z m 347 -333 b 449 -228 414 -333 449 -286 b 347 -119 449 -169 414 -119 b 246 -228 281 -119 246 -169 b 347 -333 246 -286 281 -333 z "},"Ḓ":{"ha":694,"x_min":0,"x_max":0,"o":"m 633 699 b 358 1007 633 904 542 1007 l 69 1007 l 69 0 l 358 0 b 633 303 542 0 633 101 z m 456 313 b 347 169 456 221 419 169 l 247 169 l 247 838 l 347 838 b 456 682 419 838 456 782 z m 67 -333 l 211 -333 l 331 -162 l 453 -333 l 599 -333 l 446 -65 l 219 -65 z "},"ḓ":{"ha":694,"x_min":0,"x_max":0,"o":"m 46 346 b 285 -14 46 135 106 -14 b 461 56 360 -14 426 11 l 461 0 l 625 0 l 625 1007 l 456 1007 l 456 643 b 285 707 411 688 349 707 b 46 346 106 707 46 557 z m 456 217 b 321 125 431 168 378 125 b 215 346 251 125 215 189 b 322 567 215 504 251 567 b 456 476 378 567 424 528 z m 81 -333 l 225 -333 l 344 -162 l 467 -333 l 613 -333 l 460 -65 l 233 -65 z "},"Ḥ":{"ha":694,"x_min":0,"x_max":0,"o":"m 622 1007 l 444 1007 l 444 604 l 250 604 l 250 1007 l 72 1007 l 72 0 l 250 0 l 250 435 l 444 435 l 444 0 l 622 0 z m 347 -333 b 449 -228 414 -333 449 -286 b 347 -119 449 -169 414 -119 b 246 -228 281 -119 246 -169 b 347 -333 246 -286 281 -333 z "},"ḥ":{"ha":694,"x_min":0,"x_max":0,"o":"m 642 464 b 422 707 642 631 572 707 b 239 643 332 707 275 679 l 239 1007 l 69 1007 l 69 0 l 239 0 l 239 475 b 378 567 268 521 307 567 b 472 443 436 567 472 536 l 472 0 l 642 0 z m 347 -333 b 449 -228 414 -333 449 -286 b 347 -119 449 -169 414 -119 b 246 -228 281 -119 246 -169 b 347 -333 246 -286 281 -333 z "},"Ḽ":{"ha":694,"x_min":0,"x_max":0,"o":"m 626 169 l 247 169 l 247 1007 l 69 1007 l 69 0 l 626 0 z m 81 -333 l 225 -333 l 344 -162 l 467 -333 l 613 -333 l 460 -65 l 233 -65 z "},"ḽ":{"ha":694,"x_min":0,"x_max":0,"o":"m 468 1007 l 150 1007 l 150 847 l 299 847 l 299 0 l 468 0 z m 119 -333 l 264 -333 l 383 -162 l 506 -333 l 651 -333 l 499 -65 l 272 -65 z "},"Ṅ":{"ha":694,"x_min":0,"x_max":0,"o":"m 347 1114 b 449 1219 414 1114 449 1161 b 347 1328 449 1278 414 1328 b 246 1219 281 1328 246 1278 b 347 1114 246 1161 281 1114 z m 625 1007 l 465 1007 l 465 457 l 275 1007 l 69 1007 l 69 0 l 229 0 l 229 589 l 454 0 l 625 0 z "},"ṅ":{"ha":694,"x_min":0,"x_max":0,"o":"m 642 464 b 421 707 642 632 572 707 b 233 636 333 707 272 682 l 233 692 l 69 692 l 69 0 l 239 0 l 239 475 b 378 567 268 521 307 567 b 472 443 436 567 472 536 l 472 0 l 642 0 z m 364 799 b 465 904 431 799 465 846 b 364 1013 465 963 431 1013 b 263 904 297 1013 263 963 b 364 799 263 846 297 799 z "},"Ṋ":{"ha":694,"x_min":0,"x_max":0,"o":"m 625 1007 l 465 1007 l 465 457 l 275 1007 l 69 1007 l 69 0 l 229 0 l 229 589 l 454 0 l 625 0 z m 81 -333 l 225 -333 l 344 -162 l 467 -333 l 613 -333 l 460 -65 l 233 -65 z "},"ṋ":{"ha":694,"x_min":0,"x_max":0,"o":"m 642 464 b 421 707 642 632 572 707 b 233 636 333 707 272 682 l 233 692 l 69 692 l 69 0 l 239 0 l 239 475 b 378 567 268 521 307 567 b 472 443 436 567 472 536 l 472 0 l 642 0 z m 89 -333 l 233 -333 l 353 -162 l 475 -333 l 621 -333 l 468 -65 l 242 -65 z "},"Ṛ":{"ha":694,"x_min":0,"x_max":0,"o":"m 69 1007 l 69 0 l 250 0 l 250 404 l 460 0 l 667 0 l 456 403 b 646 700 575 435 646 543 b 349 1007 646 899 533 1007 z m 250 838 l 313 838 b 463 683 411 838 463 803 b 333 513 463 568 414 513 l 250 513 z m 338 -333 b 439 -228 404 -333 439 -286 b 338 -119 439 -169 404 -119 b 236 -228 271 -119 236 -169 b 338 -333 236 -286 271 -333 z "},"ṛ":{"ha":694,"x_min":0,"x_max":0,"o":"m 439 707 b 239 599 361 707 293 675 l 239 692 l 85 692 l 85 0 l 244 0 l 244 444 b 381 567 263 514 313 567 b 478 472 444 567 467 521 l 628 546 b 439 707 619 642 549 707 z m 167 -333 b 268 -228 233 -333 268 -286 b 167 -119 268 -169 233 -119 b 65 -228 100 -119 65 -169 b 167 -333 65 -286 100 -333 z "},"Ṣ":{"ha":694,"x_min":0,"x_max":0,"o":"m 350 1021 b 61 747 172 1021 61 924 b 154 525 61 646 97 576 b 361 396 214 471 300 435 b 457 257 438 347 457 307 b 353 139 457 197 429 139 b 224 263 282 139 232 188 l 58 263 b 340 -14 71 81 167 -14 b 638 278 536 -14 638 106 b 532 504 638 371 608 439 b 304 649 460 567 367 606 b 239 757 264 676 239 700 b 344 868 239 808 258 868 b 454 756 414 868 454 829 l 617 756 b 350 1021 615 917 532 1021 z m 347 -333 b 449 -228 414 -333 449 -286 b 347 -119 449 -169 414 -119 b 246 -228 281 -119 246 -169 b 347 -333 246 -286 281 -333 z "},"ṣ":{"ha":694,"x_min":0,"x_max":0,"o":"m 342 707 b 96 508 182 707 96 631 b 175 361 96 443 121 399 b 371 258 225 326 303 297 b 442 176 425 228 442 207 b 357 115 442 142 421 115 b 263 192 297 115 263 138 l 93 192 b 351 -14 97 58 192 -14 b 608 192 529 -14 608 75 b 515 360 608 269 574 322 b 319 450 460 394 382 418 b 256 521 268 476 256 494 b 342 583 256 553 272 583 b 425 519 400 583 422 561 l 589 519 b 342 707 575 643 489 707 z m 347 -333 b 449 -228 414 -333 449 -286 b 347 -119 449 -169 414 -119 b 246 -228 281 -119 246 -169 b 347 -333 246 -286 281 -333 z "},"Ṭ":{"ha":694,"x_min":0,"x_max":0,"o":"m 657 1007 l 38 1007 l 38 838 l 258 838 l 258 0 l 436 0 l 436 838 l 657 838 z m 347 -333 b 449 -228 414 -333 449 -286 b 347 -119 449 -169 414 -119 b 246 -228 281 -119 246 -169 b 347 -333 246 -286 281 -333 z "},"ṭ":{"ha":694,"x_min":0,"x_max":0,"o":"m 600 163 l 446 163 b 390 226 404 163 390 186 l 390 543 l 540 543 l 540 692 l 390 692 l 390 882 l 221 882 l 221 692 l 71 692 l 71 543 l 221 543 l 221 186 b 399 0 221 61 271 0 l 600 0 z m 375 -333 b 476 -228 442 -333 476 -286 b 375 -119 476 -169 442 -119 b 274 -228 308 -119 274 -169 b 375 -333 274 -286 308 -333 z "},"Ẁ":{"ha":694,"x_min":0,"x_max":0,"o":"m 322 1089 l 468 1089 l 335 1333 l 142 1333 z m 507 1007 l 453 454 l 349 846 l 243 454 l 190 1007 l 10 1007 l 118 0 l 256 0 l 349 414 l 439 0 l 572 0 l 686 1007 z "},"ẁ":{"ha":694,"x_min":0,"x_max":0,"o":"m 514 692 l 439 313 l 353 692 l 265 313 l 190 692 l 14 692 l 150 0 l 281 0 l 347 265 l 413 0 l 544 0 l 682 692 z m 322 774 l 468 774 l 335 1042 l 142 1042 z "},"Ẃ":{"ha":694,"x_min":0,"x_max":0,"o":"m 551 1333 l 358 1333 l 225 1089 l 371 1089 z m 507 1007 l 453 454 l 349 846 l 243 454 l 190 1007 l 10 1007 l 118 0 l 256 0 l 349 414 l 439 0 l 572 0 l 686 1007 z "},"ẃ":{"ha":694,"x_min":0,"x_max":0,"o":"m 514 692 l 439 313 l 353 692 l 265 313 l 190 692 l 14 692 l 150 0 l 281 0 l 347 265 l 413 0 l 544 0 l 682 692 z m 551 1042 l 358 1042 l 225 774 l 371 774 z "},"Ẅ":{"ha":694,"x_min":0,"x_max":0,"o":"m 181 1114 b 282 1219 247 1114 282 1161 b 181 1328 282 1278 247 1328 b 79 1219 114 1328 79 1278 b 181 1114 79 1161 114 1114 z m 514 1114 b 615 1219 581 1114 615 1161 b 514 1328 615 1278 581 1328 b 413 1219 447 1328 413 1278 b 514 1114 413 1161 447 1114 z m 507 1007 l 453 454 l 349 846 l 243 454 l 190 1007 l 10 1007 l 118 0 l 256 0 l 349 414 l 439 0 l 572 0 l 686 1007 z "},"ẅ":{"ha":694,"x_min":0,"x_max":0,"o":"m 514 692 l 439 313 l 353 692 l 265 313 l 190 692 l 14 692 l 150 0 l 281 0 l 347 265 l 413 0 l 544 0 l 682 692 z m 181 799 b 282 904 247 799 282 846 b 181 1013 282 963 247 1013 b 79 904 114 1013 79 963 b 181 799 79 846 114 799 z m 514 799 b 615 904 581 799 615 846 b 514 1013 615 963 581 1013 b 413 904 447 1013 413 963 b 514 799 413 846 447 799 z "},"Ẓ":{"ha":694,"x_min":0,"x_max":0,"o":"m 56 1007 l 56 838 l 390 838 l 31 0 l 640 0 l 640 169 l 303 169 l 654 1007 z m 347 -333 b 449 -228 414 -333 449 -286 b 347 -119 449 -169 414 -119 b 246 -228 281 -119 246 -169 b 347 -333 246 -286 281 -333 z "},"ẓ":{"ha":694,"x_min":0,"x_max":0,"o":"m 83 692 l 83 532 l 358 532 l 56 0 l 617 0 l 617 160 l 328 160 l 626 692 z m 347 -333 b 449 -228 414 -333 449 -286 b 347 -119 449 -169 414 -119 b 246 -228 281 -119 246 -169 b 347 -333 246 -286 281 -333 z "},"ẞ":{"ha":694,"x_min":0,"x_max":0,"o":"m 331 1007 b 33 707 149 1007 33 913 l 33 0 l 211 0 l 211 689 b 331 838 211 799 264 838 l 403 838 l 269 456 l 336 456 b 492 307 418 456 492 415 b 354 169 492 221 444 169 l 267 169 l 267 0 l 356 0 b 668 292 550 0 668 86 b 474 574 668 467 582 554 l 649 1007 z "},"Ạ":{"ha":694,"x_min":0,"x_max":0,"o":"m 481 0 l 669 0 l 436 1007 l 257 1007 l 25 0 l 203 0 l 233 151 l 449 151 z m 343 675 l 415 319 l 268 319 z m 347 -333 b 449 -228 414 -333 449 -286 b 347 -119 449 -169 414 -119 b 246 -228 281 -119 246 -169 b 347 -333 246 -286 281 -333 z "},"ạ":{"ha":694,"x_min":0,"x_max":0,"o":"m 464 211 b 313 128 436 164 375 128 b 213 214 260 128 213 153 b 333 308 213 268 250 308 b 464 276 385 308 438 293 z m 633 460 b 363 707 633 610 539 707 b 76 554 233 707 128 656 l 222 492 b 350 553 246 529 289 553 b 464 456 418 553 464 524 l 464 390 b 308 421 432 407 378 421 b 47 200 132 421 47 328 b 288 -14 47 79 125 -14 b 481 69 389 -14 450 22 l 481 0 l 633 0 z m 353 -333 b 454 -228 419 -333 454 -286 b 353 -119 454 -169 419 -119 b 251 -228 286 -119 251 -169 b 353 -333 251 -286 286 -333 z "},"Ả":{"ha":694,"x_min":0,"x_max":0,"o":"m 481 0 l 669 0 l 436 1007 l 257 1007 l 25 0 l 203 0 l 233 151 l 449 151 z m 343 675 l 415 319 l 268 319 z m 349 1333 b 160 1171 246 1333 176 1293 l 274 1171 b 338 1222 281 1206 296 1222 b 388 1188 374 1222 388 1211 b 289 1042 388 1122 289 1129 l 399 1042 b 533 1204 399 1110 533 1093 b 349 1333 533 1281 467 1333 z "},"ả":{"ha":694,"x_min":0,"x_max":0,"o":"m 464 211 b 313 128 436 164 375 128 b 213 214 260 128 213 153 b 333 308 213 268 250 308 b 464 276 385 308 438 293 z m 633 460 b 363 707 633 610 539 707 b 76 554 233 707 128 656 l 222 492 b 350 553 246 529 289 553 b 464 456 418 553 464 524 l 464 390 b 308 421 432 407 378 421 b 47 200 132 421 47 328 b 288 -14 47 79 125 -14 b 481 69 389 -14 450 22 l 481 0 l 633 0 z m 354 1018 b 165 856 251 1018 182 978 l 279 856 b 343 907 286 890 301 907 b 393 872 379 907 393 896 b 294 726 393 807 294 814 l 404 726 b 539 889 404 794 539 778 b 354 1018 539 965 472 1018 z "},"Ấ":{"ha":694,"x_min":0,"x_max":0,"o":"m 758 1333 l 576 1333 l 493 1185 l 453 1249 l 244 1249 l 103 1026 l 236 1026 l 347 1168 l 460 1026 l 594 1026 l 519 1143 l 604 1143 z m 481 0 l 669 0 l 436 1007 l 257 1007 l 25 0 l 203 0 l 233 151 l 449 151 z m 343 675 l 415 319 l 268 319 z "},"ấ":{"ha":694,"x_min":0,"x_max":0,"o":"m 464 211 b 313 128 436 164 375 128 b 213 214 260 128 213 153 b 333 308 213 268 250 308 b 464 276 385 308 438 293 z m 633 460 b 363 707 633 610 539 707 b 76 554 233 707 128 656 l 222 492 b 350 553 246 529 289 553 b 464 456 418 553 464 524 l 464 390 b 308 421 432 407 378 421 b 47 200 132 421 47 328 b 288 -14 47 79 125 -14 b 481 69 389 -14 450 22 l 481 0 l 633 0 z m 86 774 l 231 774 l 350 944 l 472 774 l 618 774 l 465 1042 l 239 1042 z m 556 1333 l 363 1333 l 229 1065 l 375 1065 z "},"Ầ":{"ha":694,"x_min":0,"x_max":0,"o":"m 101 1143 l 185 1143 l 111 1026 l 246 1026 l 358 1168 l 469 1026 l 603 1026 l 461 1249 l 253 1249 l 213 1185 l 129 1333 l -53 1333 z m 481 0 l 669 0 l 436 1007 l 257 1007 l 25 0 l 203 0 l 233 151 l 449 151 z m 343 675 l 415 319 l 268 319 z "},"ầ":{"ha":694,"x_min":0,"x_max":0,"o":"m 464 211 b 313 128 436 164 375 128 b 213 214 260 128 213 153 b 333 308 213 268 250 308 b 464 276 385 308 438 293 z m 633 460 b 363 707 633 610 539 707 b 76 554 233 707 128 656 l 222 492 b 350 553 246 529 289 553 b 464 456 418 553 464 524 l 464 390 b 308 421 432 407 378 421 b 47 200 132 421 47 328 b 288 -14 47 79 125 -14 b 481 69 389 -14 450 22 l 481 0 l 633 0 z m 86 774 l 231 774 l 350 944 l 472 774 l 618 774 l 465 1042 l 239 1042 z m 328 1065 l 474 1065 l 340 1333 l 147 1333 z "},"Ẩ":{"ha":694,"x_min":0,"x_max":0,"o":"m 596 1333 b 460 1229 525 1333 476 1307 l 447 1249 l 239 1249 l 97 1026 l 232 1026 l 344 1168 l 456 1026 l 589 1026 l 475 1206 l 540 1206 b 588 1247 544 1233 556 1247 b 624 1218 614 1247 624 1238 b 551 1104 624 1168 551 1174 l 632 1104 b 732 1232 632 1157 732 1146 b 596 1333 732 1292 682 1333 z m 481 0 l 669 0 l 436 1007 l 257 1007 l 25 0 l 203 0 l 233 151 l 449 151 z m 343 675 l 415 319 l 268 319 z "},"ẩ":{"ha":694,"x_min":0,"x_max":0,"o":"m 354 1333 b 165 1161 251 1333 182 1292 l 279 1161 b 343 1217 286 1200 301 1217 b 393 1179 379 1217 393 1206 b 294 1042 393 1115 306 1117 l 239 1042 l 86 774 l 231 774 l 350 944 l 472 774 l 618 774 l 465 1042 l 406 1042 b 539 1197 424 1096 539 1089 b 354 1333 539 1278 472 1333 z m 464 211 b 313 128 436 164 375 128 b 213 214 260 128 213 153 b 333 308 213 268 250 308 b 464 276 385 308 438 293 z m 633 460 b 363 707 633 610 539 707 b 76 554 233 707 128 656 l 222 492 b 350 553 246 529 289 553 b 464 456 418 553 464 524 l 464 390 b 308 421 432 407 378 421 b 47 200 132 421 47 328 b 288 -14 47 79 125 -14 b 481 69 389 -14 450 22 l 481 0 l 633 0 z "},"Ẫ":{"ha":694,"x_min":0,"x_max":0,"o":"m 236 1026 l 349 1168 l 460 1026 l 593 1026 l 486 1194 b 628 1239 543 1194 592 1207 l 628 1326 b 479 1281 574 1293 533 1281 b 211 1333 369 1281 324 1333 b 65 1289 153 1333 101 1319 l 65 1201 b 214 1247 119 1235 160 1247 b 242 1246 224 1247 232 1246 l 101 1026 z m 481 0 l 669 0 l 436 1007 l 257 1007 l 25 0 l 203 0 l 233 151 l 449 151 z m 343 675 l 415 319 l 268 319 z "},"ẫ":{"ha":694,"x_min":0,"x_max":0,"o":"m 464 211 b 313 128 436 164 375 128 b 213 214 260 128 213 153 b 333 308 213 268 250 308 b 464 276 385 308 438 293 z m 633 460 b 363 707 633 610 539 707 b 76 554 233 707 128 656 l 222 492 b 350 553 246 529 289 553 b 464 456 418 553 464 524 l 464 390 b 308 421 432 407 378 421 b 47 200 132 421 47 328 b 288 -14 47 79 125 -14 b 481 69 389 -14 450 22 l 481 0 l 633 0 z m 86 774 l 231 774 l 350 944 l 472 774 l 618 774 l 465 1042 l 239 1042 z m 497 1075 b 651 1153 558 1075 613 1099 l 651 1293 b 494 1213 594 1235 551 1213 b 207 1306 376 1213 328 1306 b 53 1228 146 1306 92 1282 l 53 1088 b 210 1168 110 1146 153 1168 b 497 1075 328 1168 376 1075 z "},"Ậ":{"ha":694,"x_min":0,"x_max":0,"o":"m 81 1089 l 225 1089 l 344 1239 l 467 1089 l 613 1089 l 460 1333 l 233 1333 z m 481 0 l 669 0 l 436 1007 l 257 1007 l 25 0 l 203 0 l 233 151 l 449 151 z m 343 675 l 415 319 l 268 319 z m 347 -333 b 449 -228 414 -333 449 -286 b 347 -119 449 -169 414 -119 b 246 -228 281 -119 246 -169 b 347 -333 246 -286 281 -333 z "},"ậ":{"ha":694,"x_min":0,"x_max":0,"o":"m 464 211 b 313 128 436 164 375 128 b 213 214 260 128 213 153 b 333 308 213 268 250 308 b 464 276 385 308 438 293 z m 633 460 b 363 707 633 610 539 707 b 76 554 233 707 128 656 l 222 492 b 350 553 246 529 289 553 b 464 456 418 553 464 524 l 464 390 b 308 421 432 407 378 421 b 47 200 132 421 47 328 b 288 -14 47 79 125 -14 b 481 69 389 -14 450 22 l 481 0 l 633 0 z m 86 774 l 231 774 l 350 944 l 472 774 l 618 774 l 465 1042 l 239 1042 z m 353 -333 b 454 -228 419 -333 454 -286 b 353 -119 454 -169 419 -119 b 251 -228 286 -119 251 -169 b 353 -333 251 -286 286 -333 z "},"Ắ":{"ha":694,"x_min":0,"x_max":0,"o":"m 347 1026 b 629 1193 543 1026 629 1076 l 475 1193 b 347 1082 475 1107 415 1082 b 219 1193 279 1082 219 1107 l 65 1193 b 347 1026 65 1076 151 1026 z m 544 1333 l 363 1333 l 256 1143 l 390 1143 z m 481 0 l 669 0 l 436 1007 l 257 1007 l 25 0 l 203 0 l 233 151 l 449 151 z m 343 675 l 415 319 l 268 319 z "},"ắ":{"ha":694,"x_min":0,"x_max":0,"o":"m 464 211 b 313 128 436 164 375 128 b 213 214 260 128 213 153 b 333 308 213 268 250 308 b 464 276 385 308 438 293 z m 633 460 b 363 707 633 610 539 707 b 76 554 233 707 128 656 l 222 492 b 350 553 246 529 289 553 b 464 456 418 553 464 524 l 464 390 b 308 421 432 407 378 421 b 47 200 132 421 47 328 b 288 -14 47 79 125 -14 b 481 69 389 -14 450 22 l 481 0 l 633 0 z m 353 757 b 621 1042 549 757 621 843 l 467 1042 b 353 853 467 894 421 853 b 239 1042 285 853 239 894 l 85 1042 b 353 757 85 843 157 757 z m 557 1333 l 364 1333 l 231 1065 l 376 1065 z "},"Ằ":{"ha":694,"x_min":0,"x_max":0,"o":"m 347 1026 b 629 1193 543 1026 629 1076 l 475 1193 b 347 1082 475 1107 415 1082 b 219 1193 279 1082 219 1107 l 65 1193 b 347 1026 65 1076 151 1026 z m 304 1143 l 439 1143 l 332 1333 l 150 1333 z m 481 0 l 669 0 l 436 1007 l 257 1007 l 25 0 l 203 0 l 233 151 l 449 151 z m 343 675 l 415 319 l 268 319 z "},"ằ":{"ha":694,"x_min":0,"x_max":0,"o":"m 464 211 b 313 128 436 164 375 128 b 213 214 260 128 213 153 b 333 308 213 268 250 308 b 464 276 385 308 438 293 z m 633 460 b 363 707 633 610 539 707 b 76 554 233 707 128 656 l 222 492 b 350 553 246 529 289 553 b 464 456 418 553 464 524 l 464 390 b 308 421 432 407 378 421 b 47 200 132 421 47 328 b 288 -14 47 79 125 -14 b 481 69 389 -14 450 22 l 481 0 l 633 0 z m 353 757 b 621 1042 549 757 621 843 l 467 1042 b 353 853 467 894 421 853 b 239 1042 285 853 239 894 l 85 1042 b 353 757 85 843 157 757 z m 328 1065 l 474 1065 l 340 1333 l 147 1333 z "},"Ẳ":{"ha":694,"x_min":0,"x_max":0,"o":"m 339 1333 b 192 1215 258 1333 204 1306 l 281 1215 b 329 1254 286 1242 297 1254 b 368 1228 358 1254 368 1246 b 292 1124 368 1182 292 1186 l 378 1124 b 482 1240 378 1172 482 1160 b 339 1333 482 1296 431 1333 z m 347 1026 b 629 1193 543 1026 629 1076 l 475 1193 b 347 1082 475 1107 415 1082 b 219 1193 279 1082 219 1107 l 65 1193 b 347 1026 65 1076 151 1026 z m 481 0 l 669 0 l 436 1007 l 257 1007 l 25 0 l 203 0 l 233 151 l 449 151 z m 343 675 l 415 319 l 268 319 z "},"ẳ":{"ha":694,"x_min":0,"x_max":0,"o":"m 464 211 b 313 128 436 164 375 128 b 213 214 260 128 213 153 b 333 308 213 268 250 308 b 464 276 385 308 438 293 z m 633 460 b 363 707 633 610 539 707 b 76 554 233 707 128 656 l 222 492 b 350 553 246 529 289 553 b 464 456 418 553 464 524 l 464 390 b 308 421 432 407 378 421 b 47 200 132 421 47 328 b 288 -14 47 79 125 -14 b 481 69 389 -14 450 22 l 481 0 l 633 0 z m 353 757 b 621 1042 549 757 621 843 l 467 1042 b 353 853 467 894 421 853 b 239 1042 285 853 239 894 l 85 1042 b 353 757 85 843 157 757 z m 354 1318 b 165 1156 251 1318 182 1278 l 279 1156 b 343 1207 286 1190 301 1207 b 393 1172 379 1207 393 1196 b 294 1026 393 1107 294 1114 l 404 1026 b 539 1189 404 1094 539 1078 b 354 1318 539 1265 472 1318 z "},"Ẵ":{"ha":694,"x_min":0,"x_max":0,"o":"m 482 1197 b 628 1239 540 1197 592 1207 l 628 1326 b 479 1281 574 1293 533 1281 b 211 1333 369 1281 324 1333 b 65 1289 153 1333 101 1319 l 65 1201 b 214 1247 119 1235 160 1247 b 482 1197 324 1247 369 1197 z m 347 1026 b 629 1193 543 1026 629 1076 l 475 1193 b 347 1082 475 1107 415 1082 b 219 1193 279 1082 219 1107 l 65 1193 b 347 1026 65 1076 151 1026 z m 481 0 l 669 0 l 436 1007 l 257 1007 l 25 0 l 203 0 l 233 151 l 449 151 z m 343 675 l 415 319 l 268 319 z "},"ẵ":{"ha":694,"x_min":0,"x_max":0,"o":"m 464 211 b 313 128 436 164 375 128 b 213 214 260 128 213 153 b 333 308 213 268 250 308 b 464 276 385 308 438 293 z m 633 460 b 363 707 633 610 539 707 b 76 554 233 707 128 656 l 222 492 b 350 553 246 529 289 553 b 464 456 418 553 464 524 l 464 390 b 308 421 432 407 378 421 b 47 200 132 421 47 328 b 288 -14 47 79 125 -14 b 481 69 389 -14 450 22 l 481 0 l 633 0 z m 353 757 b 621 1042 549 757 621 843 l 467 1042 b 353 853 467 894 421 853 b 239 1042 285 853 239 894 l 85 1042 b 353 757 85 843 157 757 z m 497 1075 b 651 1153 558 1075 613 1099 l 651 1293 b 494 1213 594 1235 551 1213 b 207 1306 376 1213 328 1306 b 53 1228 146 1306 92 1282 l 53 1088 b 210 1168 110 1146 153 1168 b 497 1075 328 1168 376 1075 z "},"Ặ":{"ha":694,"x_min":0,"x_max":0,"o":"m 347 1072 b 618 1333 543 1072 618 1140 l 464 1333 b 347 1165 464 1190 415 1165 b 231 1333 279 1165 231 1190 l 76 1333 b 347 1072 76 1140 151 1072 z m 481 0 l 669 0 l 436 1007 l 257 1007 l 25 0 l 203 0 l 233 151 l 449 151 z m 343 675 l 415 319 l 268 319 z m 347 -333 b 449 -228 414 -333 449 -286 b 347 -119 449 -169 414 -119 b 246 -228 281 -119 246 -169 b 347 -333 246 -286 281 -333 z "},"ặ":{"ha":694,"x_min":0,"x_max":0,"o":"m 464 211 b 313 128 436 164 375 128 b 213 214 260 128 213 153 b 333 308 213 268 250 308 b 464 276 385 308 438 293 z m 633 460 b 363 707 633 610 539 707 b 76 554 233 707 128 656 l 222 492 b 350 553 246 529 289 553 b 464 456 418 553 464 524 l 464 390 b 308 421 432 407 378 421 b 47 200 132 421 47 328 b 288 -14 47 79 125 -14 b 481 69 389 -14 450 22 l 481 0 l 633 0 z m 353 757 b 621 1042 549 757 621 843 l 467 1042 b 353 853 467 894 421 853 b 239 1042 285 853 239 894 l 85 1042 b 353 757 85 843 157 757 z m 353 -333 b 454 -228 419 -333 454 -286 b 353 -119 454 -169 419 -119 b 251 -228 286 -119 251 -169 b 353 -333 251 -286 286 -333 z "},"Ẹ":{"ha":694,"x_min":0,"x_max":0,"o":"m 604 169 l 271 169 l 271 428 l 576 428 l 576 590 l 271 590 l 271 838 l 604 838 l 604 1007 l 93 1007 l 93 0 l 604 0 z m 347 -333 b 449 -228 414 -333 449 -286 b 347 -119 449 -169 414 -119 b 246 -228 281 -119 246 -169 b 347 -333 246 -286 281 -333 z "},"ẹ":{"ha":694,"x_min":0,"x_max":0,"o":"m 649 303 b 651 365 651 322 651 342 b 356 707 651 589 526 707 b 49 344 171 707 49 569 b 367 -14 49 132 158 -14 b 640 156 478 -14 592 28 l 500 208 b 365 139 479 164 428 139 b 213 303 274 139 224 193 z m 210 396 b 350 558 226 492 261 558 b 490 396 436 558 482 497 z m 353 -333 b 454 -228 419 -333 454 -286 b 353 -119 454 -169 419 -119 b 251 -228 286 -119 251 -169 b 353 -333 251 -286 286 -333 z "},"Ẻ":{"ha":694,"x_min":0,"x_max":0,"o":"m 604 169 l 271 169 l 271 428 l 576 428 l 576 590 l 271 590 l 271 838 l 604 838 l 604 1007 l 93 1007 l 93 0 l 604 0 z m 349 1333 b 160 1171 246 1333 176 1293 l 274 1171 b 338 1222 281 1206 296 1222 b 388 1188 374 1222 388 1211 b 289 1042 388 1122 289 1129 l 399 1042 b 533 1204 399 1110 533 1093 b 349 1333 533 1281 467 1333 z "},"ẻ":{"ha":694,"x_min":0,"x_max":0,"o":"m 649 303 b 651 365 651 322 651 342 b 356 707 651 589 526 707 b 49 344 171 707 49 569 b 367 -14 49 132 158 -14 b 640 156 478 -14 592 28 l 500 208 b 365 139 479 164 428 139 b 213 303 274 139 224 193 z m 210 396 b 350 558 226 492 261 558 b 490 396 436 558 482 497 z m 354 1018 b 165 856 251 1018 182 978 l 279 856 b 343 907 286 890 301 907 b 393 872 379 907 393 896 b 294 726 393 807 294 814 l 404 726 b 539 889 404 794 539 778 b 354 1018 539 965 472 1018 z "},"Ế":{"ha":694,"x_min":0,"x_max":0,"o":"m 749 1333 l 567 1333 l 483 1185 l 443 1249 l 235 1249 l 93 1026 l 226 1026 l 338 1168 l 450 1026 l 585 1026 l 510 1143 l 594 1143 z m 604 169 l 271 169 l 271 428 l 576 428 l 576 590 l 271 590 l 271 838 l 604 838 l 604 1007 l 93 1007 l 93 0 l 604 0 z "},"ế":{"ha":694,"x_min":0,"x_max":0,"o":"m 649 303 b 651 365 651 322 651 342 b 356 707 651 589 526 707 b 49 344 171 707 49 569 b 367 -14 49 132 158 -14 b 640 156 478 -14 592 28 l 500 208 b 365 139 479 164 428 139 b 213 303 274 139 224 193 z m 210 396 b 350 558 226 492 261 558 b 490 396 436 558 482 497 z m 86 774 l 231 774 l 350 944 l 472 774 l 618 774 l 465 1042 l 239 1042 z m 556 1333 l 363 1333 l 229 1065 l 375 1065 z "},"Ề":{"ha":694,"x_min":0,"x_max":0,"o":"m 103 1143 l 186 1143 l 113 1026 l 247 1026 l 360 1168 l 471 1026 l 604 1026 l 463 1249 l 254 1249 l 214 1185 l 131 1333 l -51 1333 z m 604 169 l 271 169 l 271 428 l 576 428 l 576 590 l 271 590 l 271 838 l 604 838 l 604 1007 l 93 1007 l 93 0 l 604 0 z "},"ề":{"ha":694,"x_min":0,"x_max":0,"o":"m 649 303 b 651 365 651 322 651 342 b 356 707 651 589 526 707 b 49 344 171 707 49 569 b 367 -14 49 132 158 -14 b 640 156 478 -14 592 28 l 500 208 b 365 139 479 164 428 139 b 213 303 274 139 224 193 z m 210 396 b 350 558 226 492 261 558 b 490 396 436 558 482 497 z m 86 774 l 231 774 l 350 944 l 472 774 l 618 774 l 465 1042 l 239 1042 z m 328 1065 l 474 1065 l 340 1333 l 147 1333 z "},"Ể":{"ha":694,"x_min":0,"x_max":0,"o":"m 590 1333 b 454 1229 519 1333 471 1307 l 442 1249 l 233 1249 l 92 1026 l 226 1026 l 339 1168 l 450 1026 l 583 1026 l 469 1206 l 535 1206 b 582 1247 539 1233 550 1247 b 618 1218 608 1247 618 1238 b 546 1104 618 1168 546 1174 l 626 1104 b 726 1232 626 1157 726 1146 b 590 1333 726 1292 676 1333 z m 604 169 l 271 169 l 271 428 l 576 428 l 576 590 l 271 590 l 271 838 l 604 838 l 604 1007 l 93 1007 l 93 0 l 604 0 z "},"ể":{"ha":694,"x_min":0,"x_max":0,"o":"m 354 1333 b 165 1161 251 1333 182 1292 l 279 1161 b 343 1217 286 1200 301 1217 b 393 1179 379 1217 393 1206 b 294 1042 393 1115 306 1117 l 239 1042 l 86 774 l 231 774 l 350 944 l 472 774 l 618 774 l 465 1042 l 406 1042 b 539 1197 424 1096 539 1089 b 354 1333 539 1278 472 1333 z m 649 303 b 651 365 651 322 651 342 b 356 707 651 589 526 707 b 49 344 171 707 49 569 b 367 -14 49 132 158 -14 b 640 156 478 -14 592 28 l 500 208 b 365 139 479 164 428 139 b 213 303 274 139 224 193 z m 210 396 b 350 558 226 492 261 558 b 490 396 436 558 482 497 z "},"Ễ":{"ha":694,"x_min":0,"x_max":0,"o":"m 236 1026 l 349 1168 l 460 1026 l 593 1026 l 486 1194 b 628 1239 543 1194 592 1207 l 628 1326 b 479 1281 574 1293 533 1281 b 211 1333 369 1281 324 1333 b 65 1289 153 1333 101 1319 l 65 1201 b 214 1247 119 1235 160 1247 b 242 1246 224 1247 232 1246 l 101 1026 z m 604 169 l 271 169 l 271 428 l 576 428 l 576 590 l 271 590 l 271 838 l 604 838 l 604 1007 l 93 1007 l 93 0 l 604 0 z "},"ễ":{"ha":694,"x_min":0,"x_max":0,"o":"m 649 303 b 651 365 651 322 651 342 b 356 707 651 589 526 707 b 49 344 171 707 49 569 b 367 -14 49 132 158 -14 b 640 156 478 -14 592 28 l 500 208 b 365 139 479 164 428 139 b 213 303 274 139 224 193 z m 210 396 b 350 558 226 492 261 558 b 490 396 436 558 482 497 z m 86 774 l 231 774 l 350 944 l 472 774 l 618 774 l 465 1042 l 239 1042 z m 497 1075 b 651 1153 558 1075 613 1099 l 651 1293 b 494 1213 594 1235 551 1213 b 207 1306 376 1213 328 1306 b 53 1228 146 1306 92 1282 l 53 1088 b 210 1168 110 1146 153 1168 b 497 1075 328 1168 376 1075 z "},"Ệ":{"ha":694,"x_min":0,"x_max":0,"o":"m 81 1089 l 225 1089 l 344 1239 l 467 1089 l 613 1089 l 460 1333 l 233 1333 z m 604 169 l 271 169 l 271 428 l 576 428 l 576 590 l 271 590 l 271 838 l 604 838 l 604 1007 l 93 1007 l 93 0 l 604 0 z m 347 -333 b 449 -228 414 -333 449 -286 b 347 -119 449 -169 414 -119 b 246 -228 281 -119 246 -169 b 347 -333 246 -286 281 -333 z "},"ệ":{"ha":694,"x_min":0,"x_max":0,"o":"m 649 303 b 651 365 651 322 651 342 b 356 707 651 589 526 707 b 49 344 171 707 49 569 b 367 -14 49 132 158 -14 b 640 156 478 -14 592 28 l 500 208 b 365 139 479 164 428 139 b 213 303 274 139 224 193 z m 210 396 b 350 558 226 492 261 558 b 490 396 436 558 482 497 z m 86 774 l 231 774 l 350 944 l 472 774 l 618 774 l 465 1042 l 239 1042 z m 353 -333 b 454 -228 419 -333 454 -286 b 353 -119 454 -169 419 -119 b 251 -228 286 -119 251 -169 b 353 -333 251 -286 286 -333 z "},"Ỉ":{"ha":694,"x_min":0,"x_max":0,"o":"m 111 838 l 258 838 l 258 169 l 111 169 l 111 0 l 583 0 l 583 169 l 436 169 l 436 838 l 583 838 l 583 1007 l 111 1007 z m 349 1333 b 160 1171 246 1333 176 1293 l 274 1171 b 338 1222 281 1206 296 1222 b 388 1188 374 1222 388 1211 b 289 1042 388 1122 289 1129 l 399 1042 b 533 1204 399 1110 533 1093 b 349 1333 533 1281 467 1333 z "},"ỉ":{"ha":694,"x_min":0,"x_max":0,"o":"m 568 160 l 436 160 l 436 692 l 126 692 l 126 532 l 268 532 l 268 160 l 126 160 l 126 0 l 568 0 z m 349 1018 b 160 856 246 1018 176 978 l 274 856 b 338 907 281 890 296 907 b 388 872 374 907 388 896 b 289 726 388 807 289 814 l 399 726 b 533 889 399 794 533 778 b 349 1018 533 965 467 1018 z "},"Ị":{"ha":694,"x_min":0,"x_max":0,"o":"m 111 838 l 258 838 l 258 169 l 111 169 l 111 0 l 583 0 l 583 169 l 436 169 l 436 838 l 583 838 l 583 1007 l 111 1007 z m 347 -333 b 449 -228 414 -333 449 -286 b 347 -119 449 -169 414 -119 b 246 -228 281 -119 246 -169 b 347 -333 246 -286 281 -333 z "},"ị":{"ha":694,"x_min":0,"x_max":0,"o":"m 568 160 l 436 160 l 436 692 l 126 692 l 126 532 l 268 532 l 268 160 l 126 160 l 126 0 l 568 0 z m 347 799 b 449 904 414 799 449 846 b 347 1013 449 963 414 1013 b 246 904 281 1013 246 963 b 347 799 246 846 281 799 z m 347 -333 b 449 -228 414 -333 449 -286 b 347 -119 449 -169 414 -119 b 246 -228 281 -119 246 -169 b 347 -333 246 -286 281 -333 z "},"Ọ":{"ha":694,"x_min":0,"x_max":0,"o":"m 347 139 b 233 308 279 139 233 185 l 233 699 b 347 868 233 822 279 868 b 461 699 415 868 461 822 l 461 308 b 347 139 461 185 415 139 z m 347 -14 b 639 308 540 -14 639 113 l 639 699 b 347 1021 639 894 540 1021 b 56 699 154 1021 56 894 l 56 308 b 347 -14 56 113 154 -14 z m 347 -333 b 449 -228 414 -333 449 -286 b 347 -119 449 -169 414 -119 b 246 -228 281 -119 246 -169 b 347 -333 246 -286 281 -333 z "},"ọ":{"ha":694,"x_min":0,"x_max":0,"o":"m 347 554 b 482 346 426 554 482 464 b 347 138 482 228 426 138 b 213 346 268 138 213 228 b 347 554 213 464 268 554 z m 347 707 b 49 346 165 707 49 550 b 347 -14 49 142 165 -14 b 646 346 529 -14 646 142 b 347 707 646 550 529 707 z m 347 -333 b 449 -228 414 -333 449 -286 b 347 -119 449 -169 414 -119 b 246 -228 281 -119 246 -169 b 347 -333 246 -286 281 -333 z "},"Ỏ":{"ha":694,"x_min":0,"x_max":0,"o":"m 347 139 b 233 308 279 139 233 185 l 233 699 b 347 868 233 822 279 868 b 461 699 415 868 461 822 l 461 308 b 347 139 461 185 415 139 z m 347 -14 b 639 308 540 -14 639 113 l 639 699 b 347 1021 639 894 540 1021 b 56 699 154 1021 56 894 l 56 308 b 347 -14 56 113 154 -14 z m 349 1333 b 160 1171 246 1333 176 1293 l 274 1171 b 338 1222 281 1206 296 1222 b 388 1188 374 1222 388 1211 b 289 1042 388 1122 289 1129 l 399 1042 b 533 1204 399 1110 533 1093 b 349 1333 533 1281 467 1333 z "},"ỏ":{"ha":694,"x_min":0,"x_max":0,"o":"m 347 554 b 482 346 426 554 482 464 b 347 138 482 228 426 138 b 213 346 268 138 213 228 b 347 554 213 464 268 554 z m 347 707 b 49 346 165 707 49 550 b 347 -14 49 142 165 -14 b 646 346 529 -14 646 142 b 347 707 646 550 529 707 z m 349 1018 b 160 856 246 1018 176 978 l 274 856 b 338 907 281 890 296 907 b 388 872 374 907 388 896 b 289 726 388 807 289 814 l 399 726 b 533 889 399 794 533 778 b 349 1018 533 965 467 1018 z "},"Ố":{"ha":694,"x_min":0,"x_max":0,"o":"m 772 1333 l 590 1333 l 507 1185 l 467 1249 l 258 1249 l 117 1026 l 250 1026 l 361 1168 l 474 1026 l 608 1026 l 533 1143 l 618 1143 z m 347 139 b 233 308 279 139 233 185 l 233 699 b 347 868 233 822 279 868 b 461 699 415 868 461 822 l 461 308 b 347 139 461 185 415 139 z m 347 -14 b 639 308 540 -14 639 113 l 639 699 b 347 1021 639 894 540 1021 b 56 699 154 1021 56 894 l 56 308 b 347 -14 56 113 154 -14 z "},"ố":{"ha":694,"x_min":0,"x_max":0,"o":"m 347 554 b 482 346 426 554 482 464 b 347 138 482 228 426 138 b 213 346 268 138 213 228 b 347 554 213 464 268 554 z m 347 707 b 49 346 165 707 49 550 b 347 -14 49 142 165 -14 b 646 346 529 -14 646 142 b 347 707 646 550 529 707 z m 81 774 l 225 774 l 344 944 l 467 774 l 613 774 l 460 1042 l 233 1042 z m 550 1333 l 357 1333 l 224 1065 l 369 1065 z "},"Ồ":{"ha":694,"x_min":0,"x_max":0,"o":"m 108 1143 l 192 1143 l 118 1026 l 253 1026 l 365 1168 l 476 1026 l 610 1026 l 468 1249 l 260 1249 l 219 1185 l 136 1333 l -46 1333 z m 347 139 b 233 308 279 139 233 185 l 233 699 b 347 868 233 822 279 868 b 461 699 415 868 461 822 l 461 308 b 347 139 461 185 415 139 z m 347 -14 b 639 308 540 -14 639 113 l 639 699 b 347 1021 639 894 540 1021 b 56 699 154 1021 56 894 l 56 308 b 347 -14 56 113 154 -14 z "},"ồ":{"ha":694,"x_min":0,"x_max":0,"o":"m 347 554 b 482 346 426 554 482 464 b 347 138 482 228 426 138 b 213 346 268 138 213 228 b 347 554 213 464 268 554 z m 347 707 b 49 346 165 707 49 550 b 347 -14 49 142 165 -14 b 646 346 529 -14 646 142 b 347 707 646 550 529 707 z m 81 774 l 225 774 l 344 944 l 467 774 l 613 774 l 460 1042 l 233 1042 z m 322 1065 l 468 1065 l 335 1333 l 142 1333 z "},"Ổ":{"ha":694,"x_min":0,"x_max":0,"o":"m 599 1333 b 463 1229 528 1333 479 1307 l 450 1249 l 242 1249 l 100 1026 l 235 1026 l 347 1168 l 458 1026 l 592 1026 l 478 1206 l 543 1206 b 590 1247 547 1233 558 1247 b 626 1218 617 1247 626 1238 b 554 1104 626 1168 554 1174 l 635 1104 b 735 1232 635 1157 735 1146 b 599 1333 735 1292 685 1333 z m 347 139 b 233 308 279 139 233 185 l 233 699 b 347 868 233 822 279 868 b 461 699 415 868 461 822 l 461 308 b 347 139 461 185 415 139 z m 347 -14 b 639 308 540 -14 639 113 l 639 699 b 347 1021 639 894 540 1021 b 56 699 154 1021 56 894 l 56 308 b 347 -14 56 113 154 -14 z "},"ổ":{"ha":694,"x_min":0,"x_max":0,"o":"m 349 1333 b 160 1161 246 1333 176 1292 l 274 1161 b 338 1217 281 1200 296 1217 b 388 1179 374 1217 388 1206 b 289 1042 388 1115 300 1117 l 233 1042 l 81 774 l 225 774 l 344 944 l 467 774 l 613 774 l 460 1042 l 400 1042 b 533 1197 418 1096 533 1089 b 349 1333 533 1278 467 1333 z m 347 554 b 482 346 426 554 482 464 b 347 138 482 228 426 138 b 213 346 268 138 213 228 b 347 554 213 464 268 554 z m 347 707 b 49 346 165 707 49 550 b 347 -14 49 142 165 -14 b 646 346 529 -14 646 142 b 347 707 646 550 529 707 z "},"Ỗ":{"ha":694,"x_min":0,"x_max":0,"o":"m 236 1026 l 349 1168 l 460 1026 l 593 1026 l 486 1194 b 628 1239 543 1194 592 1207 l 628 1326 b 479 1281 574 1293 533 1281 b 211 1333 369 1281 324 1333 b 65 1289 153 1333 101 1319 l 65 1201 b 214 1247 119 1235 160 1247 b 242 1246 224 1247 232 1246 l 101 1026 z m 347 139 b 233 308 279 139 233 185 l 233 699 b 347 868 233 822 279 868 b 461 699 415 868 461 822 l 461 308 b 347 139 461 185 415 139 z m 347 -14 b 639 308 540 -14 639 113 l 639 699 b 347 1021 639 894 540 1021 b 56 699 154 1021 56 894 l 56 308 b 347 -14 56 113 154 -14 z "},"ỗ":{"ha":694,"x_min":0,"x_max":0,"o":"m 347 554 b 482 346 426 554 482 464 b 347 138 482 228 426 138 b 213 346 268 138 213 228 b 347 554 213 464 268 554 z m 347 707 b 49 346 165 707 49 550 b 347 -14 49 142 165 -14 b 646 346 529 -14 646 142 b 347 707 646 550 529 707 z m 81 774 l 225 774 l 344 944 l 467 774 l 613 774 l 460 1042 l 233 1042 z m 492 1075 b 646 1153 553 1075 607 1099 l 646 1293 b 489 1213 589 1235 546 1213 b 201 1306 371 1213 322 1306 b 47 1228 140 1306 86 1282 l 47 1088 b 204 1168 104 1146 147 1168 b 492 1075 322 1168 371 1075 z "},"Ộ":{"ha":694,"x_min":0,"x_max":0,"o":"m 81 1089 l 225 1089 l 344 1239 l 467 1089 l 613 1089 l 460 1333 l 233 1333 z m 347 139 b 233 308 279 139 233 185 l 233 699 b 347 868 233 822 279 868 b 461 699 415 868 461 822 l 461 308 b 347 139 461 185 415 139 z m 347 -14 b 639 308 540 -14 639 113 l 639 699 b 347 1021 639 894 540 1021 b 56 699 154 1021 56 894 l 56 308 b 347 -14 56 113 154 -14 z m 347 -333 b 449 -228 414 -333 449 -286 b 347 -119 449 -169 414 -119 b 246 -228 281 -119 246 -169 b 347 -333 246 -286 281 -333 z "},"ộ":{"ha":694,"x_min":0,"x_max":0,"o":"m 347 554 b 482 346 426 554 482 464 b 347 138 482 228 426 138 b 213 346 268 138 213 228 b 347 554 213 464 268 554 z m 347 707 b 49 346 165 707 49 550 b 347 -14 49 142 165 -14 b 646 346 529 -14 646 142 b 347 707 646 550 529 707 z m 81 774 l 225 774 l 344 944 l 467 774 l 613 774 l 460 1042 l 233 1042 z m 347 -333 b 449 -228 414 -333 449 -286 b 347 -119 449 -169 414 -119 b 246 -228 281 -119 246 -169 b 347 -333 246 -286 281 -333 z "},"Ớ":{"ha":694,"x_min":0,"x_max":0,"o":"m 554 1333 l 361 1333 l 228 1089 l 374 1089 z m 347 -14 b 639 308 540 -14 639 113 l 639 699 b 560 939 639 800 613 882 b 772 1100 704 939 772 994 b 740 1204 772 1143 760 1181 l 563 1204 b 603 1097 597 1164 603 1135 b 518 1007 603 1029 585 1007 l 449 1007 b 347 1021 418 1015 385 1021 b 56 699 154 1021 56 894 l 56 308 b 347 -14 56 113 154 -14 z m 347 139 b 233 308 279 139 233 185 l 233 699 b 347 868 233 822 279 868 b 461 699 415 868 461 822 l 461 308 b 347 139 461 185 415 139 z "},"ớ":{"ha":694,"x_min":0,"x_max":0,"o":"m 319 707 b 21 346 138 707 21 550 b 319 -14 21 142 138 -14 b 618 346 501 -14 618 142 b 533 607 618 450 588 542 b 718 808 658 617 718 686 b 686 940 718 864 706 910 l 508 940 b 549 806 543 890 549 853 b 464 692 549 719 531 692 l 413 692 b 319 707 383 701 353 707 z m 319 554 b 454 346 399 554 454 464 b 319 138 454 228 399 138 b 185 346 240 138 185 228 b 319 554 185 464 240 554 z m 526 1042 l 333 1042 l 200 774 l 346 774 z "},"Ờ":{"ha":694,"x_min":0,"x_max":0,"o":"m 322 1089 l 468 1089 l 335 1333 l 142 1333 z m 347 -14 b 639 308 540 -14 639 113 l 639 699 b 560 939 639 800 613 882 b 772 1100 704 939 772 994 b 740 1204 772 1143 760 1181 l 563 1204 b 603 1097 597 1164 603 1135 b 518 1007 603 1029 585 1007 l 449 1007 b 347 1021 418 1015 385 1021 b 56 699 154 1021 56 894 l 56 308 b 347 -14 56 113 154 -14 z m 347 139 b 233 308 279 139 233 185 l 233 699 b 347 868 233 822 279 868 b 461 699 415 868 461 822 l 461 308 b 347 139 461 185 415 139 z "},"ờ":{"ha":694,"x_min":0,"x_max":0,"o":"m 319 707 b 21 346 138 707 21 550 b 319 -14 21 142 138 -14 b 618 346 501 -14 618 142 b 533 607 618 450 588 542 b 718 808 658 617 718 686 b 686 940 718 864 706 910 l 508 940 b 549 806 543 890 549 853 b 464 692 549 719 531 692 l 413 692 b 319 707 383 701 353 707 z m 319 554 b 454 346 399 554 454 464 b 319 138 454 228 399 138 b 185 346 240 138 185 228 b 319 554 185 464 240 554 z m 299 774 l 444 774 l 311 1042 l 118 1042 z "},"Ở":{"ha":694,"x_min":0,"x_max":0,"o":"m 347 -14 b 639 308 540 -14 639 113 l 639 699 b 560 939 639 800 613 882 b 772 1100 704 939 772 994 b 740 1204 772 1143 760 1181 l 563 1204 b 603 1097 597 1164 603 1135 b 518 1007 603 1029 585 1007 l 449 1007 b 347 1021 418 1015 385 1021 b 56 699 154 1021 56 894 l 56 308 b 347 -14 56 113 154 -14 z m 347 139 b 233 308 279 139 233 185 l 233 699 b 347 868 233 822 279 868 b 461 699 415 868 461 822 l 461 308 b 347 139 461 185 415 139 z m 349 1333 b 160 1171 246 1333 176 1293 l 274 1171 b 338 1222 281 1206 296 1222 b 388 1188 374 1222 388 1211 b 289 1042 388 1122 289 1129 l 399 1042 b 533 1204 399 1110 533 1093 b 349 1333 533 1281 467 1333 z "},"ở":{"ha":694,"x_min":0,"x_max":0,"o":"m 319 707 b 21 346 138 707 21 550 b 319 -14 21 142 138 -14 b 618 346 501 -14 618 142 b 533 607 618 450 588 542 b 718 808 658 617 718 686 b 686 940 718 864 706 910 l 508 940 b 549 806 543 890 549 853 b 464 692 549 719 531 692 l 413 692 b 319 707 383 701 353 707 z m 319 554 b 454 346 399 554 454 464 b 319 138 454 228 399 138 b 185 346 240 138 185 228 b 319 554 185 464 240 554 z m 324 1018 b 135 856 221 1018 151 978 l 249 856 b 313 907 256 890 271 907 b 363 872 349 907 363 896 b 264 726 363 807 264 814 l 374 726 b 508 889 374 794 508 778 b 324 1018 508 965 442 1018 z "},"Ỡ":{"ha":694,"x_min":0,"x_max":0,"o":"m 492 1103 b 600 1135 531 1103 568 1113 b 603 1097 603 1122 603 1110 b 518 1007 603 1029 585 1007 l 449 1007 b 347 1021 418 1015 385 1021 b 56 699 154 1021 56 894 l 56 308 b 347 -14 56 113 154 -14 b 639 308 540 -14 639 113 l 639 699 b 560 939 639 800 613 882 b 772 1100 704 939 772 994 b 740 1204 772 1143 760 1181 l 646 1204 l 646 1321 b 489 1240 589 1263 546 1240 b 201 1333 371 1240 322 1333 b 47 1256 140 1333 86 1310 l 47 1115 b 204 1196 104 1174 147 1196 b 492 1103 322 1196 371 1103 z m 347 139 b 233 308 279 139 233 185 l 233 699 b 347 868 233 822 279 868 b 461 699 415 868 461 822 l 461 308 b 347 139 461 185 415 139 z "},"ỡ":{"ha":694,"x_min":0,"x_max":0,"o":"m 465 797 b 549 814 494 797 522 803 l 549 806 b 464 692 549 719 531 692 l 413 692 b 319 707 383 701 353 707 b 21 346 138 707 21 550 b 319 -14 21 142 138 -14 b 618 346 501 -14 618 142 b 533 607 618 450 588 542 b 718 808 658 617 718 686 b 686 940 718 864 706 910 l 619 940 l 619 1015 b 463 935 563 957 519 935 b 175 1028 344 935 296 1028 b 21 950 114 1028 60 1004 l 21 810 b 178 890 78 868 121 890 b 465 797 296 890 344 797 z m 319 554 b 454 346 399 554 454 464 b 319 138 454 228 399 138 b 185 346 240 138 185 228 b 319 554 185 464 240 554 z "},"Ợ":{"ha":694,"x_min":0,"x_max":0,"o":"m 347 -14 b 639 308 540 -14 639 113 l 639 699 b 560 939 639 800 613 882 b 772 1100 704 939 772 994 b 740 1204 772 1143 760 1181 l 563 1204 b 603 1097 597 1164 603 1135 b 518 1007 603 1029 585 1007 l 449 1007 b 347 1021 418 1015 385 1021 b 56 699 154 1021 56 894 l 56 308 b 347 -14 56 113 154 -14 z m 347 139 b 233 308 279 139 233 185 l 233 699 b 347 868 233 822 279 868 b 461 699 415 868 461 822 l 461 308 b 347 139 461 185 415 139 z m 347 -333 b 449 -228 414 -333 449 -286 b 347 -119 449 -169 414 -119 b 246 -228 281 -119 246 -169 b 347 -333 246 -286 281 -333 z "},"ợ":{"ha":694,"x_min":0,"x_max":0,"o":"m 319 707 b 21 346 138 707 21 550 b 319 -14 21 142 138 -14 b 618 346 501 -14 618 142 b 533 607 618 450 588 542 b 718 808 658 617 718 686 b 686 940 718 864 706 910 l 508 940 b 549 806 543 890 549 853 b 464 692 549 719 531 692 l 413 692 b 319 707 383 701 353 707 z m 319 554 b 454 346 399 554 454 464 b 319 138 454 228 399 138 b 185 346 240 138 185 228 b 319 554 185 464 240 554 z m 319 -333 b 421 -228 386 -333 421 -286 b 319 -119 421 -169 386 -119 b 218 -228 253 -119 218 -169 b 319 -333 218 -286 253 -333 z "},"Ụ":{"ha":694,"x_min":0,"x_max":0,"o":"m 646 1007 l 474 1007 l 474 296 b 349 147 474 186 415 147 b 226 296 281 147 226 186 l 226 1007 l 49 1007 l 49 286 b 349 -14 49 83 163 -14 b 646 286 529 -14 646 79 z m 347 -333 b 449 -228 414 -333 449 -286 b 347 -119 449 -169 414 -119 b 246 -228 281 -119 246 -169 b 347 -333 246 -286 281 -333 z "},"ụ":{"ha":694,"x_min":0,"x_max":0,"o":"m 639 692 l 475 692 l 475 268 b 349 142 475 176 410 142 b 225 268 288 142 225 176 l 225 692 l 56 692 l 56 256 b 350 -14 56 86 179 -14 b 639 256 519 -14 639 86 z m 347 -333 b 449 -228 414 -333 449 -286 b 347 -119 449 -169 414 -119 b 246 -228 281 -119 246 -169 b 347 -333 246 -286 281 -333 z "},"Ủ":{"ha":694,"x_min":0,"x_max":0,"o":"m 646 1007 l 474 1007 l 474 296 b 349 147 474 186 415 147 b 226 296 281 147 226 186 l 226 1007 l 49 1007 l 49 286 b 349 -14 49 83 163 -14 b 646 286 529 -14 646 79 z m 349 1333 b 160 1171 246 1333 176 1293 l 274 1171 b 338 1222 281 1206 296 1222 b 388 1188 374 1222 388 1211 b 289 1042 388 1122 289 1129 l 399 1042 b 533 1204 399 1110 533 1093 b 349 1333 533 1281 467 1333 z "},"ủ":{"ha":694,"x_min":0,"x_max":0,"o":"m 639 692 l 475 692 l 475 268 b 349 142 475 176 410 142 b 225 268 288 142 225 176 l 225 692 l 56 692 l 56 256 b 350 -14 56 86 179 -14 b 639 256 519 -14 639 86 z m 349 1018 b 160 856 246 1018 176 978 l 274 856 b 338 907 281 890 296 907 b 388 872 374 907 388 896 b 289 726 388 807 289 814 l 399 726 b 533 889 399 794 533 778 b 349 1018 533 965 467 1018 z "},"Ứ":{"ha":694,"x_min":0,"x_max":0,"o":"m 510 1333 l 317 1333 l 183 1089 l 329 1089 z m 776 1100 b 744 1204 776 1143 764 1181 l 567 1204 b 607 1097 601 1164 607 1135 b 522 1007 607 1029 589 1007 l 474 1007 l 474 296 b 349 147 474 186 415 147 b 226 296 281 147 226 186 l 226 1007 l 49 1007 l 49 286 b 349 -14 49 83 163 -14 b 646 286 529 -14 646 79 l 646 946 b 776 1100 733 965 776 1017 z "},"ứ":{"ha":694,"x_min":0,"x_max":0,"o":"m 461 268 b 335 142 461 176 396 142 b 211 268 274 142 211 176 l 211 692 l 42 692 l 42 256 b 336 -14 42 86 165 -14 b 625 256 506 -14 625 86 l 625 629 b 718 808 688 661 718 721 b 686 940 718 864 706 910 l 508 940 b 549 806 543 890 549 853 b 479 692 549 719 531 692 l 461 692 z m 542 1042 l 349 1042 l 215 774 l 361 774 z "},"Ừ":{"ha":694,"x_min":0,"x_max":0,"o":"m 364 1089 l 510 1089 l 376 1333 l 183 1333 z m 776 1100 b 744 1204 776 1143 764 1181 l 567 1204 b 607 1097 601 1164 607 1135 b 522 1007 607 1029 589 1007 l 474 1007 l 474 296 b 349 147 474 186 415 147 b 226 296 281 147 226 186 l 226 1007 l 49 1007 l 49 286 b 349 -14 49 83 163 -14 b 646 286 529 -14 646 79 l 646 946 b 776 1100 733 965 776 1017 z "},"ừ":{"ha":694,"x_min":0,"x_max":0,"o":"m 461 268 b 335 142 461 176 396 142 b 211 268 274 142 211 176 l 211 692 l 42 692 l 42 256 b 336 -14 42 86 165 -14 b 625 256 506 -14 625 86 l 625 629 b 718 808 688 661 718 721 b 686 940 718 864 706 910 l 508 940 b 549 806 543 890 549 853 b 479 692 549 719 531 692 l 461 692 z m 311 774 l 457 774 l 324 1042 l 131 1042 z "},"Ử":{"ha":694,"x_min":0,"x_max":0,"o":"m 349 1333 b 160 1171 246 1333 176 1293 l 274 1171 b 338 1222 281 1206 296 1222 b 388 1188 374 1222 388 1211 b 289 1042 388 1122 289 1129 l 399 1042 b 533 1204 399 1110 533 1093 b 349 1333 533 1281 467 1333 z m 776 1100 b 744 1204 776 1143 764 1181 l 567 1204 b 607 1097 601 1164 607 1135 b 522 1007 607 1029 589 1007 l 474 1007 l 474 296 b 349 147 474 186 415 147 b 226 296 281 147 226 186 l 226 1007 l 49 1007 l 49 286 b 349 -14 49 83 163 -14 b 646 286 529 -14 646 79 l 646 946 b 776 1100 733 965 776 1017 z "},"ử":{"ha":694,"x_min":0,"x_max":0,"o":"m 461 268 b 335 142 461 176 396 142 b 211 268 274 142 211 176 l 211 692 l 42 692 l 42 256 b 336 -14 42 86 165 -14 b 625 256 506 -14 625 86 l 625 629 b 718 808 688 661 718 721 b 686 940 718 864 706 910 l 508 940 b 549 806 543 890 549 853 b 479 692 549 719 531 692 l 461 692 z m 322 1018 b 133 856 219 1018 150 978 l 247 856 b 311 907 254 890 269 907 b 361 872 347 907 361 896 b 263 726 361 807 263 814 l 372 726 b 507 889 372 794 507 778 b 322 1018 507 965 440 1018 z "},"Ữ":{"ha":694,"x_min":0,"x_max":0,"o":"m 492 1103 b 603 1136 532 1103 571 1113 b 607 1097 606 1124 607 1111 b 532 1007 607 1032 590 1008 l 474 1007 l 474 296 b 349 147 474 186 415 147 b 226 296 281 147 226 186 l 226 1007 l 49 1007 l 49 286 b 349 -14 49 83 163 -14 b 646 286 529 -14 646 79 l 646 946 b 776 1100 733 965 776 1017 b 744 1204 776 1143 764 1181 l 646 1204 l 646 1321 b 489 1240 589 1263 546 1240 b 201 1333 371 1240 322 1333 b 47 1256 140 1333 86 1310 l 47 1115 b 204 1196 104 1174 147 1196 b 492 1103 322 1196 371 1103 z "}}}
